<svg xmlns="http://www.w3.org/2000/svg" width="1200" height="700" viewBox="0 0 1200 700"><rect width="100%" height="100%" fill="white"/><style>text{font-family:Arial,sans-serif;fill:#263238}.g{stroke:#d8dde2;stroke-width:1}</style><text x="95" y="30" font-size="22" font-weight="700">Foxchase — Current Production + One-Spread Pilot</text><line class="g" x1="95" x2="1170" y1="420.0" y2="420.0"/><text x="85" y="425.0" font-size="13" text-anchor="end">$6,553</text><line class="g" x1="95" x2="1170" y1="347.00000000000006" y2="347.00000000000006"/><text x="85" y="352.00000000000006" font-size="13" text-anchor="end">$16,928</text><line class="g" x1="95" x2="1170" y1="274.0" y2="274.0"/><text x="85" y="279.0" font-size="13" text-anchor="end">$27,303</text><line class="g" x1="95" x2="1170" y1="201.00000000000003" y2="201.00000000000003"/><text x="85" y="206.00000000000003" font-size="13" text-anchor="end">$37,678</text><line class="g" x1="95" x2="1170" y1="128.0" y2="128.0"/><text x="85" y="133.0" font-size="13" text-anchor="end">$48,052</text><line class="g" x1="95" x2="1170" y1="55.0" y2="55.0"/><text x="85" y="60.0" font-size="13" text-anchor="end">$58,427</text><line class="g" x1="95" x2="1170" y1="630.0" y2="630.0"/><text x="85" y="635.0" font-size="13" text-anchor="end">-19%</text><line class="g" x1="95" x2="1170" y1="588.75" y2="588.75"/><text x="85" y="593.75" font-size="13" text-anchor="end">-14%</text><line class="g" x1="95" x2="1170" y1="547.5" y2="547.5"/><text x="85" y="552.5" font-size="13" text-anchor="end">-9%</text><line class="g" x1="95" x2="1170" y1="506.25" y2="506.25"/><text x="85" y="511.25" font-size="13" text-anchor="end">-5%</text><line class="g" x1="95" x2="1170" y1="465.0" y2="465.0"/><text x="85" y="470.0" font-size="13" text-anchor="end">0%</text><polyline fill="none" stroke="#c45a24" stroke-width="2.5" points="95.0,395.7 96.2,395.5 97.4,395.4 98.6,395.4 99.7,395.4 100.9,394.7 102.1,394.6 103.3,394.3 104.5,394.2 105.7,394.6 106.8,394.1 108.0,394.1 109.2,394.0 110.4,394.5 111.6,393.9 112.8,393.1 113.9,392.9 115.1,393.1 116.3,393.4 117.5,392.8 118.7,393.4 119.9,393.9 121.0,393.8 122.2,393.1 123.4,392.8 124.6,392.5 125.8,393.4 127.0,393.4 128.1,395.1 129.3,395.5 130.5,395.9 131.7,397.3 132.9,396.7 134.1,396.9 135.3,397.6 136.4,396.5 137.6,392.8 138.8,392.5 140.0,391.3 141.2,391.2 142.4,391.5 143.5,391.8 144.7,391.9 145.9,391.4 147.1,391.4 148.3,390.6 149.5,389.7 150.6,389.3 151.8,388.9 153.0,388.9 154.2,388.9 155.4,388.6 156.6,388.8 157.7,388.8 158.9,388.2 160.1,388.0 161.3,387.7 162.5,387.6 163.7,387.4 164.9,387.5 166.0,387.4 167.2,387.4 168.4,387.5 169.6,388.6 170.8,388.4 172.0,388.4 173.1,388.3 174.3,388.3 175.5,388.3 176.7,388.4 177.9,388.4 179.1,388.4 180.2,389.1 181.4,390.1 182.6,390.1 183.8,389.4 185.0,389.2 186.2,389.6 187.3,389.9 188.5,389.4 189.7,388.3 190.9,388.2 192.1,388.5 193.3,388.0 194.4,388.3 195.6,388.6 196.8,388.5 198.0,388.6 199.2,388.4 200.4,388.3 201.6,388.3 202.7,388.4 203.9,388.8 205.1,389.3 206.3,388.3 207.5,387.7 208.7,387.6 209.8,387.2 211.0,386.9 212.2,386.7 213.4,387.0 214.6,386.6 215.8,387.0 216.9,387.0 218.1,386.9 219.3,386.5 220.5,386.3 221.7,386.2 222.9,386.1 224.0,386.1 225.2,385.9 226.4,386.2 227.6,385.8 228.8,386.6 230.0,387.0 231.2,386.1 232.3,386.1 233.5,386.0 234.7,385.3 235.9,385.3 237.1,385.3 238.3,385.6 239.4,385.7 240.6,385.6 241.8,385.2 243.0,384.7 244.2,384.5 245.4,384.5 246.5,384.5 247.7,385.3 248.9,385.4 250.1,385.9 251.3,385.9 252.5,385.6 253.6,385.5 254.8,385.4 256.0,385.3 257.2,385.0 258.4,384.7 259.6,384.8 260.7,385.3 261.9,385.4 263.1,385.7 264.3,385.0 265.5,385.1 266.7,385.3 267.9,385.1 269.0,386.7 270.2,386.0 271.4,386.4 272.6,387.4 273.8,388.3 275.0,388.4 276.1,387.9 277.3,387.9 278.5,386.3 279.7,388.5 280.9,386.2 282.1,385.3 283.2,384.4 284.4,384.4 285.6,384.1 286.8,384.6 288.0,384.2 289.2,384.4 290.3,384.1 291.5,384.0 292.7,383.6 293.9,384.0 295.1,383.8 296.3,383.3 297.5,383.8 298.6,383.9 299.8,383.8 301.0,384.8 302.2,386.8 303.4,387.1 304.6,386.6 305.7,387.6 306.9,387.7 308.1,388.1 309.3,389.0 310.5,388.6 311.7,389.4 312.8,388.9 314.0,389.9 315.2,387.8 316.4,387.3 317.6,386.7 318.8,386.1 319.9,387.0 321.1,388.2 322.3,388.4 323.5,388.5 324.7,389.2 325.9,390.0 327.0,389.9 328.2,390.0 329.4,389.3 330.6,392.2 331.8,393.7 333.0,393.8 334.2,393.0 335.3,392.1 336.5,391.0 337.7,389.8 338.9,389.7 340.1,389.8 341.3,389.6 342.4,389.6 343.6,390.0 344.8,389.5 346.0,389.6 347.2,389.1 348.4,389.1 349.5,389.1 350.7,389.0 351.9,388.9 353.1,388.7 354.3,388.5 355.5,388.5 356.6,388.6 357.8,388.5 359.0,388.6 360.2,388.3 361.4,388.0 362.6,388.4 363.8,388.3 364.9,388.7 366.1,388.0 367.3,387.6 368.5,386.9 369.7,386.9 370.9,386.9 372.0,386.9 373.2,386.9 374.4,386.9 375.6,386.0 376.8,386.0 378.0,385.0 379.1,385.0 380.3,385.0 381.5,385.0 382.7,385.0 383.9,384.8 385.1,384.8 386.2,384.6 387.4,384.9 388.6,384.7 389.8,384.1 391.0,384.1 392.2,384.0 393.3,384.0 394.5,385.4 395.7,386.0 396.9,386.2 398.1,385.8 399.3,385.4 400.5,385.0 401.6,385.2 402.8,384.8 404.0,384.2 405.2,384.3 406.4,384.1 407.6,384.3 408.7,383.8 409.9,383.2 411.1,382.7 412.3,382.7 413.5,382.7 414.7,382.6 415.8,382.6 417.0,382.4 418.2,382.4 419.4,382.4 420.6,382.3 421.8,382.2 422.9,382.2 424.1,382.3 425.3,382.3 426.5,381.4 427.7,381.4 428.9,381.4 430.0,381.2 431.2,381.4 432.4,380.8 433.6,380.5 434.8,380.4 436.0,380.4 437.2,380.4 438.3,380.4 439.5,380.4 440.7,380.1 441.9,379.7 443.1,379.8 444.3,378.7 445.4,379.8 446.6,379.3 447.8,379.0 449.0,378.7 450.2,378.7 451.4,378.7 452.5,378.8 453.7,378.8 454.9,378.5 456.1,378.4 457.3,378.4 458.5,378.6 459.6,378.6 460.8,379.7 462.0,378.8 463.2,378.6 464.4,377.9 465.6,378.6 466.8,377.6 467.9,378.8 469.1,378.5 470.3,378.0 471.5,380.6 472.7,381.2 473.9,382.8 475.0,381.9 476.2,379.9 477.4,379.9 478.6,380.8 479.8,379.2 481.0,379.1 482.1,379.8 483.3,379.9 484.5,384.1 485.7,382.0 486.9,381.8 488.1,381.8 489.2,381.8 490.4,381.6 491.6,381.5 492.8,381.5 494.0,381.3 495.2,380.9 496.3,380.9 497.5,381.1 498.7,381.1 499.9,380.9 501.1,381.1 502.3,382.3 503.5,381.6 504.6,381.5 505.8,382.2 507.0,383.0 508.2,381.5 509.4,381.4 510.6,381.3 511.7,380.2 512.9,380.2 514.1,380.1 515.3,380.1 516.5,379.9 517.7,379.7 518.8,378.9 520.0,378.8 521.2,378.6 522.4,378.5 523.6,378.2 524.8,377.4 525.9,377.7 527.1,377.3 528.3,375.8 529.5,375.4 530.7,375.2 531.9,377.6 533.1,377.6 534.2,377.6 535.4,377.6 536.6,377.7 537.8,376.6 539.0,376.6 540.2,375.6 541.3,375.6 542.5,375.8 543.7,374.6 544.9,374.1 546.1,373.7 547.3,373.7 548.4,373.8 549.6,372.9 550.8,372.9 552.0,372.9 553.2,372.9 554.4,373.1 555.5,369.6 556.7,369.3 557.9,367.3 559.1,365.5 560.3,365.7 561.5,364.9 562.6,364.9 563.8,364.9 565.0,364.9 566.2,365.0 567.4,364.0 568.6,364.0 569.8,364.0 570.9,364.0 572.1,363.9 573.3,362.3 574.5,362.3 575.7,361.0 576.9,361.0 578.0,360.5 579.2,360.4 580.4,361.0 581.6,361.0 582.8,360.7 584.0,359.3 585.1,359.3 586.3,359.3 587.5,358.2 588.7,358.3 589.9,359.2 591.1,359.2 592.2,359.2 593.4,359.2 594.6,359.3 595.8,357.8 597.0,357.8 598.2,357.8 599.4,357.1 600.5,356.7 601.7,355.8 602.9,355.8 604.1,355.8 605.3,355.8 606.5,355.6 607.6,351.5 608.8,351.5 610.0,351.5 611.2,351.5 612.4,351.8 613.6,350.6 614.7,350.6 615.9,350.6 617.1,350.6 618.3,350.7 619.5,349.2 620.7,349.2 621.8,348.0 623.0,348.0 624.2,348.1 625.4,347.1 626.6,345.2 627.8,345.2 628.9,345.2 630.1,345.4 631.3,345.8 632.5,345.8 633.7,345.5 634.9,345.5 636.1,345.8 637.2,344.8 638.4,344.8 639.6,344.8 640.8,344.8 642.0,344.8 643.2,343.8 644.3,343.2 645.5,343.2 646.7,344.4 647.9,343.8 649.1,342.8 650.3,342.8 651.4,342.8 652.6,342.8 653.8,342.9 655.0,341.9 656.2,341.3 657.4,341.1 658.5,341.1 659.7,341.1 660.9,341.1 662.1,341.1 663.3,341.1 664.5,340.6 665.6,339.7 666.8,339.1 668.0,339.1 669.2,339.1 670.4,339.1 671.6,338.2 672.8,338.2 673.9,338.2 675.1,338.2 676.3,337.7 677.5,337.7 678.7,337.7 679.9,336.7 681.0,337.0 682.2,335.7 683.4,334.7 684.6,334.7 685.8,334.7 687.0,334.7 688.1,335.2 689.3,333.9 690.5,333.8 691.7,335.1 692.9,335.1 694.1,335.1 695.2,335.1 696.4,335.2 697.6,334.2 698.8,334.2 700.0,333.7 701.2,333.8 702.4,333.2 703.5,333.2 704.7,333.2 705.9,332.9 707.1,333.0 708.3,332.4 709.5,332.4 710.6,332.4 711.8,332.4 713.0,332.6 714.2,331.1 715.4,331.1 716.6,330.6 717.7,330.6 718.9,330.8 720.1,329.7 721.3,329.7 722.5,327.3 723.7,327.6 724.8,324.8 726.0,322.2 727.2,316.6 728.4,316.4 729.6,316.4 730.8,311.8 731.9,311.2 733.1,311.2 734.3,311.2 735.5,311.6 736.7,310.3 737.9,314.1 739.1,311.6 740.2,311.6 741.4,311.7 742.6,310.6 743.8,310.6 745.0,310.6 746.2,311.7 747.3,311.2 748.5,310.1 749.7,308.8 750.9,308.8 752.1,307.4 753.3,306.9 754.4,305.5 755.6,314.1 756.8,311.6 758.0,311.7 759.2,315.1 760.4,312.7 761.5,310.8 762.7,310.8 763.9,310.8 765.1,311.1 766.3,309.9 767.5,309.9 768.7,309.9 769.8,310.2 771.0,308.9 772.2,308.9 773.4,308.9 774.6,308.9 775.8,309.1 776.9,308.0 778.1,308.5 779.3,307.9 780.5,307.9 781.7,308.1 782.9,307.5 784.0,306.8 785.2,306.8 786.4,306.8 787.6,306.8 788.8,305.9 790.0,305.9 791.1,305.8 792.3,305.4 793.5,305.3 794.7,303.9 795.9,304.2 797.1,303.4 798.2,302.8 799.4,302.2 800.6,302.2 801.8,302.2 803.0,301.9 804.2,301.3 805.4,301.3 806.5,301.3 807.7,301.3 808.9,301.3 810.1,301.4 811.3,300.5 812.5,300.5 813.6,300.5 814.8,300.0 816.0,297.3 817.2,296.5 818.4,295.8 819.6,297.3 820.7,296.7 821.9,295.9 823.1,295.9 824.3,295.9 825.5,295.9 826.7,295.6 827.8,294.6 829.0,294.6 830.2,294.6 831.4,294.7 832.6,293.7 833.8,293.2 835.0,293.2 836.1,293.5 837.3,292.9 838.5,291.5 839.7,290.1 840.9,289.6 842.1,288.7 843.2,288.8 844.4,291.4 845.6,291.4 846.8,291.4 848.0,291.4 849.2,291.6 850.3,290.6 851.5,289.6 852.7,289.3 853.9,287.2 855.1,286.6 856.3,286.6 857.4,286.6 858.6,285.0 859.8,285.0 861.0,285.2 862.2,285.0 863.4,284.9 864.5,285.0 865.7,284.0 866.9,284.1 868.1,284.8 869.3,284.3 870.5,280.4 871.7,280.4 872.8,279.8 874.0,279.8 875.2,279.3 876.4,279.3 877.6,276.4 878.8,276.4 879.9,275.9 881.1,275.9 882.3,273.2 883.5,273.4 884.7,273.7 885.9,273.7 887.0,273.7 888.2,273.8 889.4,273.2 890.6,273.2 891.8,275.9 893.0,275.4 894.1,275.4 895.3,274.9 896.5,274.9 897.7,276.3 898.9,275.8 900.1,275.2 901.2,275.5 902.4,274.1 903.6,273.6 904.8,272.5 906.0,272.5 907.2,272.6 908.4,271.2 909.5,271.2 910.7,271.2 911.9,265.0 913.1,265.1 914.3,264.2 915.5,264.2 916.6,264.2 917.8,262.5 919.0,262.1 920.2,261.3 921.4,256.3 922.6,256.3 923.7,256.3 924.9,256.4 926.1,255.4 927.3,255.4 928.5,255.4 929.7,255.0 930.8,255.0 932.0,255.1 933.2,254.6 934.4,251.6 935.6,246.9 936.8,246.6 938.0,245.6 939.1,245.6 940.3,241.0 941.5,241.1 942.7,246.0 943.9,237.6 945.1,237.1 946.2,237.1 947.4,233.4 948.6,232.8 949.8,232.0 951.0,232.0 952.2,231.6 953.3,231.7 954.5,231.0 955.7,231.0 956.9,229.1 958.1,229.1 959.3,226.0 960.4,224.9 961.6,223.2 962.8,222.7 964.0,218.6 965.2,213.7 966.4,208.9 967.5,205.1 968.7,205.1 969.9,205.0 971.1,204.7 972.3,203.7 973.5,203.7 974.7,203.7 975.8,203.9 977.0,202.4 978.2,200.6 979.4,206.8 980.6,206.8 981.8,206.8 982.9,206.3 984.1,206.9 985.3,206.3 986.5,206.4 987.7,204.9 988.9,200.9 990.0,200.4 991.2,207.6 992.4,208.1 993.6,206.3 994.8,205.8 996.0,205.8 997.1,205.4 998.3,203.9 999.5,201.1 1000.7,193.2 1001.9,192.7 1003.1,192.7 1004.3,188.8 1005.4,188.8 1006.6,185.6 1007.8,185.0 1009.0,184.7 1010.2,183.8 1011.4,183.8 1012.5,178.6 1013.7,178.6 1014.9,176.0 1016.1,174.7 1017.3,174.7 1018.5,174.7 1019.6,168.9 1020.8,168.9 1022.0,168.9 1023.2,162.7 1024.4,164.2 1025.6,164.2 1026.7,162.0 1027.9,161.5 1029.1,155.8 1030.3,160.5 1031.5,162.0 1032.7,160.7 1033.8,160.7 1035.0,157.3 1036.2,151.8 1037.4,151.3 1038.6,150.3 1039.8,150.3 1041.0,150.3 1042.1,142.8 1043.3,142.4 1044.5,141.3 1045.7,141.3 1046.9,141.5 1048.1,140.7 1049.2,140.7 1050.4,140.0 1051.6,140.0 1052.8,140.0 1054.0,139.4 1055.2,139.4 1056.3,139.4 1057.5,139.4 1058.7,139.4 1059.9,139.5 1061.1,138.1 1062.3,138.1 1063.4,138.1 1064.6,138.1 1065.8,138.2 1067.0,132.7 1068.2,132.7 1069.4,132.9 1070.6,132.2 1071.7,132.4 1072.9,131.3 1074.1,132.3 1075.3,131.6 1076.5,131.6 1077.7,131.9 1078.8,130.8 1080.0,130.8 1081.2,130.8 1082.4,130.8 1083.6,122.8 1084.8,122.9 1085.9,122.7 1087.1,122.7 1088.3,122.2 1089.5,122.5 1090.7,122.8 1091.9,122.2 1093.0,122.0 1094.2,121.8 1095.4,121.7 1096.6,125.7 1097.8,125.4 1099.0,124.5 1100.1,124.3 1101.3,124.2 1102.5,120.3 1103.7,120.1 1104.9,119.4 1106.1,116.7 1107.3,107.1 1108.4,107.8 1109.6,105.7 1110.8,103.3 1112.0,101.3 1113.2,101.1 1114.4,103.5 1115.5,100.7 1116.7,96.5 1117.9,100.9 1119.1,111.6 1120.3,86.8 1121.5,96.9 1122.6,94.9 1123.8,92.3 1125.0,92.1 1126.2,90.7 1127.4,89.0 1128.6,83.4 1129.7,79.4 1130.9,78.4 1132.1,77.4 1133.3,79.1 1134.5,77.9 1135.7,80.8 1136.9,81.6 1138.0,82.9 1139.2,86.2 1140.4,82.5 1141.6,79.9 1142.8,82.1 1144.0,82.6 1145.1,83.9 1146.3,86.6 1147.5,102.8 1148.7,92.9 1149.9,89.0 1151.1,88.0 1152.2,87.5 1153.4,81.7 1154.6,81.7 1155.8,81.5 1157.0,81.5 1158.2,77.5 1159.3,77.5 1160.5,77.5 1161.7,77.5 1162.9,77.5 1164.1,77.5 1165.3,77.5 1166.4,79.6 1167.6,79.5 1168.8,78.4 1170.0,80.3"/><polyline fill="none" stroke="#8b5a3c" stroke-width="2.5" points="95.0,395.7 96.2,395.5 97.4,395.4 98.6,395.4 99.7,395.4 100.9,394.7 102.1,394.6 103.3,394.3 104.5,394.2 105.7,394.6 106.8,394.1 108.0,394.1 109.2,394.0 110.4,394.2 111.6,393.8 112.8,393.3 113.9,393.3 115.1,393.4 116.3,393.6 117.5,393.2 118.7,393.6 119.9,394.0 121.0,393.9 122.2,393.4 123.4,393.2 124.6,393.0 125.8,393.6 127.0,393.6 128.1,395.1 129.3,395.4 130.5,396.0 131.7,397.1 132.9,396.6 134.1,396.8 135.3,397.4 136.4,396.5 137.6,393.1 138.8,392.9 140.0,391.4 141.2,391.4 142.4,391.4 143.5,391.6 144.7,391.7 145.9,391.3 147.1,391.4 148.3,390.9 149.5,389.8 150.6,389.5 151.8,389.2 153.0,389.2 154.2,389.2 155.4,389.0 156.6,388.9 157.7,388.9 158.9,388.5 160.1,388.4 161.3,388.2 162.5,388.2 163.7,387.9 164.9,387.9 166.0,387.9 167.2,387.9 168.4,387.9 169.6,389.0 170.8,389.0 172.0,389.0 173.1,389.0 174.3,389.0 175.5,389.0 176.7,389.2 177.9,389.2 179.1,389.1 180.2,389.5 181.4,390.6 182.6,390.9 183.8,390.3 185.0,390.2 186.2,390.5 187.3,390.6 188.5,390.1 189.7,389.3 190.9,389.2 192.1,389.4 193.3,389.2 194.4,389.5 195.6,389.8 196.8,389.7 198.0,389.8 199.2,389.6 200.4,389.6 201.6,389.6 202.7,389.6 203.9,389.7 205.1,390.1 206.3,389.4 207.5,389.1 208.7,389.1 209.8,388.6 211.0,388.5 212.2,388.4 213.4,388.4 214.6,388.0 215.8,388.0 216.9,388.3 218.1,388.2 219.3,388.1 220.5,388.1 221.7,388.1 222.9,388.1 224.0,388.1 225.2,387.9 226.4,387.9 227.6,387.7 228.8,388.4 230.0,388.5 231.2,388.0 232.3,388.0 233.5,387.8 234.7,387.5 235.9,387.5 237.1,387.5 238.3,387.7 239.4,387.7 240.6,387.6 241.8,387.4 243.0,387.1 244.2,386.9 245.4,386.9 246.5,387.0 247.7,388.0 248.9,388.0 250.1,388.1 251.3,388.1 252.5,387.9 253.6,387.8 254.8,387.7 256.0,387.6 257.2,387.6 258.4,387.4 259.6,387.4 260.7,387.5 261.9,387.5 263.1,387.7 264.3,387.3 265.5,387.2 266.7,387.0 267.9,387.0 269.0,388.3 270.2,388.0 271.4,388.1 272.6,388.6 273.8,389.2 275.0,389.2 276.1,389.3 277.3,389.2 278.5,388.0 279.7,389.5 280.9,387.3 282.1,386.4 283.2,385.9 284.4,385.9 285.6,385.7 286.8,386.1 288.0,385.8 289.2,386.0 290.3,385.7 291.5,385.6 292.7,385.3 293.9,385.5 295.1,385.4 296.3,385.0 297.5,385.2 298.6,385.4 299.8,385.2 301.0,385.9 302.2,387.5 303.4,387.8 304.6,387.4 305.7,388.1 306.9,388.2 308.1,388.8 309.3,389.7 310.5,389.5 311.7,389.8 312.8,389.7 314.0,390.6 315.2,388.9 316.4,388.5 317.6,388.1 318.8,387.6 319.9,388.4 321.1,389.3 322.3,389.9 323.5,389.9 324.7,390.2 325.9,390.7 327.0,390.2 328.2,390.3 329.4,389.9 330.6,391.9 331.8,392.9 333.0,393.3 334.2,392.3 335.3,391.6 336.5,390.7 337.7,389.7 338.9,389.7 340.1,389.7 341.3,389.7 342.4,389.7 343.6,390.0 344.8,389.8 346.0,389.8 347.2,389.6 348.4,389.6 349.5,389.6 350.7,389.5 351.9,389.4 353.1,389.1 354.3,389.1 355.5,389.1 356.6,389.1 357.8,389.1 359.0,389.2 360.2,388.8 361.4,388.6 362.6,388.8 363.8,388.7 364.9,388.9 366.1,388.6 367.3,388.3 368.5,388.3 369.7,388.3 370.9,388.3 372.0,388.3 373.2,388.3 374.4,388.3 375.6,388.3 376.8,388.3 378.0,387.4 379.1,387.4 380.3,387.4 381.5,387.4 382.7,387.4 383.9,387.2 385.1,387.2 386.2,387.0 387.4,387.2 388.6,387.1 389.8,386.5 391.0,386.5 392.2,386.4 393.3,386.4 394.5,387.7 395.7,388.4 396.9,388.5 398.1,388.2 399.3,387.8 400.5,387.8 401.6,387.8 402.8,387.8 404.0,387.2 405.2,387.2 406.4,387.2 407.6,387.2 408.7,386.3 409.9,386.0 411.1,385.8 412.3,385.8 413.5,385.8 414.7,385.8 415.8,385.8 417.0,385.8 418.2,385.8 419.4,385.9 420.6,385.7 421.8,385.6 422.9,385.6 424.1,385.7 425.3,385.7 426.5,385.2 427.7,385.2 428.9,385.2 430.0,385.1 431.2,385.2 432.4,384.7 433.6,384.4 434.8,384.3 436.0,384.3 437.2,384.3 438.3,384.3 439.5,384.3 440.7,384.0 441.9,383.8 443.1,383.8 444.3,382.7 445.4,383.6 446.6,383.3 447.8,383.0 449.0,383.0 450.2,383.0 451.4,383.0 452.5,383.0 453.7,383.1 454.9,382.8 456.1,382.7 457.3,382.7 458.5,382.8 459.6,382.8 460.8,383.6 462.0,383.0 463.2,382.8 464.4,382.1 465.6,382.7 466.8,381.9 467.9,382.9 469.1,382.3 470.3,381.8 471.5,384.1 472.7,384.6 473.9,385.5 475.0,385.0 476.2,383.4 477.4,383.5 478.6,384.2 479.8,383.0 481.0,382.8 482.1,383.0 483.3,382.9 484.5,387.2 485.7,385.8 486.9,385.8 488.1,385.8 489.2,385.8 490.4,385.7 491.6,385.7 492.8,385.7 494.0,385.5 495.2,385.2 496.3,385.2 497.5,385.3 498.7,385.3 499.9,385.2 501.1,385.3 502.3,386.5 503.5,386.0 504.6,386.0 505.8,386.5 507.0,387.1 508.2,385.5 509.4,385.5 510.6,385.4 511.7,384.8 512.9,384.8 514.1,384.7 515.3,384.7 516.5,384.6 517.7,384.4 518.8,383.6 520.0,383.6 521.2,383.5 522.4,383.4 523.6,382.9 524.8,383.0 525.9,383.1 527.1,383.0 528.3,382.4 529.5,382.0 530.7,381.8 531.9,384.2 533.1,384.2 534.2,384.2 535.4,384.2 536.6,384.2 537.8,384.2 539.0,384.2 540.2,383.2 541.3,383.2 542.5,383.2 543.7,383.2 544.9,382.6 546.1,382.3 547.3,382.3 548.4,382.3 549.6,382.3 550.8,382.3 552.0,382.3 553.2,382.3 554.4,382.3 555.5,380.1 556.7,379.8 557.9,377.8 559.1,375.9 560.3,376.2 561.5,375.4 562.6,375.4 563.8,375.4 565.0,375.4 566.2,375.4 567.4,375.4 568.6,375.4 569.8,375.4 570.9,375.4 572.1,375.4 573.3,374.7 574.5,374.7 575.7,373.4 576.9,373.4 578.0,372.6 579.2,373.7 580.4,374.3 581.6,374.3 582.8,374.0 584.0,372.6 585.1,372.6 586.3,372.6 587.5,371.5 588.7,371.5 589.9,373.6 591.1,373.6 592.2,373.6 593.4,373.6 594.6,373.6 595.8,373.0 597.0,373.0 598.2,373.0 599.4,372.4 600.5,371.9 601.7,371.9 602.9,371.9 604.1,371.9 605.3,371.9 606.5,371.6 607.6,368.5 608.8,368.5 610.0,368.5 611.2,368.5 612.4,368.5 613.6,368.5 614.7,368.5 615.9,368.5 617.1,368.5 618.3,368.5 619.5,366.7 620.7,366.7 621.8,366.7 623.0,366.7 624.2,366.7 625.4,366.7 626.6,364.9 627.8,364.9 628.9,364.9 630.1,364.9 631.3,366.3 632.5,366.3 633.7,366.0 634.9,366.0 636.1,366.0 637.2,366.0 638.4,366.0 639.6,366.0 640.8,366.0 642.0,366.0 643.2,366.1 644.3,365.5 645.5,365.5 646.7,366.7 647.9,366.0 649.1,366.0 650.3,366.0 651.4,366.0 652.6,366.0 653.8,366.0 655.0,366.0 656.2,365.5 657.4,365.2 658.5,365.2 659.7,365.2 660.9,365.2 662.1,365.2 663.3,365.2 664.5,364.5 665.6,364.6 666.8,364.0 668.0,364.0 669.2,364.0 670.4,364.0 671.6,364.0 672.8,364.0 673.9,364.0 675.1,364.0 676.3,363.5 677.5,363.5 678.7,363.5 679.9,362.6 681.0,362.6 682.2,362.3 683.4,361.3 684.6,361.3 685.8,361.3 687.0,361.3 688.1,361.8 689.3,360.5 690.5,360.4 691.7,362.6 692.9,362.6 694.1,362.6 695.2,362.6 696.4,362.6 697.6,362.6 698.8,362.6 700.0,362.1 701.2,362.2 702.4,361.6 703.5,361.6 704.7,361.6 705.9,361.3 707.1,361.4 708.3,360.8 709.5,360.8 710.6,360.8 711.8,360.8 713.0,360.9 714.2,360.3 715.4,360.3 716.6,359.8 717.7,359.8 718.9,359.8 720.1,359.8 721.3,359.8 722.5,357.4 723.7,357.4 724.8,355.8 726.0,353.2 727.2,347.6 728.4,347.3 729.6,347.3 730.8,342.7 731.9,342.1 733.1,342.1 734.3,342.1 735.5,342.1 736.7,342.1 737.9,346.0 739.1,343.5 740.2,343.5 741.4,343.5 742.6,343.5 743.8,343.5 745.0,343.5 746.2,344.6 747.3,344.0 748.5,344.0 749.7,342.6 750.9,342.6 752.1,341.2 753.3,340.8 754.4,340.3 755.6,348.9 756.8,346.4 758.0,346.5 759.2,349.2 760.4,348.2 761.5,346.4 762.7,346.4 763.9,346.4 765.1,346.4 766.3,346.4 767.5,346.4 768.7,346.4 769.8,346.4 771.0,346.4 772.2,346.4 773.4,346.4 774.6,346.4 775.8,346.4 776.9,346.4 778.1,346.8 779.3,346.3 780.5,346.3 781.7,346.4 782.9,345.9 784.0,345.1 785.2,345.1 786.4,345.1 787.6,345.1 788.8,345.1 790.0,345.1 791.1,345.1 792.3,344.6 793.5,344.6 794.7,344.1 795.9,344.4 797.1,343.5 798.2,342.9 799.4,342.3 800.6,342.3 801.8,342.3 803.0,342.1 804.2,341.5 805.4,341.5 806.5,341.5 807.7,341.5 808.9,341.5 810.1,341.5 811.3,341.5 812.5,341.5 813.6,341.5 814.8,341.0 816.0,338.2 817.2,338.4 818.4,337.7 819.6,339.1 820.7,338.5 821.9,338.5 823.1,338.5 824.3,338.5 825.5,338.5 826.7,338.2 827.8,337.2 829.0,337.2 830.2,337.2 831.4,337.2 832.6,337.2 833.8,336.6 835.0,336.6 836.1,337.0 837.3,336.4 838.5,335.9 839.7,334.5 840.9,333.9 842.1,333.1 843.2,333.1 844.4,336.6 845.6,336.6 846.8,336.6 848.0,336.6 849.2,336.6 850.3,336.6 851.5,335.6 852.7,335.3 853.9,333.2 855.1,332.6 856.3,332.6 857.4,332.6 858.6,331.0 859.8,331.0 861.0,331.0 862.2,331.0 863.4,331.0 864.5,331.0 865.7,330.0 866.9,330.0 868.1,330.2 869.3,329.5 870.5,328.1 871.7,328.1 872.8,327.5 874.0,327.5 875.2,327.0 876.4,327.0 877.6,324.1 878.8,324.1 879.9,323.6 881.1,323.6 882.3,320.9 883.5,320.9 884.7,322.2 885.9,322.2 887.0,322.2 888.2,322.3 889.4,321.7 890.6,321.7 891.8,324.4 893.0,323.9 894.1,323.9 895.3,323.4 896.5,323.4 897.7,324.8 898.9,324.3 900.1,323.7 901.2,323.7 902.4,323.3 903.6,322.8 904.8,321.7 906.0,321.7 907.2,321.8 908.4,321.2 909.5,321.2 910.7,321.2 911.9,315.1 913.1,315.1 914.3,315.1 915.5,315.1 916.6,315.1 917.8,313.5 919.0,313.0 920.2,313.1 921.4,308.1 922.6,308.1 923.7,308.1 924.9,308.1 926.1,308.1 927.3,308.1 928.5,308.1 929.7,307.7 930.8,307.7 932.0,307.8 933.2,307.2 934.4,304.2 935.6,299.6 936.8,299.2 938.0,299.2 939.1,299.2 940.3,294.5 941.5,294.6 942.7,299.1 943.9,292.1 945.1,291.5 946.2,291.5 947.4,287.8 948.6,287.3 949.8,287.3 951.0,287.3 952.2,286.9 953.3,287.0 954.5,286.4 955.7,286.4 956.9,284.4 958.1,284.4 959.3,281.1 960.4,281.1 961.6,279.4 962.8,278.9 964.0,274.8 965.2,269.7 966.4,266.0 967.5,262.2 968.7,262.2 969.9,262.2 971.1,261.7 972.3,261.7 973.5,261.7 974.7,261.7 975.8,261.7 977.0,261.2 978.2,259.4 979.4,265.6 980.6,265.6 981.8,265.6 982.9,265.1 984.1,265.7 985.3,265.1 986.5,265.1 987.7,264.6 988.9,260.5 990.0,260.0 991.2,267.2 992.4,267.5 993.6,266.7 994.8,266.2 996.0,266.3 997.1,265.7 998.3,265.2 999.5,262.4 1000.7,254.5 1001.9,254.0 1003.1,254.0 1004.3,250.1 1005.4,250.1 1006.6,246.9 1007.8,246.3 1009.0,245.8 1010.2,245.8 1011.4,245.8 1012.5,240.6 1013.7,240.6 1014.9,238.0 1016.1,237.5 1017.3,237.5 1018.5,237.5 1019.6,231.7 1020.8,231.7 1022.0,231.7 1023.2,225.5 1024.4,227.1 1025.6,227.1 1026.7,224.8 1027.9,224.3 1029.1,218.6 1030.3,223.3 1031.5,224.8 1032.7,224.3 1033.8,224.3 1035.0,220.9 1036.2,215.5 1037.4,214.7 1038.6,214.7 1039.8,214.7 1041.0,214.8 1042.1,207.2 1043.3,206.4 1044.5,206.4 1045.7,206.4 1046.9,206.7 1048.1,205.8 1049.2,205.8 1050.4,205.1 1051.6,205.1 1052.8,205.2 1054.0,204.5 1055.2,204.5 1056.3,204.5 1057.5,204.5 1058.7,204.5 1059.9,204.5 1061.1,204.0 1062.3,204.0 1063.4,204.0 1064.6,204.0 1065.8,204.0 1067.0,199.5 1068.2,199.5 1069.4,199.7 1070.6,199.0 1071.7,199.0 1072.9,199.0 1074.1,200.0 1075.3,199.3 1076.5,199.3 1077.7,199.3 1078.8,199.3 1080.0,199.3 1081.2,199.3 1082.4,199.3 1083.6,191.1 1084.8,191.1 1085.9,191.1 1087.1,191.1 1088.3,190.5 1089.5,190.5 1090.7,190.7 1091.9,190.4 1093.0,190.3 1094.2,190.3 1095.4,190.2 1096.6,194.2 1097.8,194.2 1099.0,193.4 1100.1,193.4 1101.3,193.3 1102.5,189.3 1103.7,189.1 1104.9,184.2 1106.1,184.0 1107.3,170.9 1108.4,172.4 1109.6,170.9 1110.8,170.5 1112.0,169.3 1113.2,169.4 1114.4,169.8 1115.5,169.4 1116.7,165.2 1117.9,166.3 1119.1,166.8 1120.3,153.0 1121.5,158.1 1122.6,160.9 1123.8,159.5 1125.0,159.4 1126.2,156.8 1127.4,156.6 1128.6,149.1 1129.7,146.1 1130.9,146.0 1132.1,145.9 1133.3,146.0 1134.5,146.0 1135.7,148.3 1136.9,148.3 1138.0,148.3 1139.2,148.3 1140.4,148.3 1141.6,145.3 1142.8,145.3 1144.0,145.3 1145.1,145.3 1146.3,145.3 1147.5,156.8 1148.7,153.1 1149.9,152.1 1151.1,152.1 1152.2,152.1 1153.4,146.2 1154.6,146.2 1155.8,146.2 1157.0,146.2 1158.2,142.1 1159.3,142.1 1160.5,142.1 1161.7,142.1 1162.9,142.1 1164.1,142.1 1165.3,142.1 1166.4,144.3 1167.6,144.2 1168.8,143.0 1170.0,144.9"/><polyline fill="none" stroke="#234a76" stroke-width="2.5" points="95.0,395.7 96.2,395.7 97.4,395.7 98.6,395.7 99.7,395.7 100.9,395.1 102.1,394.9 103.3,394.9 104.5,394.9 105.7,395.3 106.8,395.0 108.0,395.0 109.2,395.0 110.4,395.0 111.6,394.9 112.8,394.9 113.9,394.9 115.1,394.9 116.3,394.9 117.5,394.9 118.7,394.9 119.9,394.9 121.0,394.9 122.2,394.9 123.4,394.9 124.6,394.9 125.8,394.9 127.0,394.8 128.1,395.0 129.3,395.2 130.5,396.2 131.7,395.9 132.9,395.9 134.1,395.5 135.3,395.1 136.4,395.1 137.6,395.1 138.8,395.1 140.0,393.7 141.2,393.7 142.4,393.7 143.5,393.6 144.7,393.6 145.9,393.6 147.1,393.6 148.3,393.6 149.5,392.2 150.6,392.2 151.8,392.2 153.0,392.2 154.2,392.2 155.4,392.1 156.6,392.1 157.7,392.1 158.9,392.1 160.1,392.1 161.3,391.9 162.5,391.9 163.7,391.6 164.9,391.6 166.0,391.6 167.2,391.6 168.4,391.6 169.6,392.7 170.8,392.7 172.0,392.7 173.1,392.7 174.3,392.7 175.5,392.7 176.7,392.7 177.9,392.7 179.1,392.7 180.2,392.5 181.4,393.4 182.6,394.6 183.8,394.4 185.0,394.4 186.2,394.4 187.3,394.4 188.5,393.8 189.7,393.8 190.9,393.8 192.1,393.9 193.3,393.9 194.4,394.1 195.6,394.4 196.8,394.4 198.0,394.4 199.2,394.4 200.4,394.4 201.6,394.4 202.7,394.4 203.9,394.4 205.1,394.2 206.3,394.2 207.5,394.2 208.7,394.2 209.8,393.8 211.0,394.1 212.2,394.1 213.4,394.1 214.6,393.8 215.8,393.8 216.9,394.1 218.1,394.1 219.3,394.1 220.5,394.1 221.7,394.1 222.9,394.1 224.0,394.1 225.2,393.9 226.4,393.9 227.6,393.9 228.8,394.2 230.0,394.2 231.2,394.2 232.3,394.2 233.5,394.2 234.7,394.0 235.9,394.0 237.1,394.0 238.3,394.0 239.4,394.0 240.6,394.0 241.8,394.0 243.0,394.0 244.2,394.0 245.4,394.0 246.5,394.0 247.7,395.1 248.9,395.1 250.1,395.1 251.3,395.1 252.5,395.1 253.6,395.1 254.8,395.1 256.0,395.1 257.2,395.1 258.4,394.9 259.6,394.9 260.7,394.9 261.9,394.9 263.1,394.9 264.3,394.9 265.5,394.7 266.7,394.4 267.9,394.4 269.0,395.8 270.2,395.8 271.4,395.4 272.6,395.4 273.8,395.4 275.0,395.4 276.1,395.8 277.3,395.5 278.5,395.5 279.7,395.5 280.9,394.5 282.1,394.5 283.2,394.5 284.4,394.5 285.6,394.3 286.8,394.6 288.0,394.4 289.2,394.4 290.3,394.2 291.5,394.2 292.7,394.2 293.9,394.2 295.1,394.2 296.3,394.2 297.5,394.0 298.6,394.1 299.8,393.9 301.0,393.9 302.2,393.9 303.4,393.9 304.6,393.9 305.7,393.0 306.9,393.0 308.1,393.9 309.3,393.8 310.5,393.8 311.7,393.2 312.8,393.2 314.0,393.2 315.2,393.2 316.4,393.2 317.6,393.2 318.8,393.2 319.9,393.2 321.1,392.6 322.3,393.1 323.5,393.1 324.7,393.1 325.9,393.3 327.0,392.3 328.2,392.3 329.4,392.3 330.6,393.5 331.8,393.5 333.0,393.5 334.2,393.5 335.3,393.3 336.5,393.3 337.7,393.3 338.9,393.3 340.1,393.3 341.3,393.3 342.4,393.3 343.6,393.6 344.8,393.6 346.0,393.6 347.2,393.6 348.4,393.6 349.5,393.6 350.7,393.6 351.9,393.6 353.1,393.4 354.3,393.4 355.5,393.4 356.6,393.4 357.8,393.4 359.0,393.4 360.2,393.2 361.4,393.2 362.6,393.2 363.8,393.2 364.9,393.2 366.1,393.2 367.3,393.2 368.5,393.2 369.7,393.2 370.9,393.2 372.0,393.2 373.2,393.2 374.4,393.2 375.6,393.2 376.8,393.2 378.0,392.4 379.1,392.4 380.3,392.4 381.5,392.4 382.7,392.4 383.9,392.2 385.1,392.2 386.2,392.0 387.4,392.0 388.6,392.0 389.8,392.0 391.0,392.0 392.2,392.0 393.3,392.0 394.5,393.1 395.7,393.5 396.9,393.5 398.1,393.5 399.3,393.5 400.5,393.5 401.6,393.5 402.8,393.5 404.0,393.0 405.2,393.0 406.4,393.0 407.6,393.0 408.7,392.1 409.9,392.1 411.1,392.1 412.3,392.1 413.5,392.1 414.7,392.1 415.8,392.1 417.0,392.1 418.2,392.1 419.4,392.1 420.6,392.1 421.8,392.1 422.9,392.1 424.1,392.1 425.3,392.1 426.5,392.1 427.7,392.1 428.9,392.1 430.0,392.0 431.2,392.0 432.4,391.8 433.6,391.8 434.8,391.8 436.0,391.8 437.2,391.8 438.3,391.8 439.5,391.8 440.7,391.6 441.9,391.6 443.1,391.6 444.3,390.4 445.4,391.0 446.6,391.0 447.8,391.0 449.0,391.0 450.2,391.0 451.4,391.0 452.5,391.0 453.7,391.0 454.9,391.0 456.1,390.8 457.3,390.8 458.5,390.8 459.6,390.8 460.8,390.8 462.0,390.8 463.2,390.8 464.4,390.2 465.6,390.2 466.8,390.0 467.9,390.0 469.1,388.6 470.3,387.9 471.5,389.5 472.7,389.5 473.9,389.5 475.0,389.5 476.2,389.5 477.4,389.5 478.6,389.5 479.8,389.5 481.0,389.5 482.1,388.7 483.3,388.1 484.5,392.9 485.7,392.9 486.9,392.9 488.1,392.9 489.2,392.9 490.4,392.9 491.6,392.9 492.8,392.9 494.0,392.9 495.2,392.9 496.3,392.9 497.5,393.0 498.7,393.0 499.9,393.0 501.1,393.0 502.3,393.5 503.5,393.5 504.6,393.5 505.8,393.5 507.0,393.5 508.2,392.7 509.4,392.7 510.6,392.7 511.7,392.7 512.9,392.7 514.1,392.7 515.3,392.7 516.5,392.7 517.7,392.7 518.8,392.0 520.0,392.0 521.2,392.0 522.4,392.0 523.6,391.6 524.8,391.6 525.9,391.6 527.1,391.6 528.3,391.6 529.5,391.4 530.7,391.2 531.9,393.2 533.1,393.2 534.2,393.2 535.4,393.2 536.6,393.2 537.8,393.2 539.0,393.2 540.2,392.2 541.3,392.2 542.5,392.2 543.7,392.2 544.9,392.2 546.1,391.9 547.3,391.9 548.4,391.9 549.6,391.9 550.8,391.9 552.0,391.9 553.2,391.9 554.4,391.9 555.5,390.0 556.7,389.8 557.9,388.3 559.1,386.6 560.3,386.6 561.5,386.6 562.6,386.6 563.8,386.6 565.0,386.6 566.2,386.6 567.4,386.6 568.6,386.6 569.8,386.6 570.9,386.6 572.1,386.6 573.3,385.9 574.5,385.9 575.7,385.1 576.9,385.1 578.0,384.3 579.2,385.4 580.4,386.0 581.6,386.0 582.8,385.8 584.0,384.7 585.1,384.7 586.3,384.7 587.5,383.9 588.7,383.9 589.9,385.4 591.1,385.4 592.2,385.4 593.4,385.4 594.6,385.4 595.8,385.4 597.0,385.4 598.2,385.4 599.4,384.9 600.5,384.9 601.7,384.9 602.9,384.9 604.1,384.9 605.3,384.9 606.5,384.7 607.6,382.2 608.8,382.2 610.0,382.2 611.2,382.2 612.4,382.2 613.6,382.2 614.7,382.2 615.9,382.2 617.1,382.2 618.3,382.2 619.5,380.7 620.7,380.7 621.8,380.7 623.0,380.7 624.2,380.7 625.4,380.7 626.6,379.1 627.8,379.1 628.9,379.1 630.1,379.1 631.3,380.2 632.5,380.2 633.7,379.9 634.9,379.9 636.1,379.9 637.2,379.9 638.4,379.9 639.6,379.9 640.8,379.9 642.0,379.9 643.2,379.9 644.3,379.9 645.5,379.9 646.7,380.8 647.9,380.8 649.1,380.8 650.3,380.8 651.4,380.8 652.6,380.8 653.8,380.8 655.0,380.8 656.2,380.3 657.4,380.1 658.5,380.1 659.7,380.1 660.9,380.1 662.1,380.1 663.3,380.1 664.5,379.4 665.6,379.4 666.8,379.4 668.0,379.4 669.2,379.4 670.4,379.4 671.6,379.4 672.8,379.4 673.9,379.4 675.1,379.4 676.3,379.4 677.5,379.4 678.7,379.4 679.9,378.7 681.0,378.7 682.2,378.5 683.4,377.7 684.6,377.7 685.8,377.7 687.0,377.7 688.1,378.2 689.3,377.6 690.5,377.6 691.7,379.8 692.9,379.8 694.1,379.8 695.2,379.8 696.4,379.8 697.6,379.8 698.8,379.8 700.0,379.8 701.2,379.8 702.4,379.8 703.5,379.8 704.7,379.8 705.9,379.6 707.1,379.6 708.3,379.6 709.5,379.6 710.6,379.6 711.8,379.6 713.0,379.6 714.2,379.6 715.4,379.6 716.6,379.6 717.7,379.6 718.9,379.6 720.1,379.6 721.3,379.6 722.5,377.7 723.7,377.7 724.8,376.4 726.0,374.2 727.2,369.6 728.4,369.3 729.6,369.3 730.8,365.5 731.9,365.5 733.1,365.5 734.3,365.5 735.5,365.5 736.7,365.5 737.9,368.7 739.1,366.7 740.2,366.7 741.4,366.7 742.6,366.7 743.8,366.7 745.0,366.7 746.2,367.9 747.3,367.9 748.5,367.9 749.7,366.8 750.9,366.8 752.1,365.7 753.3,365.4 754.4,365.4 755.6,371.9 756.8,369.7 758.0,369.7 759.2,372.0 760.4,372.0 761.5,370.7 762.7,370.7 763.9,370.7 765.1,370.7 766.3,370.7 767.5,370.7 768.7,370.7 769.8,370.7 771.0,370.7 772.2,370.7 773.4,370.7 774.6,370.7 775.8,370.7 776.9,370.7 778.1,371.2 779.3,371.2 780.5,371.2 781.7,371.2 782.9,371.2 784.0,371.2 785.2,371.2 786.4,371.2 787.6,371.2 788.8,371.2 790.0,371.2 791.1,371.2 792.3,371.2 793.5,371.2 794.7,371.2 795.9,371.2 797.1,371.2 798.2,371.2 799.4,371.2 800.6,371.2 801.8,371.2 803.0,370.9 804.2,370.9 805.4,370.9 806.5,370.9 807.7,370.9 808.9,370.9 810.1,370.9 811.3,370.9 812.5,370.9 813.6,370.9 814.8,370.9 816.0,368.9 817.2,368.9 818.4,368.9 819.6,369.7 820.7,369.7 821.9,369.7 823.1,369.7 824.3,369.7 825.5,369.7 826.7,369.5 827.8,368.8 829.0,368.8 830.2,368.8 831.4,368.8 832.6,368.8 833.8,368.8 835.0,368.8 836.1,369.4 837.3,369.4 838.5,369.4 839.7,368.4 840.9,368.4 842.1,367.9 843.2,367.9 844.4,370.4 845.6,370.4 846.8,370.4 848.0,370.4 849.2,370.4 850.3,370.4 851.5,369.9 852.7,369.6 853.9,368.0 855.1,368.0 856.3,368.0 857.4,368.0 858.6,366.7 859.8,366.7 861.0,366.7 862.2,366.7 863.4,366.7 864.5,366.7 865.7,366.0 866.9,366.0 868.1,366.0 869.3,365.4 870.5,365.4 871.7,365.4 872.8,365.4 874.0,365.4 875.2,365.4 876.4,365.4 877.6,363.3 878.8,363.3 879.9,363.3 881.1,363.3 882.3,361.5 883.5,361.5 884.7,362.5 885.9,362.5 887.0,362.5 888.2,362.5 889.4,362.5 890.6,362.5 891.8,364.3 893.0,364.3 894.1,364.3 895.3,364.3 896.5,364.3 897.7,365.2 898.9,365.2 900.1,365.2 901.2,365.2 902.4,364.9 903.6,364.9 904.8,364.6 906.0,364.6 907.2,364.6 908.4,364.6 909.5,364.6 910.7,364.6 911.9,360.1 913.1,360.1 914.3,360.1 915.5,360.1 916.6,360.1 917.8,358.9 919.0,358.9 920.2,358.9 921.4,355.9 922.6,355.9 923.7,355.9 924.9,355.9 926.1,355.9 927.3,355.9 928.5,355.9 929.7,355.6 930.8,355.6 932.0,355.6 933.2,355.6 934.4,353.8 935.6,350.7 936.8,350.7 938.0,350.7 939.1,350.7 940.3,347.6 941.5,347.6 942.7,350.8 943.9,346.2 945.1,346.2 946.2,346.2 947.4,343.8 948.6,343.8 949.8,343.8 951.0,343.8 952.2,343.5 953.3,343.5 954.5,343.5 955.7,343.5 956.9,342.1 958.1,342.1 959.3,339.9 960.4,339.9 961.6,338.8 962.8,338.8 964.0,336.6 965.2,333.2 966.4,330.7 967.5,328.3 968.7,328.3 969.9,328.3 971.1,328.3 972.3,328.3 973.5,328.3 974.7,328.3 975.8,328.3 977.0,328.3 978.2,327.0 979.4,331.5 980.6,331.5 981.8,331.5 982.9,331.5 984.1,331.8 985.3,331.8 986.5,331.8 987.7,331.8 988.9,329.1 990.0,329.1 991.2,333.8 992.4,333.8 993.6,333.8 994.8,333.8 996.0,333.8 997.1,333.8 998.3,333.8 999.5,331.9 1000.7,326.8 1001.9,326.4 1003.1,326.4 1004.3,323.9 1005.4,323.9 1006.6,321.8 1007.8,321.8 1009.0,321.8 1010.2,321.8 1011.4,321.8 1012.5,318.5 1013.7,318.5 1014.9,316.8 1016.1,316.8 1017.3,316.8 1018.5,316.8 1019.6,313.1 1020.8,313.1 1022.0,313.1 1023.2,309.1 1024.4,310.1 1025.6,310.1 1026.7,309.4 1027.9,309.4 1029.1,305.8 1030.3,308.6 1031.5,310.0 1032.7,310.0 1033.8,310.0 1035.0,307.8 1036.2,304.8 1037.4,304.8 1038.6,304.8 1039.8,304.8 1041.0,304.8 1042.1,300.5 1043.3,300.5 1044.5,300.5 1045.7,300.5 1046.9,300.5 1048.1,300.5 1049.2,300.5 1050.4,300.1 1051.6,300.1 1052.8,300.1 1054.0,300.1 1055.2,300.1 1056.3,300.1 1057.5,300.1 1058.7,300.1 1059.9,300.1 1061.1,300.1 1062.3,300.1 1063.4,300.1 1064.6,300.1 1065.8,300.1 1067.0,297.2 1068.2,297.2 1069.4,297.2 1070.6,297.2 1071.7,297.2 1072.9,297.2 1074.1,297.8 1075.3,297.4 1076.5,297.4 1077.7,297.4 1078.8,297.4 1080.0,297.4 1081.2,297.4 1082.4,297.4 1083.6,291.7 1084.8,291.7 1085.9,291.7 1087.1,291.7 1088.3,291.2 1089.5,291.2 1090.7,291.2 1091.9,291.2 1093.0,291.2 1094.2,291.2 1095.4,291.2 1096.6,293.8 1097.8,293.8 1099.0,293.4 1100.1,293.4 1101.3,293.4 1102.5,290.7 1103.7,290.7 1104.9,286.7 1106.1,286.7 1107.3,278.3 1108.4,278.3 1109.6,278.3 1110.8,278.3 1112.0,278.3 1113.2,278.3 1114.4,278.3 1115.5,278.3 1116.7,275.6 1117.9,275.6 1119.1,275.6 1120.3,267.0 1121.5,267.0 1122.6,272.5 1123.8,272.0 1125.0,272.0 1126.2,270.3 1127.4,270.3 1128.6,265.5 1129.7,263.8 1130.9,263.8 1132.1,263.8 1133.3,263.8 1134.5,263.8 1135.7,265.3 1136.9,265.3 1138.0,265.3 1139.2,265.3 1140.4,265.3 1141.6,263.4 1142.8,263.4 1144.0,263.4 1145.1,263.4 1146.3,263.4 1147.5,270.3 1148.7,268.1 1149.9,267.5 1151.1,267.5 1152.2,267.5 1153.4,264.1 1154.6,264.1 1155.8,264.1 1157.0,264.1 1158.2,261.5 1159.3,261.5 1160.5,261.5 1161.7,261.5 1162.9,261.5 1164.1,261.5 1165.3,261.5 1166.4,262.7 1167.6,262.7 1168.8,262.0 1170.0,263.1"/><polyline fill="none" stroke="#777777" stroke-width="2.5" points="95.0,395.7 96.2,394.9 97.4,394.6 98.6,394.3 99.7,394.5 100.9,395.6 102.1,396.1 103.3,394.8 104.5,393.9 105.7,394.0 106.8,394.0 108.0,393.2 109.2,393.0 110.4,393.9 111.6,392.9 112.8,392.1 113.9,391.0 115.1,391.8 116.3,392.3 117.5,391.3 118.7,392.1 119.9,392.8 121.0,392.6 122.2,391.7 123.4,391.8 124.6,391.5 125.8,392.6 127.0,392.7 128.1,394.2 129.3,394.3 130.5,393.9 131.7,394.7 132.9,394.5 134.1,394.7 135.3,395.0 136.4,394.4 137.6,393.3 138.8,393.2 140.0,394.4 141.2,394.2 142.4,395.6 143.5,396.6 144.7,396.7 145.9,395.5 147.1,396.0 148.3,394.8 149.5,395.9 150.6,395.2 151.8,394.2 153.0,395.5 154.2,395.3 155.4,394.8 156.6,394.7 157.7,394.8 158.9,393.8 160.1,393.4 161.3,392.4 162.5,392.1 163.7,392.5 164.9,392.7 166.0,392.4 167.2,392.3 168.4,392.3 169.6,392.6 170.8,391.6 172.0,391.8 173.1,391.5 174.3,391.5 175.5,391.5 176.7,391.9 177.9,391.9 179.1,391.8 180.2,393.0 181.4,393.3 182.6,391.8 183.8,391.2 185.0,391.3 186.2,392.1 187.3,392.6 188.5,393.1 189.7,391.8 190.9,391.8 192.1,392.1 193.3,391.7 194.4,391.9 195.6,392.0 196.8,391.7 198.0,392.2 199.2,391.3 200.4,390.6 201.6,390.7 202.7,390.7 203.9,391.5 205.1,392.1 206.3,391.4 207.5,390.4 208.7,390.4 209.8,390.8 211.0,390.1 212.2,389.0 213.4,389.2 214.6,389.0 215.8,389.3 216.9,388.8 218.1,388.7 219.3,388.0 220.5,387.4 221.7,387.4 222.9,386.4 224.0,386.9 225.2,387.4 226.4,387.8 227.6,387.5 228.8,388.1 230.0,388.4 231.2,387.5 232.3,387.5 233.5,387.2 234.7,386.3 235.9,386.2 237.1,386.3 238.3,386.9 239.4,387.1 240.6,386.9 241.8,386.4 243.0,385.8 244.2,385.1 245.4,385.2 246.5,384.9 247.7,384.3 248.9,384.1 250.1,384.7 251.3,384.7 252.5,384.3 253.6,384.1 254.8,384.1 256.0,384.6 257.2,383.8 258.4,383.6 259.6,383.9 260.7,385.0 261.9,385.3 263.1,385.6 264.3,384.9 265.5,385.3 266.7,385.8 267.9,385.8 269.0,385.8 270.2,385.4 271.4,386.3 272.6,386.9 273.8,387.5 275.0,387.5 276.1,387.0 277.3,387.2 278.5,386.3 279.7,387.4 280.9,386.9 282.1,386.3 283.2,385.2 284.4,384.9 285.6,385.0 286.8,384.8 288.0,385.2 289.2,385.7 290.3,386.0 291.5,385.9 292.7,385.3 293.9,385.8 295.1,385.7 296.3,385.0 297.5,386.2 298.6,386.2 299.8,386.4 301.0,387.1 302.2,388.4 303.4,388.6 304.6,388.2 305.7,389.4 306.9,389.4 308.1,388.9 309.3,389.1 310.5,389.1 311.7,390.2 312.8,389.6 314.0,389.6 315.2,388.7 316.4,388.2 317.6,387.8 318.8,387.5 319.9,388.0 321.1,388.4 322.3,387.6 323.5,387.6 324.7,388.6 325.9,389.3 327.0,390.2 328.2,390.4 329.4,389.8 330.6,390.9 331.8,391.8 333.0,392.1 334.2,391.2 335.3,390.8 336.5,390.0 337.7,388.5 338.9,387.8 340.1,387.6 341.3,387.4 342.4,387.3 343.6,388.0 344.8,386.7 346.0,386.8 347.2,385.3 348.4,385.1 349.5,385.0 350.7,384.9 351.9,384.3 353.1,384.5 354.3,384.1 355.5,384.1 356.6,384.2 357.8,384.2 359.0,384.2 360.2,383.9 361.4,383.4 362.6,383.8 363.8,383.9 364.9,384.2 366.1,383.6 367.3,383.2 368.5,382.9 369.7,382.5 370.9,381.4 372.0,381.1 373.2,381.6 374.4,381.1 375.6,380.6 376.8,381.8 378.0,381.0 379.1,380.8 380.3,380.4 381.5,380.3 382.7,380.2 383.9,380.5 385.1,381.0 386.2,381.7 387.4,381.9 388.6,381.8 389.8,380.6 391.0,380.7 392.2,380.3 393.3,380.3 394.5,380.2 395.7,380.6 396.9,381.0 398.1,380.3 399.3,379.2 400.5,379.0 401.6,378.8 402.8,378.7 404.0,378.2 405.2,378.3 406.4,377.6 407.6,377.7 408.7,379.1 409.9,378.0 411.1,377.1 412.3,377.4 413.5,377.1 414.7,376.4 415.8,376.3 417.0,375.8 418.2,375.9 419.4,377.1 420.6,376.3 421.8,375.7 422.9,376.1 424.1,376.6 425.3,376.5 426.5,374.7 427.7,374.6 428.9,375.0 430.0,374.8 431.2,374.9 432.4,374.6 433.6,373.7 434.8,373.8 436.0,374.7 437.2,374.3 438.3,373.4 439.5,373.9 440.7,374.0 441.9,373.0 443.1,373.2 444.3,373.3 445.4,374.3 446.6,373.7 447.8,373.2 449.0,372.3 450.2,372.0 451.4,372.2 452.5,372.5 453.7,372.6 454.9,371.9 456.1,371.9 457.3,372.0 458.5,372.6 459.6,372.5 460.8,373.7 462.0,372.7 463.2,372.7 464.4,372.6 465.6,373.5 466.8,372.8 467.9,374.1 469.1,375.2 470.3,375.4 471.5,375.9 472.7,376.1 473.9,376.9 475.0,376.1 476.2,375.0 477.4,375.1 478.6,375.4 479.8,374.5 481.0,374.2 482.1,375.7 483.3,376.0 484.5,375.1 485.7,374.0 486.9,373.1 488.1,372.9 489.2,372.9 490.4,372.4 491.6,372.3 492.8,372.3 494.0,371.8 495.2,370.7 496.3,370.9 497.5,370.7 498.7,370.6 499.9,370.4 501.1,370.7 502.3,371.4 503.5,370.7 504.6,370.7 505.8,371.3 507.0,372.0 508.2,371.1 509.4,371.0 510.6,370.9 511.7,369.8 512.9,369.8 514.1,369.9 515.3,369.6 516.5,369.4 517.7,368.6 518.8,368.4 520.0,368.3 521.2,367.6 522.4,367.3 523.6,367.6 524.8,368.0 525.9,368.3 527.1,368.0 528.3,367.8 529.5,367.7 530.7,368.1 531.9,367.9 533.1,367.2 534.2,366.8 535.4,366.2 536.6,366.1 537.8,366.0 539.0,365.0 540.2,365.9 541.3,365.2 542.5,365.0 543.7,364.4 544.9,365.8 546.1,366.5 547.3,367.2 548.4,366.2 549.6,366.3 550.8,368.6 552.0,369.1 553.2,368.0 554.4,368.0 555.5,368.5 556.7,366.9 557.9,368.3 559.1,370.1 560.3,372.9 561.5,372.0 562.6,372.7 563.8,370.5 565.0,370.1 566.2,370.0 567.4,368.5 568.6,368.2 569.8,366.5 570.9,366.3 572.1,365.3 573.3,365.5 574.5,365.1 575.7,365.9 576.9,364.8 578.0,365.1 579.2,364.9 580.4,365.5 581.6,365.5 582.8,364.6 584.0,366.7 585.1,366.9 586.3,367.1 587.5,368.8 588.7,367.7 589.9,367.2 591.1,366.2 592.2,365.4 593.4,364.9 594.6,364.7 595.8,364.7 597.0,365.0 598.2,363.2 599.4,363.7 600.5,363.5 601.7,363.2 602.9,363.4 604.1,363.0 605.3,363.2 606.5,362.7 607.6,363.7 608.8,363.6 610.0,363.8 611.2,362.9 612.4,363.8 613.6,362.9 614.7,362.1 615.9,362.3 617.1,361.7 618.3,360.8 619.5,361.7 620.7,361.2 621.8,361.2 623.0,360.8 624.2,361.0 625.4,361.0 626.6,362.0 627.8,361.8 628.9,361.8 630.1,361.5 631.3,361.3 632.5,361.6 633.7,363.7 634.9,363.2 636.1,363.5 637.2,362.2 638.4,359.6 639.6,358.8 640.8,358.3 642.0,358.2 643.2,358.6 644.3,358.5 645.5,359.2 646.7,360.6 647.9,360.2 649.1,359.8 650.3,359.7 651.4,359.2 652.6,358.8 653.8,358.5 655.0,357.9 656.2,358.2 657.4,357.6 658.5,357.4 659.7,357.3 660.9,356.6 662.1,356.8 663.3,356.6 664.5,357.2 665.6,357.5 666.8,356.7 668.0,357.2 669.2,357.3 670.4,356.8 671.6,357.2 672.8,360.5 673.9,360.5 675.1,359.6 676.3,359.0 677.5,357.8 678.7,357.8 679.9,358.9 681.0,360.1 682.2,360.5 683.4,360.8 684.6,359.5 685.8,358.9 687.0,360.1 688.1,359.9 689.3,361.5 690.5,361.4 691.7,361.2 692.9,359.3 694.1,359.5 695.2,358.5 696.4,357.5 697.6,356.9 698.8,356.3 700.0,356.6 701.2,358.1 702.4,357.2 703.5,357.7 704.7,357.1 705.9,357.7 707.1,358.4 708.3,357.7 709.5,357.3 710.6,356.9 711.8,357.9 713.0,357.1 714.2,357.1 715.4,357.4 716.6,356.3 717.7,356.3 718.9,356.0 720.1,355.7 721.3,356.2 722.5,358.0 723.7,358.5 724.8,359.1 726.0,359.0 727.2,360.7 728.4,359.1 729.6,360.9 730.8,362.2 731.9,361.1 733.1,362.9 734.3,362.4 735.5,365.1 736.7,366.0 737.9,365.4 739.1,366.8 740.2,364.7 741.4,363.9 742.6,365.0 743.8,363.9 745.0,364.2 746.2,364.5 747.3,362.7 748.5,362.4 749.7,363.7 750.9,364.0 752.1,366.0 753.3,365.3 754.4,365.1 755.6,364.4 756.8,369.4 758.0,375.1 759.2,375.2 760.4,376.7 761.5,367.3 762.7,371.6 763.9,369.9 765.1,369.0 766.3,369.3 767.5,371.4 768.7,371.3 769.8,373.5 771.0,371.1 772.2,369.7 773.4,367.6 774.6,366.9 775.8,366.9 776.9,366.3 778.1,366.2 779.3,365.5 780.5,364.0 781.7,364.6 782.9,365.4 784.0,365.0 785.2,364.3 786.4,364.4 787.6,361.1 788.8,360.4 790.0,360.3 791.1,359.7 792.3,359.1 793.5,358.9 794.7,359.3 795.9,361.1 797.1,361.1 798.2,361.8 799.4,359.6 800.6,360.2 801.8,359.8 803.0,359.9 804.2,359.3 805.4,358.7 806.5,358.8 807.7,359.3 808.9,358.2 810.1,358.1 811.3,357.5 812.5,357.8 813.6,357.3 814.8,358.6 816.0,357.5 817.2,358.5 818.4,358.5 819.6,359.1 820.7,358.0 821.9,356.8 823.1,356.7 824.3,355.9 825.5,355.3 826.7,354.8 827.8,354.8 829.0,354.3 830.2,353.5 831.4,354.3 832.6,354.4 833.8,353.7 835.0,353.4 836.1,353.8 837.3,353.6 838.5,354.0 839.7,353.7 840.9,353.0 842.1,353.1 843.2,352.8 844.4,352.8 845.6,351.9 846.8,351.8 848.0,351.3 849.2,351.4 850.3,351.7 851.5,351.8 852.7,352.2 853.9,354.1 855.1,352.4 856.3,353.0 857.4,352.1 858.6,352.2 859.8,351.3 861.0,351.6 862.2,350.3 863.4,349.9 864.5,349.9 865.7,350.2 866.9,350.2 868.1,350.8 869.3,351.2 870.5,351.6 871.7,349.9 872.8,350.4 874.0,349.9 875.2,349.6 876.4,349.2 877.6,349.9 878.8,350.8 879.9,350.1 881.1,349.2 882.3,349.5 883.5,349.2 884.7,349.0 885.9,348.6 887.0,347.6 888.2,347.7 889.4,347.0 890.6,347.2 891.8,347.4 893.0,346.8 894.1,346.5 895.3,346.0 896.5,346.6 897.7,347.0 898.9,347.6 900.1,346.9 901.2,346.5 902.4,346.1 903.6,345.7 904.8,345.6 906.0,345.6 907.2,345.1 908.4,345.6 909.5,344.9 910.7,345.2 911.9,348.5 913.1,346.7 914.3,346.8 915.5,346.3 916.6,347.1 917.8,346.4 919.0,345.2 920.2,345.2 921.4,345.8 922.6,345.1 923.7,344.1 924.9,342.7 926.1,342.3 927.3,342.3 928.5,343.6 929.7,343.2 930.8,343.0 932.0,344.5 933.2,344.0 934.4,345.4 935.6,345.2 936.8,343.3 938.0,343.1 939.1,343.0 940.3,345.0 941.5,345.1 942.7,346.2 943.9,347.2 945.1,346.7 946.2,348.6 947.4,347.4 948.6,345.6 949.8,344.5 951.0,343.7 952.2,343.0 953.3,343.6 954.5,343.3 955.7,342.9 956.9,342.8 958.1,342.6 959.3,343.0 960.4,343.1 961.6,342.2 962.8,342.0 964.0,343.3 965.2,343.5 966.4,343.8 967.5,345.2 968.7,344.2 969.9,343.5 971.1,342.7 972.3,342.2 973.5,341.7 974.7,341.8 975.8,342.2 977.0,342.3 978.2,343.3 979.4,343.0 980.6,342.2 981.8,341.5 982.9,341.9 984.1,341.9 985.3,341.1 986.5,340.9 987.7,341.1 988.9,341.7 990.0,341.4 991.2,341.5 992.4,344.0 993.6,342.6 994.8,342.0 996.0,341.9 997.1,341.3 998.3,340.8 999.5,340.8 1000.7,341.1 1001.9,341.5 1003.1,340.8 1004.3,341.9 1005.4,342.5 1006.6,344.0 1007.8,341.7 1009.0,341.1 1010.2,341.4 1011.4,341.5 1012.5,343.4 1013.7,343.3 1014.9,343.1 1016.1,342.5 1017.3,342.8 1018.5,341.9 1019.6,343.2 1020.8,342.3 1022.0,341.2 1023.2,341.9 1024.4,342.5 1025.6,342.5 1026.7,343.5 1027.9,342.7 1029.1,343.4 1030.3,345.0 1031.5,343.9 1032.7,344.1 1033.8,344.3 1035.0,346.1 1036.2,346.8 1037.4,345.6 1038.6,345.3 1039.8,347.0 1041.0,347.2 1042.1,349.3 1043.3,348.0 1044.5,348.4 1045.7,347.8 1046.9,349.9 1048.1,351.9 1049.2,352.3 1050.4,349.0 1051.6,348.1 1052.8,348.0 1054.0,347.4 1055.2,347.4 1056.3,344.3 1057.5,343.6 1058.7,343.7 1059.9,342.5 1061.1,341.0 1062.3,340.0 1063.4,339.7 1064.6,338.2 1065.8,338.4 1067.0,339.3 1068.2,338.0 1069.4,338.5 1070.6,337.5 1071.7,337.3 1072.9,337.9 1074.1,337.9 1075.3,336.6 1076.5,336.3 1077.7,336.8 1078.8,335.7 1080.0,333.9 1081.2,334.3 1082.4,333.2 1083.6,332.9 1084.8,333.1 1085.9,332.4 1087.1,331.3 1088.3,332.9 1089.5,333.0 1090.7,333.9 1091.9,332.6 1093.0,332.3 1094.2,331.8 1095.4,330.9 1096.6,330.9 1097.8,330.2 1099.0,329.8 1100.1,329.5 1101.3,329.3 1102.5,330.2 1103.7,329.7 1104.9,333.2 1106.1,332.9 1107.3,333.3 1108.4,335.4 1109.6,333.2 1110.8,332.5 1112.0,330.1 1113.2,330.9 1114.4,332.6 1115.5,331.6 1116.7,332.0 1117.9,334.0 1119.1,334.0 1120.3,333.8 1121.5,334.8 1122.6,332.6 1123.8,331.6 1125.0,331.8 1126.2,331.9 1127.4,330.8 1128.6,331.4 1129.7,331.8 1130.9,330.7 1132.1,330.1 1133.3,331.1 1134.5,330.7 1135.7,330.1 1136.9,330.9 1138.0,332.2 1139.2,332.4 1140.4,331.3 1141.6,331.5 1142.8,333.1 1144.0,333.0 1145.1,333.0 1146.3,332.6 1147.5,334.7 1148.7,332.5 1149.9,331.5 1151.1,329.6 1152.2,327.2 1153.4,327.4 1154.6,327.7 1155.8,326.8 1157.0,326.8 1158.2,327.3 1159.3,326.9 1160.5,326.0 1161.7,326.3 1162.9,326.9 1164.1,327.9 1165.3,327.6 1166.4,328.7 1167.6,328.2 1168.8,328.6 1170.0,328.2"/><polyline fill="none" stroke="#c45a24" stroke-width="2" points="95.0,465.0 96.2,465.0 97.4,465.0 98.6,465.0 99.7,465.0 100.9,465.0 102.1,465.0 103.3,465.0 104.5,465.0 105.7,469.4 106.8,465.0 108.0,465.0 109.2,465.0 110.4,470.4 111.6,465.0 112.8,465.0 113.9,465.0 115.1,468.1 116.3,471.4 117.5,465.0 118.7,472.1 119.9,478.1 121.0,477.2 122.2,469.1 123.4,465.3 124.6,465.0 125.8,474.6 127.0,475.2 128.1,495.7 129.3,499.5 130.5,505.1 131.7,520.9 132.9,514.0 134.1,515.9 135.3,524.6 136.4,512.1 137.6,468.3 138.8,465.0 140.0,465.0 141.2,465.0 142.4,468.8 143.5,471.6 144.7,473.3 145.9,467.0 147.1,467.3 148.3,465.0 149.5,465.0 150.6,465.0 151.8,465.0 153.0,465.0 154.2,465.0 155.4,465.0 156.6,466.6 157.7,466.9 158.9,465.0 160.1,465.0 161.3,465.0 162.5,465.0 163.7,465.0 164.9,466.9 166.0,465.2 167.2,465.1 168.4,465.9 169.6,479.0 170.8,476.3 172.0,476.2 173.1,475.7 174.3,474.8 175.5,474.7 176.7,476.8 177.9,476.2 179.1,476.2 180.2,484.2 181.4,495.5 182.6,494.6 183.8,487.0 185.0,485.6 186.2,489.8 187.3,492.7 188.5,487.6 189.7,475.3 190.9,473.9 192.1,477.1 193.3,472.4 194.4,475.0 195.6,479.1 196.8,477.4 198.0,478.6 199.2,476.4 200.4,475.7 201.6,475.7 202.7,476.5 203.9,480.9 205.1,485.9 206.3,475.2 207.5,468.5 208.7,467.8 209.8,465.0 211.0,465.0 212.2,465.0 213.4,468.3 214.6,465.0 215.8,469.3 216.9,469.5 218.1,468.3 219.3,465.0 220.5,465.0 221.7,465.0 222.9,465.0 224.0,465.0 225.2,465.0 226.4,467.9 227.6,465.0 228.8,473.8 230.0,477.7 231.2,468.9 232.3,468.7 233.5,467.1 234.7,465.0 235.9,465.0 237.1,465.3 238.3,468.4 239.4,469.7 240.6,467.8 241.8,465.0 243.0,465.0 244.2,465.0 245.4,465.0 246.5,465.0 247.7,474.4 248.9,474.6 250.1,480.1 251.3,480.0 252.5,477.5 253.6,475.7 254.8,475.1 256.0,474.3 257.2,470.5 258.4,468.1 259.6,468.7 260.7,474.2 261.9,475.6 263.1,478.2 264.3,471.3 265.5,472.0 266.7,473.8 267.9,472.1 269.0,488.8 270.2,481.4 271.4,486.2 272.6,496.0 273.8,506.1 275.0,507.4 276.1,502.0 277.3,501.6 278.5,484.3 279.7,507.8 280.9,483.2 282.1,474.0 283.2,465.0 284.4,465.0 285.6,465.0 286.8,469.8 288.0,465.9 289.2,467.6 290.3,465.0 291.5,465.0 292.7,465.0 293.9,469.3 295.1,466.9 296.3,465.0 297.5,470.2 298.6,471.7 299.8,469.8 301.0,480.9 302.2,501.6 303.4,504.9 304.6,499.4 305.7,509.5 306.9,511.0 308.1,515.1 309.3,524.3 310.5,520.8 311.7,528.7 312.8,523.6 314.0,534.2 315.2,512.4 316.4,506.5 317.6,500.8 318.8,494.3 319.9,503.9 321.1,515.8 322.3,518.9 323.5,519.7 324.7,526.5 325.9,534.7 327.0,534.0 328.2,534.9 329.4,527.7 330.6,557.9 331.8,574.2 333.0,574.5 334.2,566.1 335.3,557.6 336.5,546.2 337.7,533.4 338.9,532.4 340.1,533.0 341.3,531.5 342.4,531.1 343.6,535.6 344.8,530.2 346.0,530.6 347.2,526.0 348.4,526.0 349.5,525.6 350.7,525.1 351.9,523.2 353.1,521.5 354.3,519.8 355.5,519.9 356.6,520.1 357.8,519.9 359.0,520.8 360.2,517.6 361.4,514.5 362.6,518.3 363.8,517.2 364.9,521.0 366.1,514.3 367.3,510.4 368.5,502.6 369.7,502.6 370.9,502.6 372.0,502.6 373.2,502.6 374.4,502.7 375.6,492.7 376.8,492.7 378.0,483.0 379.1,483.0 380.3,483.0 381.5,483.0 382.7,483.0 383.9,480.9 385.1,480.9 386.2,478.7 387.4,481.2 388.6,479.9 389.8,473.4 391.0,473.3 392.2,472.3 393.3,472.3 394.5,486.5 395.7,493.2 396.9,494.8 398.1,491.0 399.3,487.3 400.5,482.3 401.6,485.0 402.8,481.0 404.0,474.3 405.2,475.4 406.4,473.7 407.6,475.1 408.7,469.9 409.9,465.0 411.1,465.0 412.3,465.3 413.5,465.4 414.7,465.0 415.8,465.0 417.0,465.0 418.2,465.0 419.4,465.5 420.6,465.0 421.8,465.0 422.9,465.7 424.1,466.8 425.3,466.8 426.5,465.0 427.7,465.0 428.9,465.0 430.0,465.0 431.2,466.8 432.4,465.0 433.6,465.0 434.8,465.0 436.0,465.0 437.2,465.0 438.3,465.0 439.5,465.0 440.7,465.0 441.9,465.0 443.1,466.1 444.3,465.0 445.4,475.7 446.6,471.1 447.8,468.3 449.0,465.7 450.2,465.1 451.4,465.0 452.5,466.0 453.7,466.8 454.9,465.0 456.1,465.0 457.3,465.0 458.5,467.8 459.6,466.9 460.8,478.1 462.0,469.3 463.2,467.5 464.4,465.0 465.6,472.2 466.8,465.0 467.9,477.6 469.1,474.0 470.3,469.1 471.5,494.9 472.7,501.0 473.9,516.3 475.0,507.9 476.2,488.0 477.4,487.8 478.6,497.0 479.8,481.4 481.0,480.2 482.1,487.2 483.3,488.0 484.5,528.9 485.7,508.4 486.9,506.5 488.1,506.4 489.2,506.5 490.4,504.7 491.6,504.0 492.8,503.6 494.0,501.3 495.2,498.0 496.3,498.0 497.5,499.3 498.7,499.4 499.9,497.7 501.1,499.4 502.3,511.7 503.5,504.9 504.6,503.8 505.8,510.1 507.0,518.5 508.2,503.5 509.4,502.3 510.6,501.2 511.7,491.0 512.9,490.6 514.1,490.1 515.3,489.4 516.5,487.5 517.7,485.5 518.8,477.7 520.0,477.4 521.2,475.0 522.4,474.4 523.6,470.9 524.8,465.0 525.9,468.2 527.1,465.0 528.3,465.0 529.5,465.0 530.7,465.0 531.9,487.1 533.1,487.1 534.2,487.1 535.4,487.1 536.6,488.2 537.8,478.3 539.0,478.3 540.2,468.8 541.3,468.8 542.5,470.3 543.7,465.0 544.9,465.0 546.1,465.0 547.3,465.0 548.4,465.9 549.6,465.0 550.8,465.0 552.0,465.0 553.2,465.0 554.4,467.6 555.5,465.0 556.7,465.0 557.9,465.0 559.1,465.0 560.3,467.2 561.5,465.0 562.6,465.0 563.8,465.0 565.0,465.0 566.2,465.6 567.4,465.0 568.6,465.0 569.8,465.0 570.9,465.0 572.1,465.0 573.3,465.0 574.5,465.1 575.7,465.0 576.9,465.0 578.0,465.0 579.2,465.0 580.4,470.1 581.6,470.1 582.8,468.1 584.0,465.0 585.1,465.0 586.3,465.0 587.5,465.0 588.7,466.2 589.9,473.5 591.1,473.5 592.2,473.5 593.4,473.5 594.6,474.2 595.8,465.0 597.0,465.0 598.2,465.0 599.4,465.0 600.5,465.0 601.7,465.0 602.9,465.0 604.1,465.0 605.3,465.0 606.5,465.0 607.6,465.0 608.8,465.0 610.0,465.0 611.2,465.0 612.4,467.7 613.6,465.0 614.7,465.0 615.9,465.0 617.1,465.0 618.3,465.7 619.5,465.0 620.7,465.0 621.8,465.0 623.0,465.0 624.2,465.5 625.4,465.0 626.6,465.0 627.8,465.0 628.9,465.0 630.1,466.2 631.3,469.1 632.5,469.1 633.7,467.2 634.9,467.2 636.1,469.2 637.2,465.0 638.4,465.0 639.6,465.0 640.8,465.0 642.0,465.3 643.2,465.0 644.3,465.0 645.5,465.0 646.7,473.1 647.9,468.8 649.1,465.0 650.3,465.0 651.4,465.0 652.6,465.0 653.8,466.1 655.0,465.0 656.2,465.0 657.4,465.0 658.5,465.0 659.7,465.0 660.9,465.0 662.1,465.0 663.3,465.0 664.5,465.0 665.6,465.0 666.8,465.0 668.0,465.0 669.2,465.0 670.4,465.2 671.6,465.0 672.8,465.0 673.9,465.0 675.1,465.1 676.3,465.0 677.5,465.0 678.7,465.0 679.9,465.0 681.0,466.5 682.2,465.0 683.4,465.0 684.6,465.0 685.8,465.0 687.0,465.0 688.1,468.1 689.3,465.0 690.5,465.0 691.7,472.9 692.9,472.9 694.1,472.9 695.2,472.9 696.4,473.9 697.6,467.5 698.8,467.3 700.0,465.0 701.2,465.3 702.4,465.0 703.5,465.0 704.7,465.0 705.9,465.0 707.1,465.8 708.3,465.0 709.5,465.0 710.6,465.0 711.8,465.0 713.0,466.2 714.2,465.0 715.4,465.2 716.6,465.0 717.7,465.0 718.9,466.2 720.1,465.0 721.3,465.0 722.5,465.0 723.7,466.9 724.8,465.0 726.0,465.0 727.2,465.0 728.4,465.0 729.6,465.0 730.8,465.0 731.9,465.0 733.1,465.0 734.3,465.0 735.5,467.2 736.7,465.0 737.9,486.4 739.1,472.5 740.2,472.5 741.4,473.0 742.6,466.9 743.8,466.9 745.0,466.9 746.2,473.2 747.3,470.2 748.5,465.0 749.7,465.0 750.9,465.0 752.1,465.0 753.3,465.0 754.4,465.0 755.6,511.9 756.8,498.0 758.0,498.7 759.2,516.9 760.4,503.9 761.5,493.9 762.7,493.9 763.9,493.9 765.1,495.2 766.3,489.0 767.5,489.0 768.7,489.0 769.8,490.3 771.0,483.6 772.2,483.6 773.4,483.6 774.6,483.6 775.8,484.4 776.9,478.6 778.1,481.3 779.3,478.3 780.5,478.3 781.7,479.0 782.9,475.9 784.0,472.1 785.2,472.1 786.4,472.1 787.6,472.1 788.8,467.3 790.0,467.3 791.1,467.0 792.3,465.0 793.5,465.0 794.7,465.0 795.9,466.6 797.1,465.0 798.2,465.0 799.4,465.0 800.6,465.0 801.8,465.0 803.0,465.0 804.2,465.0 805.4,465.0 806.5,465.0 807.7,465.0 808.9,465.0 810.1,465.4 811.3,465.0 812.5,465.0 813.6,465.2 814.8,465.0 816.0,465.0 817.2,465.0 818.4,465.0 819.6,472.3 820.7,469.6 821.9,465.4 823.1,465.4 824.3,465.4 825.5,465.4 826.7,465.0 827.8,465.0 829.0,465.0 830.2,465.0 831.4,465.9 832.6,465.0 833.8,465.0 835.0,465.1 836.1,466.7 837.3,465.0 838.5,465.0 839.7,465.0 840.9,465.0 842.1,465.0 843.2,465.5 844.4,478.2 845.6,478.2 846.8,478.2 848.0,478.2 849.2,478.9 850.3,474.2 851.5,469.3 852.7,467.6 853.9,465.0 855.1,465.0 856.3,465.0 857.4,465.0 858.6,465.0 859.8,465.0 861.0,465.9 862.2,465.0 863.4,465.0 864.5,465.3 865.7,465.0 866.9,465.2 868.1,468.6 869.3,466.4 870.5,465.0 871.7,465.3 872.8,465.0 874.0,465.0 875.2,465.0 876.4,465.0 877.6,465.0 878.8,465.0 879.9,465.0 881.1,465.0 882.3,465.0 883.5,465.6 884.7,467.2 885.9,467.2 887.0,467.2 888.2,467.5 889.4,465.0 890.6,465.0 891.8,477.1 893.0,474.7 894.1,474.7 895.3,472.5 896.5,472.5 897.7,478.9 898.9,476.6 900.1,474.0 901.2,475.5 902.4,468.9 903.6,466.6 904.8,465.0 906.0,465.0 907.2,465.6 908.4,465.0 909.5,465.0 910.7,465.0 911.9,465.0 913.1,465.4 914.3,465.0 915.5,465.0 916.6,465.0 917.8,465.0 919.0,465.0 920.2,465.0 921.4,465.0 922.6,465.0 923.7,465.0 924.9,465.5 926.1,465.0 927.3,465.0 928.5,465.0 929.7,465.0 930.8,465.0 932.0,465.5 933.2,465.0 934.4,465.0 935.6,465.0 936.8,465.0 938.0,465.0 939.1,465.0 940.3,465.0 941.5,465.3 942.7,484.2 943.9,465.0 945.1,465.0 946.2,465.0 947.4,465.0 948.6,465.0 949.8,465.0 951.0,465.0 952.2,465.0 953.3,465.4 954.5,465.0 955.7,465.0 956.9,465.0 958.1,465.0 959.3,465.0 960.4,465.0 961.6,465.0 962.8,465.0 964.0,465.0 965.2,465.0 966.4,465.0 967.5,465.0 968.7,465.0 969.9,465.0 971.1,465.0 972.3,465.0 973.5,465.0 974.7,465.0 975.8,465.9 977.0,465.0 978.2,465.0 979.4,485.5 980.6,485.5 981.8,485.5 982.9,483.8 984.1,485.6 985.3,483.6 986.5,484.0 987.7,479.3 988.9,466.0 990.0,465.0 991.2,488.5 992.4,490.1 993.6,484.3 994.8,482.5 996.0,482.8 997.1,481.4 998.3,476.4 999.5,467.2 1000.7,465.0 1001.9,465.0 1003.1,465.0 1004.3,465.0 1005.4,465.0 1006.6,465.0 1007.8,465.0 1009.0,465.0 1010.2,465.0 1011.4,465.0 1012.5,465.0 1013.7,465.0 1014.9,465.0 1016.1,465.0 1017.3,465.0 1018.5,465.0 1019.6,465.0 1020.8,465.0 1022.0,465.0 1023.2,465.0 1024.4,469.4 1025.6,469.4 1026.7,465.0 1027.9,465.0 1029.1,465.0 1030.3,478.0 1031.5,482.4 1032.7,478.5 1033.8,478.5 1035.0,469.1 1036.2,465.0 1037.4,465.0 1038.6,465.0 1039.8,465.0 1041.0,465.0 1042.1,465.0 1043.3,465.0 1044.5,465.0 1045.7,465.0 1046.9,465.7 1048.1,465.0 1049.2,465.0 1050.4,465.0 1051.6,465.0 1052.8,465.2 1054.0,465.0 1055.2,465.0 1056.3,465.0 1057.5,465.0 1058.7,465.0 1059.9,465.3 1061.1,465.0 1062.3,465.0 1063.4,465.0 1064.6,465.0 1065.8,465.4 1067.0,465.0 1068.2,465.0 1069.4,465.4 1070.6,465.0 1071.7,465.5 1072.9,465.0 1074.1,467.6 1075.3,465.8 1076.5,465.8 1077.7,466.5 1078.8,465.0 1080.0,465.0 1081.2,465.0 1082.4,465.0 1083.6,465.0 1084.8,465.3 1085.9,465.0 1087.1,465.0 1088.3,465.0 1089.5,465.7 1090.7,466.5 1091.9,465.0 1093.0,465.0 1094.2,465.0 1095.4,465.0 1096.6,475.2 1097.8,474.4 1099.0,472.0 1100.1,471.6 1101.3,471.4 1102.5,465.0 1103.7,465.0 1104.9,465.0 1106.1,465.0 1107.3,465.0 1108.4,466.8 1109.6,465.0 1110.8,465.0 1112.0,465.0 1113.2,465.0 1114.4,470.7 1115.5,465.0 1116.7,465.0 1117.9,475.2 1119.1,500.4 1120.3,465.0 1121.5,488.0 1122.6,483.5 1123.8,477.5 1125.0,477.1 1126.2,473.7 1127.4,469.9 1128.6,465.0 1129.7,465.0 1130.9,465.0 1132.1,465.0 1133.3,468.8 1134.5,466.0 1135.7,472.6 1136.9,474.4 1138.0,477.3 1139.2,484.6 1140.4,476.3 1141.6,470.7 1142.8,475.4 1144.0,476.7 1145.1,479.4 1146.3,485.5 1147.5,521.7 1148.7,499.7 1149.9,490.9 1151.1,488.7 1152.2,487.5 1153.4,474.7 1154.6,474.5 1155.8,474.1 1157.0,474.1 1158.2,465.1 1159.3,465.1 1160.5,465.1 1161.7,465.1 1162.9,465.1 1164.1,465.1 1165.3,465.1 1166.4,470.0 1167.6,469.7 1168.8,467.1 1170.0,471.4"/><polyline fill="none" stroke="#8b5a3c" stroke-width="2" points="95.0,465.0 96.2,465.0 97.4,465.0 98.6,465.0 99.7,465.0 100.9,465.0 102.1,465.0 103.3,465.0 104.5,465.0 105.7,469.4 106.8,465.0 108.0,465.0 109.2,465.0 110.4,467.6 111.6,465.0 112.8,465.0 113.9,465.0 115.1,467.2 116.3,469.5 117.5,465.0 118.7,470.2 119.9,475.1 121.0,473.7 122.2,467.5 123.4,465.0 124.6,465.0 125.8,472.0 127.0,472.3 128.1,489.4 129.3,493.6 130.5,500.8 131.7,513.6 132.9,508.2 134.1,510.0 135.3,517.1 136.4,506.1 137.6,466.1 138.8,465.0 140.0,465.0 141.2,465.0 142.4,465.0 143.5,467.1 144.7,467.8 145.9,465.0 147.1,465.9 148.3,465.0 149.5,465.0 150.6,465.0 151.8,465.0 153.0,465.0 154.2,465.0 155.4,465.0 156.6,465.0 157.7,465.0 158.9,465.0 160.1,465.0 161.3,465.0 162.5,465.0 163.7,465.0 164.9,465.0 166.0,465.0 167.2,465.0 168.4,465.0 169.6,477.2 170.8,477.2 172.0,477.2 173.1,477.2 174.3,477.2 175.5,477.2 176.7,479.2 177.9,478.6 179.1,477.4 180.2,482.2 181.4,494.4 182.6,497.7 183.8,491.5 185.0,490.3 186.2,493.2 187.3,494.9 188.5,489.2 189.7,480.1 190.9,479.2 192.1,481.7 193.3,478.5 194.4,481.8 195.6,485.5 196.8,484.7 198.0,485.8 199.2,483.7 200.4,483.0 201.6,483.0 202.7,483.0 203.9,485.0 205.1,488.8 206.3,481.7 207.5,477.7 208.7,477.3 209.8,472.3 211.0,470.8 212.2,469.9 213.4,469.9 214.6,465.2 215.8,465.2 216.9,468.7 218.1,468.3 219.3,467.1 220.5,466.4 221.7,466.4 222.9,466.4 224.0,466.4 225.2,465.0 226.4,465.8 227.6,465.0 228.8,472.3 230.0,473.5 231.2,468.0 232.3,468.0 233.5,466.2 234.7,465.0 235.9,465.0 237.1,465.7 238.3,467.2 239.4,468.0 240.6,466.3 241.8,465.0 243.0,465.0 244.2,465.0 245.4,465.0 246.5,465.1 247.7,476.2 248.9,476.1 250.1,478.1 251.3,477.5 252.5,475.3 253.6,474.6 254.8,473.4 256.0,472.0 257.2,472.0 258.4,469.8 259.6,469.8 260.7,470.7 261.9,471.6 263.1,473.7 264.3,468.8 265.5,467.4 266.7,465.7 267.9,465.1 269.0,479.7 270.2,476.1 271.4,477.2 272.6,483.4 273.8,490.1 275.0,490.1 276.1,490.8 277.3,489.5 278.5,477.1 279.7,493.2 280.9,469.2 282.1,465.0 283.2,465.0 284.4,465.0 285.6,465.0 286.8,470.0 288.0,466.8 289.2,468.5 290.3,465.9 291.5,465.0 292.7,465.0 293.9,467.7 295.1,466.1 296.3,465.0 297.5,467.1 298.6,468.9 299.8,466.5 301.0,474.5 302.2,491.4 303.4,494.7 304.6,490.4 305.7,497.7 306.9,499.0 308.1,504.9 309.3,514.8 310.5,512.9 311.7,516.5 312.8,514.8 314.0,524.6 315.2,506.5 316.4,502.0 317.6,497.5 318.8,492.6 319.9,501.5 321.1,511.1 322.3,517.1 323.5,517.2 324.7,519.8 325.9,526.2 327.0,520.8 328.2,521.6 329.4,517.0 330.6,539.0 331.8,549.5 333.0,553.2 334.2,543.1 335.3,535.3 336.5,526.0 337.7,515.2 338.9,515.2 340.1,515.2 341.3,515.2 342.4,515.2 343.6,518.4 344.8,516.2 346.0,516.4 347.2,514.3 348.4,514.3 349.5,513.8 350.7,513.3 351.9,511.7 353.1,509.0 354.3,508.1 355.5,508.1 356.6,508.5 357.8,508.8 359.0,509.4 360.2,505.7 361.4,503.0 362.6,504.9 363.8,504.6 364.9,506.8 366.1,503.2 367.3,500.5 368.5,500.5 369.7,500.5 370.9,500.5 372.0,500.5 373.2,500.5 374.4,500.5 375.6,500.5 376.8,500.5 378.0,490.5 379.1,490.5 380.3,490.5 381.5,490.5 382.7,490.5 383.9,488.4 385.1,488.4 386.2,486.1 387.4,488.6 388.6,487.4 389.8,480.7 391.0,480.6 392.2,479.6 393.3,479.6 394.5,494.1 395.7,500.9 396.9,502.6 398.1,498.7 399.3,494.9 400.5,494.4 401.6,494.4 402.8,494.4 404.0,488.1 405.2,488.1 406.4,488.1 407.6,488.1 408.7,478.8 409.9,475.2 411.1,473.3 412.3,473.3 413.5,473.3 414.7,473.3 415.8,473.3 417.0,473.3 418.2,473.3 419.4,473.8 420.6,471.9 421.8,470.8 422.9,471.6 424.1,472.5 425.3,471.8 426.5,466.6 427.7,466.6 428.9,466.6 430.0,465.2 431.2,466.3 432.4,465.0 433.6,465.0 434.8,465.0 436.0,465.0 437.2,465.0 438.3,465.0 439.5,465.0 440.7,465.0 441.9,465.0 443.1,465.1 444.3,465.0 445.4,474.3 446.6,471.3 447.8,468.8 449.0,468.0 450.2,468.0 451.4,468.0 452.5,468.9 453.7,469.3 454.9,466.8 456.1,465.0 457.3,465.3 458.5,466.9 459.6,466.4 460.8,475.1 462.0,468.3 463.2,466.9 464.4,465.0 465.6,471.0 466.8,465.0 467.9,475.5 469.1,468.6 470.3,465.0 471.5,489.3 472.7,493.8 473.9,503.6 475.0,497.8 476.2,481.4 477.4,482.5 478.6,490.2 479.8,477.2 481.0,475.0 482.1,477.6 483.3,476.5 484.5,520.3 485.7,506.3 486.9,506.3 488.1,506.3 489.2,506.8 490.4,505.2 491.6,504.9 492.8,504.9 494.0,503.5 495.2,500.0 496.3,500.0 497.5,501.3 498.7,500.8 499.9,499.7 501.1,501.2 502.3,513.7 503.5,508.8 504.6,508.3 505.8,513.6 507.0,519.3 508.2,503.5 509.4,503.3 510.6,502.6 511.7,496.0 512.9,495.6 514.1,495.2 515.3,495.3 516.5,494.4 517.7,492.4 518.8,484.1 520.0,483.8 521.2,482.3 522.4,481.7 523.6,476.7 524.8,477.9 525.9,478.5 527.1,477.2 528.3,471.6 529.5,467.7 530.7,465.6 531.9,489.5 533.1,489.5 534.2,489.5 535.4,489.5 536.6,489.5 537.8,489.5 539.0,489.5 540.2,479.2 541.3,479.2 542.5,479.2 543.7,479.1 544.9,473.6 546.1,470.2 547.3,470.2 548.4,470.2 549.6,470.2 550.8,470.2 552.0,470.2 553.2,470.2 554.4,470.2 555.5,465.0 556.7,465.0 557.9,465.0 559.1,465.0 560.3,467.4 561.5,465.0 562.6,465.0 563.8,465.0 565.0,465.0 566.2,465.0 567.4,465.0 568.6,465.0 569.8,465.0 570.9,465.0 572.1,465.0 573.3,465.0 574.5,465.1 575.7,465.0 576.9,465.0 578.0,465.0 579.2,474.6 580.4,480.4 581.6,480.4 582.8,478.1 584.0,465.0 585.1,465.0 586.3,465.0 587.5,465.0 588.7,465.0 589.9,484.1 591.1,484.1 592.2,484.1 593.4,484.1 594.6,484.0 595.8,479.2 597.0,479.2 598.2,479.2 599.4,473.0 600.5,468.7 601.7,468.7 602.9,468.7 604.1,468.7 605.3,468.7 606.5,466.3 607.6,465.0 608.8,465.0 610.0,465.0 611.2,465.0 612.4,465.0 613.6,465.0 614.7,465.0 615.9,465.0 617.1,465.0 618.3,465.0 619.5,465.0 620.7,465.0 621.8,465.0 623.0,465.0 624.2,465.0 625.4,465.0 626.6,465.0 627.8,465.0 628.9,465.0 630.1,465.0 631.3,477.3 632.5,477.3 633.7,475.0 634.9,475.0 636.1,475.0 637.2,475.0 638.4,475.0 639.6,475.0 640.8,475.0 642.0,475.0 643.2,475.5 644.3,470.7 645.5,470.7 646.7,480.6 647.9,475.2 649.1,475.2 650.3,475.2 651.4,475.2 652.6,475.2 653.8,475.2 655.0,475.2 656.2,470.5 657.4,468.3 658.5,468.3 659.7,468.3 660.9,468.3 662.1,468.3 663.3,468.3 664.5,465.0 665.6,466.2 666.8,465.0 668.0,465.0 669.2,465.0 670.4,465.0 671.6,465.0 672.8,465.0 673.9,465.0 675.1,465.1 676.3,465.0 677.5,465.0 678.7,465.0 679.9,465.0 681.0,465.0 682.2,465.0 683.4,465.0 684.6,465.0 685.8,465.0 687.0,465.0 688.1,468.9 689.3,465.0 690.5,465.0 691.7,482.9 692.9,482.9 694.1,482.9 695.2,482.9 696.4,482.9 697.6,482.9 698.8,482.6 700.0,478.7 701.2,479.1 702.4,474.6 703.5,474.6 704.7,474.6 705.9,472.2 707.1,473.2 708.3,468.2 709.5,468.2 710.6,468.2 711.8,468.2 713.0,468.5 714.2,465.0 715.4,465.2 716.6,465.0 717.7,465.0 718.9,465.0 720.1,465.0 721.3,465.0 722.5,465.0 723.7,465.0 724.8,465.0 726.0,465.0 727.2,465.0 728.4,465.0 729.6,465.0 730.8,465.0 731.9,465.0 733.1,465.0 734.3,465.0 735.5,465.0 736.7,465.0 737.9,491.9 739.1,474.4 740.2,474.4 741.4,474.4 742.6,474.4 743.8,474.4 745.0,474.4 746.2,482.3 747.3,478.1 748.5,478.1 749.7,468.4 750.9,468.4 752.1,465.0 753.3,465.0 754.4,465.0 755.6,524.8 756.8,507.1 758.0,508.0 759.2,526.7 760.4,519.7 761.5,506.9 762.7,506.9 763.9,506.9 765.1,506.9 766.3,506.9 767.5,506.9 768.7,506.9 769.8,506.9 771.0,506.9 772.2,506.9 773.4,506.9 774.6,506.9 775.8,506.9 776.9,506.9 778.1,510.4 779.3,506.5 780.5,506.5 781.7,507.4 782.9,503.5 784.0,498.6 785.2,498.6 786.4,498.6 787.6,498.6 788.8,498.6 790.0,498.6 791.1,498.3 792.3,494.9 793.5,494.5 794.7,491.1 795.9,493.1 797.1,487.5 798.2,483.4 799.4,479.3 800.6,479.3 801.8,479.3 803.0,477.4 804.2,473.4 805.4,473.4 806.5,473.4 807.7,473.4 808.9,473.4 810.1,473.4 811.3,473.4 812.5,473.4 813.6,473.6 814.8,469.8 816.0,465.0 817.2,466.1 818.4,465.0 819.6,474.7 820.7,470.6 821.9,470.6 823.1,470.6 824.3,470.6 825.5,470.6 826.7,468.3 827.8,465.0 829.0,465.0 830.2,465.0 831.4,465.0 832.6,465.4 833.8,465.0 835.0,465.1 836.1,467.3 837.3,465.0 838.5,465.0 839.7,465.0 840.9,465.0 842.1,465.0 843.2,465.0 844.4,488.2 845.6,488.2 846.8,488.2 848.0,488.2 849.2,488.2 850.3,488.2 851.5,481.8 852.7,479.5 853.9,465.9 855.1,465.0 856.3,465.0 857.4,465.0 858.6,465.0 859.8,465.0 861.0,465.0 862.2,465.0 863.4,465.0 864.5,465.3 865.7,465.0 866.9,465.0 868.1,466.5 869.3,465.0 870.5,465.0 871.7,465.4 872.8,465.0 874.0,465.0 875.2,465.0 876.4,465.0 877.6,465.0 878.8,465.0 879.9,465.0 881.1,465.0 882.3,465.0 883.5,465.0 884.7,472.8 885.9,472.8 887.0,472.8 888.2,473.3 889.4,469.8 890.6,469.8 891.8,485.9 893.0,482.7 894.1,482.8 895.3,479.8 896.5,479.8 897.7,488.3 898.9,485.2 900.1,481.8 901.2,481.8 902.4,479.3 903.6,476.2 904.8,469.8 906.0,469.8 907.2,470.0 908.4,466.9 909.5,466.9 910.7,466.9 911.9,465.0 913.1,465.0 914.3,465.0 915.5,465.0 916.6,465.0 917.8,465.0 919.0,465.0 920.2,465.5 921.4,465.0 922.6,465.0 923.7,465.0 924.9,465.0 926.1,465.0 927.3,465.0 928.5,465.0 929.7,465.0 930.8,465.0 932.0,465.6 933.2,465.0 934.4,465.0 935.6,465.0 936.8,465.0 938.0,465.0 939.1,465.0 940.3,465.0 941.5,465.4 942.7,488.3 943.9,465.0 945.1,465.0 946.2,465.0 947.4,465.0 948.6,465.0 949.8,465.0 951.0,465.0 952.2,465.0 953.3,465.5 954.5,465.0 955.7,465.0 956.9,465.0 958.1,465.0 959.3,465.0 960.4,465.0 961.6,465.0 962.8,465.0 964.0,465.0 965.2,465.0 966.4,465.0 967.5,465.0 968.7,465.0 969.9,465.0 971.1,465.0 972.3,465.0 973.5,465.0 974.7,465.0 975.8,465.1 977.0,465.0 978.2,465.0 979.4,491.4 980.6,491.4 981.8,491.3 982.9,489.2 984.1,491.4 985.3,488.9 986.5,489.0 987.7,486.8 988.9,469.9 990.0,467.9 991.2,498.0 992.4,499.0 993.6,496.0 994.8,493.7 996.0,494.0 997.1,491.8 998.3,489.4 999.5,477.7 1000.7,465.0 1001.9,465.0 1003.1,465.0 1004.3,465.0 1005.4,465.0 1006.6,465.0 1007.8,465.0 1009.0,465.0 1010.2,465.0 1011.4,465.0 1012.5,465.0 1013.7,465.0 1014.9,465.0 1016.1,465.0 1017.3,465.0 1018.5,465.0 1019.6,465.0 1020.8,465.0 1022.0,465.0 1023.2,465.0 1024.4,470.5 1025.6,470.6 1026.7,465.0 1027.9,465.0 1029.1,465.0 1030.3,481.3 1031.5,486.6 1032.7,484.9 1033.8,484.9 1035.0,473.0 1036.2,465.0 1037.4,465.0 1038.6,465.0 1039.8,465.0 1041.0,465.0 1042.1,465.0 1043.3,465.0 1044.5,465.0 1045.7,465.0 1046.9,465.8 1048.1,465.0 1049.2,465.0 1050.4,465.0 1051.6,465.0 1052.8,465.2 1054.0,465.0 1055.2,465.0 1056.3,465.0 1057.5,465.0 1058.7,465.0 1059.9,465.0 1061.1,465.0 1062.3,465.0 1063.4,465.0 1064.6,465.0 1065.8,465.0 1067.0,465.0 1068.2,465.0 1069.4,465.5 1070.6,465.0 1071.7,465.0 1072.9,465.0 1074.1,468.3 1075.3,466.0 1076.5,466.0 1077.7,466.0 1078.8,466.0 1080.0,466.0 1081.2,466.0 1082.4,466.0 1083.6,465.0 1084.8,465.0 1085.9,465.0 1087.1,465.0 1088.3,465.0 1089.5,465.0 1090.7,465.4 1091.9,465.0 1093.0,465.0 1094.2,465.0 1095.4,465.0 1096.6,477.7 1097.8,477.6 1099.0,475.3 1100.1,475.2 1101.3,475.0 1102.5,465.0 1103.7,465.0 1104.9,465.0 1106.1,465.0 1107.3,465.0 1108.4,469.3 1109.6,465.0 1110.8,465.0 1112.0,465.0 1113.2,465.3 1114.4,466.7 1115.5,465.4 1116.7,465.0 1117.9,467.9 1119.1,469.6 1120.3,465.0 1121.5,479.1 1122.6,486.9 1123.8,482.9 1125.0,482.7 1126.2,475.4 1127.4,474.9 1128.6,465.0 1129.7,465.0 1130.9,465.0 1132.1,465.0 1133.3,465.3 1134.5,465.1 1135.7,471.6 1136.9,471.6 1138.0,471.6 1139.2,471.6 1140.4,471.6 1141.6,465.0 1142.8,465.1 1144.0,465.0 1145.1,465.0 1146.3,465.0 1147.5,496.3 1148.7,486.1 1149.9,483.4 1151.1,483.4 1152.2,483.4 1153.4,467.4 1154.6,467.4 1155.8,467.4 1157.0,467.4 1158.2,465.0 1159.3,465.0 1160.5,465.0 1161.7,465.0 1162.9,465.0 1164.1,465.0 1165.3,465.0 1166.4,470.9 1167.6,470.5 1168.8,467.4 1170.0,472.6"/><polyline fill="none" stroke="#234a76" stroke-width="2" points="95.0,465.0 96.2,465.0 97.4,465.0 98.6,465.0 99.7,465.0 100.9,465.0 102.1,465.0 103.3,465.0 104.5,465.0 105.7,469.5 106.8,465.9 108.0,465.9 109.2,465.9 110.4,465.9 111.6,465.0 112.8,465.0 113.9,465.0 115.1,465.0 116.3,465.0 117.5,465.0 118.7,465.0 119.9,465.0 121.0,465.0 122.2,465.0 123.4,465.0 124.6,465.0 125.8,465.0 127.0,465.0 128.1,467.2 129.3,469.5 130.5,481.9 131.7,479.1 132.9,479.1 134.1,474.2 135.3,469.4 136.4,469.4 137.6,469.4 138.8,469.4 140.0,465.0 141.2,465.0 142.4,465.0 143.5,465.0 144.7,465.0 145.9,465.0 147.1,465.0 148.3,465.0 149.5,465.0 150.6,465.0 151.8,465.0 153.0,465.0 154.2,465.0 155.4,465.0 156.6,465.0 157.7,465.0 158.9,465.0 160.1,465.0 161.3,465.0 162.5,465.0 163.7,465.0 164.9,465.0 166.0,465.0 167.2,465.0 168.4,465.0 169.6,477.8 170.8,477.8 172.0,477.8 173.1,477.8 174.3,477.8 175.5,477.8 176.7,477.8 177.9,477.8 179.1,477.8 180.2,475.5 181.4,486.1 182.6,500.1 183.8,498.0 185.0,498.0 186.2,498.0 187.3,498.0 188.5,491.1 189.7,491.1 190.9,491.1 192.1,491.6 193.3,491.6 194.4,493.9 195.6,497.7 196.8,497.7 198.0,497.7 199.2,497.7 200.4,497.7 201.6,497.7 202.7,497.7 203.9,497.7 205.1,495.7 206.3,495.7 207.5,495.7 208.7,495.7 209.8,490.8 211.0,493.9 212.2,493.9 213.4,493.9 214.6,490.2 215.8,490.2 216.9,494.2 218.1,494.2 219.3,494.2 220.5,494.2 221.7,494.2 222.9,494.2 224.0,494.2 225.2,492.4 226.4,492.4 227.6,492.4 228.8,495.2 230.0,495.2 231.2,495.2 232.3,495.2 233.5,495.2 234.7,492.9 235.9,492.9 237.1,492.9 238.3,492.9 239.4,492.9 240.6,492.9 241.8,492.9 243.0,492.9 244.2,492.9 245.4,492.9 246.5,492.9 247.7,506.2 248.9,506.2 250.1,506.2 251.3,506.2 252.5,506.2 253.6,506.2 254.8,506.2 256.0,506.2 257.2,506.2 258.4,503.9 259.6,503.9 260.7,503.9 261.9,503.9 263.1,503.9 264.3,503.9 265.5,501.6 266.7,497.7 267.9,497.7 269.0,513.9 270.2,513.9 271.4,509.0 272.6,509.0 273.8,509.0 275.0,509.0 276.1,514.6 277.3,511.1 278.5,511.1 279.7,511.1 280.9,499.2 282.1,499.2 283.2,499.2 284.4,499.2 285.6,497.0 286.8,500.6 288.0,497.8 289.2,497.8 290.3,495.3 291.5,495.3 292.7,495.3 293.9,495.3 295.1,495.3 296.3,495.3 297.5,492.9 298.6,494.5 299.8,491.7 301.0,491.7 302.2,491.7 303.4,491.7 304.6,491.7 305.7,481.4 306.9,481.4 308.1,492.5 309.3,490.3 310.5,490.3 311.7,483.6 312.8,483.6 314.0,483.6 315.2,483.6 316.4,483.6 317.6,483.6 318.8,483.6 319.9,483.6 321.1,476.3 322.3,482.3 323.5,482.3 324.7,482.3 325.9,485.3 327.0,473.3 328.2,473.3 329.4,473.3 330.6,487.7 331.8,487.7 333.0,487.7 334.2,487.7 335.3,485.3 336.5,485.3 337.7,485.3 338.9,485.3 340.1,485.3 341.3,485.3 342.4,485.3 343.6,488.8 344.8,488.8 346.0,488.8 347.2,488.8 348.4,488.8 349.5,488.8 350.7,488.8 351.9,488.8 353.1,485.7 354.3,485.7 355.5,485.7 356.6,485.7 357.8,485.7 359.0,485.7 360.2,483.4 361.4,483.4 362.6,483.4 363.8,483.4 364.9,483.4 366.1,483.4 367.3,483.4 368.5,483.4 369.7,483.4 370.9,483.4 372.0,483.4 373.2,483.4 374.4,483.4 375.6,483.4 376.8,483.4 378.0,474.4 379.1,474.4 380.3,474.4 381.5,474.4 382.7,474.4 383.9,472.2 385.1,472.2 386.2,469.9 387.4,469.9 388.6,469.9 389.8,469.9 391.0,469.9 392.2,469.9 393.3,469.9 394.5,483.0 395.7,487.1 396.9,487.1 398.1,487.1 399.3,487.1 400.5,487.1 401.6,487.1 402.8,487.1 404.0,482.0 405.2,482.0 406.4,482.0 407.6,482.0 408.7,471.2 409.9,471.2 411.1,471.2 412.3,471.2 413.5,471.2 414.7,471.2 415.8,471.2 417.0,471.2 418.2,471.2 419.4,471.2 420.6,471.2 421.8,471.2 422.9,471.2 424.1,470.8 425.3,470.8 426.5,470.8 427.7,470.8 428.9,470.8 430.0,469.4 431.2,469.4 432.4,467.1 433.6,467.1 434.8,467.1 436.0,467.1 437.2,467.1 438.3,467.1 439.5,467.1 440.7,465.0 441.9,465.0 443.1,465.0 444.3,465.0 445.4,472.3 446.6,472.3 447.8,472.3 449.0,472.3 450.2,472.3 451.4,472.3 452.5,472.3 453.7,472.3 454.9,472.3 456.1,470.1 457.3,470.1 458.5,470.1 459.6,470.1 460.8,470.1 462.0,470.1 463.2,470.1 464.4,465.0 465.6,465.0 466.8,465.0 467.9,465.0 469.1,465.0 470.3,465.0 471.5,483.3 472.7,483.3 473.9,483.3 475.0,483.3 476.2,483.3 477.4,483.3 478.6,483.3 479.8,483.3 481.0,483.3 482.1,473.6 483.3,468.0 484.5,521.1 485.7,521.1 486.9,521.1 488.1,521.1 489.2,521.1 490.4,521.1 491.6,521.1 492.8,521.1 494.0,521.1 495.2,521.1 496.3,521.1 497.5,521.9 498.7,521.9 499.9,521.9 501.1,521.9 502.3,527.8 503.5,527.8 504.6,527.8 505.8,527.8 507.0,527.8 508.2,518.6 509.4,518.6 510.6,518.6 511.7,518.6 512.9,518.6 514.1,518.6 515.3,518.6 516.5,518.6 517.7,518.6 518.8,511.1 520.0,511.1 521.2,511.1 522.4,511.1 523.6,506.2 524.8,506.7 525.9,506.7 527.1,506.7 528.3,506.7 529.5,503.6 530.7,501.5 531.9,523.5 533.1,523.5 534.2,523.5 535.4,523.5 536.6,523.5 537.8,523.5 539.0,523.5 540.2,512.5 541.3,512.5 542.5,512.5 543.7,512.5 544.9,512.5 546.1,509.9 547.3,509.9 548.4,509.9 549.6,509.9 550.8,509.9 552.0,509.9 553.2,509.9 554.4,509.9 555.5,488.8 556.7,486.4 557.9,469.7 559.1,465.0 560.3,465.0 561.5,465.0 562.6,465.0 563.8,465.0 565.0,465.0 566.2,465.0 567.4,465.0 568.6,465.0 569.8,465.0 570.9,465.0 572.1,465.0 573.3,465.0 574.5,465.0 575.7,465.0 576.9,465.0 578.0,465.0 579.2,476.0 580.4,482.6 581.6,482.6 582.8,480.3 584.0,469.1 585.1,469.1 586.3,469.1 587.5,465.0 588.7,465.0 589.9,481.5 591.1,481.5 592.2,481.5 593.4,481.5 594.6,481.5 595.8,481.5 597.0,481.5 598.2,481.5 599.4,476.4 600.5,476.4 601.7,476.4 602.9,476.4 604.1,476.4 605.3,476.4 606.5,474.0 607.6,465.0 608.8,465.0 610.0,465.0 611.2,465.0 612.4,465.0 613.6,465.0 614.7,465.0 615.9,465.0 617.1,465.0 618.3,465.0 619.5,465.0 620.7,465.0 621.8,465.0 623.0,465.0 624.2,465.0 625.4,465.0 626.6,465.0 627.8,465.0 628.9,465.0 630.1,465.0 631.3,475.7 632.5,475.7 633.7,473.4 634.9,473.4 636.1,473.4 637.2,473.4 638.4,473.4 639.6,473.4 640.8,473.4 642.0,473.4 643.2,473.4 644.3,473.4 645.5,473.4 646.7,482.3 647.9,482.3 649.1,482.3 650.3,482.3 651.4,482.3 652.6,482.3 653.8,482.3 655.0,482.3 656.2,476.8 657.4,474.6 658.5,474.6 659.7,474.6 660.9,474.6 662.1,474.6 663.3,474.6 664.5,468.2 665.6,468.2 666.8,468.2 668.0,468.2 669.2,468.2 670.4,468.2 671.6,468.2 672.8,468.2 673.9,468.2 675.1,468.2 676.3,468.2 677.5,468.2 678.7,468.2 679.9,465.0 681.0,465.0 682.2,465.0 683.4,465.0 684.6,465.0 685.8,465.0 687.0,465.0 688.1,469.1 689.3,465.0 690.5,465.0 691.7,486.3 692.9,486.3 694.1,486.3 695.2,486.3 696.4,486.3 697.6,486.3 698.8,486.3 700.0,486.3 701.2,486.3 702.4,486.3 703.5,486.3 704.7,486.3 705.9,483.9 707.1,483.9 708.3,483.9 709.5,483.9 710.6,483.9 711.8,483.9 713.0,483.9 714.2,483.9 715.4,483.9 716.6,483.9 717.7,483.9 718.9,483.9 720.1,483.9 721.3,483.9 722.5,465.5 723.7,465.5 724.8,465.0 726.0,465.0 727.2,465.0 728.4,465.0 729.6,465.0 730.8,465.0 731.9,465.0 733.1,465.0 734.3,465.0 735.5,465.0 736.7,465.0 737.9,492.6 739.1,475.4 740.2,475.4 741.4,475.4 742.6,475.4 743.8,475.4 745.0,475.4 746.2,485.4 747.3,485.4 748.5,485.4 749.7,476.0 750.9,476.0 752.1,466.5 753.3,465.0 754.4,465.0 755.6,521.1 756.8,501.4 758.0,501.4 759.2,521.3 760.4,521.3 761.5,510.7 762.7,510.7 763.9,510.7 765.1,510.7 766.3,510.7 767.5,510.7 768.7,510.7 769.8,510.7 771.0,510.7 772.2,510.7 773.4,510.7 774.6,510.7 775.8,510.7 776.9,510.7 778.1,514.3 779.3,514.3 780.5,514.3 781.7,514.3 782.9,514.3 784.0,514.3 785.2,514.3 786.4,514.3 787.6,514.3 788.8,514.3 790.0,514.3 791.1,514.3 792.3,514.3 793.5,514.3 794.7,514.3 795.9,514.3 797.1,514.3 798.2,514.3 799.4,514.3 800.6,514.3 801.8,514.3 803.0,512.2 804.2,512.2 805.4,512.2 806.5,512.2 807.7,512.2 808.9,512.2 810.1,512.2 811.3,512.2 812.5,512.2 813.6,512.2 814.8,512.2 816.0,495.2 817.2,495.2 818.4,495.2 819.6,502.1 820.7,502.1 821.9,502.1 823.1,502.1 824.3,502.1 825.5,502.1 826.7,499.8 827.8,494.0 829.0,494.0 830.2,494.0 831.4,494.0 832.6,494.0 833.8,494.0 835.0,494.0 836.1,499.6 837.3,499.6 838.5,499.6 839.7,490.4 840.9,490.4 842.1,485.9 843.2,485.9 844.4,508.2 845.6,508.2 846.8,508.2 848.0,508.2 849.2,508.2 850.3,508.2 851.5,503.1 852.7,500.9 853.9,487.3 855.1,487.3 856.3,487.3 857.4,487.3 858.6,476.1 859.8,476.1 861.0,476.1 862.2,476.1 863.4,476.1 864.5,476.1 865.7,470.3 866.9,470.3 868.1,470.3 869.3,465.0 870.5,465.0 871.7,465.0 872.8,465.0 874.0,465.0 875.2,465.0 876.4,465.0 877.6,465.0 878.8,465.0 879.9,465.0 881.1,465.0 882.3,465.0 883.5,465.0 884.7,473.6 885.9,473.6 887.0,473.6 888.2,473.6 889.4,473.6 890.6,473.6 891.8,488.5 893.0,488.5 894.1,488.5 895.3,488.5 896.5,488.5 897.7,496.2 898.9,496.2 900.1,496.2 901.2,496.2 902.4,493.8 903.6,493.8 904.8,490.9 906.0,490.9 907.2,490.9 908.4,490.9 909.5,490.9 910.7,490.9 911.9,465.0 913.1,465.0 914.3,465.0 915.5,465.0 916.6,465.0 917.8,465.0 919.0,465.0 920.2,465.0 921.4,465.0 922.6,465.0 923.7,465.0 924.9,465.0 926.1,465.0 927.3,465.0 928.5,465.0 929.7,465.0 930.8,465.0 932.0,465.0 933.2,465.0 934.4,465.0 935.6,465.0 936.8,465.0 938.0,465.0 939.1,465.0 940.3,465.0 941.5,465.0 942.7,488.5 943.9,465.0 945.1,465.0 946.2,465.0 947.4,465.0 948.6,465.0 949.8,465.0 951.0,465.0 952.2,465.0 953.3,465.0 954.5,465.0 955.7,465.0 956.9,465.0 958.1,465.0 959.3,465.0 960.4,465.0 961.6,465.0 962.8,465.0 964.0,465.0 965.2,465.0 966.4,465.0 967.5,465.0 968.7,465.0 969.9,465.0 971.1,465.0 972.3,465.0 973.5,465.0 974.7,465.0 975.8,465.0 977.0,465.0 978.2,465.0 979.4,493.0 980.6,493.0 981.8,493.0 982.9,493.0 984.1,494.9 985.3,494.9 986.5,494.9 987.7,494.9 988.9,478.2 990.0,478.2 991.2,507.2 992.4,507.2 993.6,507.2 994.8,507.2 996.0,507.2 997.1,507.2 998.3,507.2 999.5,495.6 1000.7,465.0 1001.9,465.0 1003.1,465.0 1004.3,465.0 1005.4,465.0 1006.6,465.0 1007.8,465.0 1009.0,465.0 1010.2,465.0 1011.4,465.0 1012.5,465.0 1013.7,465.0 1014.9,465.0 1016.1,465.0 1017.3,465.0 1018.5,465.0 1019.6,465.0 1020.8,465.0 1022.0,465.0 1023.2,465.0 1024.4,470.5 1025.6,470.5 1026.7,466.3 1027.9,466.3 1029.1,465.0 1030.3,480.2 1031.5,488.2 1032.7,488.2 1033.8,488.2 1035.0,476.1 1036.2,465.0 1037.4,465.0 1038.6,465.0 1039.8,465.0 1041.0,465.0 1042.1,465.0 1043.3,465.0 1044.5,465.0 1045.7,465.0 1046.9,465.0 1048.1,465.0 1049.2,465.0 1050.4,465.0 1051.6,465.0 1052.8,465.0 1054.0,465.0 1055.2,465.0 1056.3,465.0 1057.5,465.0 1058.7,465.0 1059.9,465.0 1061.1,465.0 1062.3,465.0 1063.4,465.0 1064.6,465.0 1065.8,465.0 1067.0,465.0 1068.2,465.0 1069.4,465.0 1070.6,465.0 1071.7,465.0 1072.9,465.0 1074.1,468.2 1075.3,465.9 1076.5,465.9 1077.7,465.9 1078.8,465.9 1080.0,465.9 1081.2,465.9 1082.4,465.9 1083.6,465.0 1084.8,465.0 1085.9,465.0 1087.1,465.0 1088.3,465.0 1089.5,465.0 1090.7,465.0 1091.9,465.0 1093.0,465.0 1094.2,465.0 1095.4,465.0 1096.6,477.7 1097.8,477.7 1099.0,475.5 1100.1,475.5 1101.3,475.5 1102.5,465.0 1103.7,465.0 1104.9,465.0 1106.1,465.0 1107.3,465.0 1108.4,465.0 1109.6,465.0 1110.8,465.0 1112.0,465.0 1113.2,465.0 1114.4,465.0 1115.5,465.0 1116.7,465.0 1117.9,465.0 1119.1,465.0 1120.3,465.0 1121.5,465.0 1122.6,488.8 1123.8,486.5 1125.0,486.5 1126.2,479.4 1127.4,479.4 1128.6,465.0 1129.7,465.0 1130.9,465.0 1132.1,465.0 1133.3,465.0 1134.5,465.0 1135.7,471.1 1136.9,471.1 1138.0,471.1 1139.2,471.1 1140.4,471.1 1141.6,465.0 1142.8,465.0 1144.0,465.0 1145.1,465.0 1146.3,465.0 1147.5,494.5 1148.7,485.0 1149.9,482.7 1151.1,482.7 1152.2,482.7 1153.4,468.2 1154.6,468.2 1155.8,468.2 1157.0,468.2 1158.2,465.0 1159.3,465.0 1160.5,465.0 1161.7,465.0 1162.9,465.0 1164.1,465.0 1165.3,465.0 1166.4,469.8 1167.6,469.7 1168.8,466.7 1170.0,471.7"/><polyline fill="none" stroke="#777777" stroke-width="2" points="95.0,465.0 96.2,465.0 97.4,465.0 98.6,465.0 99.7,466.6 100.9,480.3 102.1,486.5 103.3,470.7 104.5,465.0 105.7,465.9 106.8,465.6 108.0,465.0 109.2,465.0 110.4,475.9 111.6,465.0 112.8,465.0 113.9,465.0 115.1,474.2 116.3,479.5 117.5,468.3 118.7,477.8 119.9,485.2 121.0,483.2 122.2,473.2 123.4,473.6 124.6,470.8 125.8,482.7 127.0,484.8 128.1,501.9 129.3,503.0 130.5,498.6 131.7,507.5 132.9,504.7 134.1,507.8 135.3,510.9 136.4,504.5 137.6,491.2 138.8,490.7 140.0,503.6 141.2,502.2 142.4,517.6 143.5,529.3 144.7,530.5 145.9,517.2 147.1,522.3 148.3,508.1 149.5,520.8 150.6,513.0 151.8,502.2 153.0,516.4 154.2,514.2 155.4,508.8 156.6,507.3 157.7,509.1 158.9,497.2 160.1,492.3 161.3,480.4 162.5,477.1 163.7,481.9 164.9,484.1 166.0,480.8 167.2,479.9 168.4,479.7 169.6,483.2 170.8,471.9 172.0,474.0 173.1,470.9 174.3,470.4 175.5,470.5 176.7,475.2 177.9,474.5 179.1,473.6 180.2,487.3 181.4,490.9 182.6,474.1 183.8,466.8 185.0,467.6 186.2,477.4 187.3,483.3 188.5,489.3 189.7,473.6 190.9,473.4 192.1,477.2 193.3,473.2 194.4,474.7 195.6,475.8 196.8,472.9 198.0,478.6 199.2,468.2 200.4,465.0 201.6,466.3 202.7,465.9 203.9,475.6 205.1,481.9 206.3,474.5 207.5,465.0 208.7,465.0 209.8,469.8 211.0,465.0 212.2,465.0 213.4,466.7 214.6,465.0 215.8,468.0 216.9,465.0 218.1,465.0 219.3,465.0 220.5,465.0 221.7,465.0 222.9,465.0 224.0,471.2 225.2,475.6 226.4,480.0 227.6,476.9 228.8,483.4 230.0,486.9 231.2,477.6 232.3,477.2 233.5,473.8 234.7,465.0 235.9,465.0 237.1,466.3 238.3,473.1 239.4,475.3 240.6,473.1 241.8,467.6 243.0,465.0 244.2,465.0 245.4,465.5 246.5,465.0 247.7,465.0 248.9,465.0 250.1,470.8 251.3,470.8 252.5,466.9 253.6,465.0 254.8,465.0 256.0,470.8 257.2,465.0 258.4,465.0 259.6,467.5 260.7,479.5 261.9,482.0 263.1,485.8 264.3,478.4 265.5,482.1 266.7,487.8 267.9,487.5 269.0,488.0 270.2,483.4 271.4,493.3 272.6,499.4 273.8,505.8 275.0,505.4 276.1,500.0 277.3,502.3 278.5,493.0 279.7,504.6 280.9,498.8 282.1,493.5 283.2,481.4 284.4,477.9 285.6,479.1 286.8,477.5 288.0,481.2 289.2,486.9 290.3,489.5 291.5,488.3 292.7,482.7 293.9,487.4 295.1,486.4 296.3,479.1 297.5,492.4 298.6,491.9 299.8,493.6 301.0,501.3 302.2,515.1 303.4,516.9 304.6,513.5 305.7,525.5 306.9,525.2 308.1,520.5 309.3,522.5 310.5,522.8 311.7,533.7 312.8,527.9 314.0,528.2 315.2,518.6 316.4,513.4 317.6,509.1 318.8,505.7 319.9,510.8 321.1,514.9 322.3,506.3 323.5,506.3 324.7,517.3 325.9,524.5 327.0,534.4 328.2,535.8 329.4,529.8 330.6,541.3 331.8,550.8 333.0,554.4 334.2,545.1 335.3,540.1 336.5,531.6 337.7,516.3 338.9,508.8 340.1,506.9 341.3,504.6 342.4,504.0 343.6,510.4 344.8,497.6 346.0,498.4 347.2,482.2 348.4,480.4 349.5,479.3 350.7,478.3 351.9,471.7 353.1,473.6 354.3,470.3 355.5,469.7 356.6,471.3 357.8,470.4 359.0,471.0 360.2,467.6 361.4,465.0 362.6,469.6 363.8,469.7 364.9,473.2 366.1,466.6 367.3,465.0 368.5,465.0 369.7,465.0 370.9,465.0 372.0,465.0 373.2,469.9 374.4,465.1 375.6,465.0 376.8,477.0 378.0,468.9 379.1,467.2 380.3,465.0 381.5,465.0 382.7,465.0 383.9,467.5 385.1,472.4 386.2,479.4 387.4,482.1 388.6,481.0 389.8,468.8 391.0,470.1 392.2,465.2 393.3,465.6 394.5,465.0 395.7,468.2 396.9,473.0 398.1,465.4 399.3,465.0 400.5,465.0 401.6,465.0 402.8,465.0 404.0,465.0 405.2,466.1 406.4,465.0 407.6,465.7 408.7,479.8 409.9,468.7 411.1,465.0 412.3,468.2 413.5,465.7 414.7,465.0 415.8,465.0 417.0,465.0 418.2,465.4 419.4,477.3 420.6,469.6 421.8,465.0 422.9,469.3 424.1,474.1 425.3,473.3 426.5,465.0 427.7,465.0 428.9,468.2 430.0,466.6 431.2,467.7 432.4,465.0 433.6,465.0 434.8,465.9 436.0,474.6 437.2,470.2 438.3,465.0 439.5,470.2 440.7,471.0 441.9,465.0 443.1,466.4 444.3,468.1 445.4,476.7 446.6,471.6 447.8,466.8 449.0,465.0 450.2,465.0 451.4,466.6 452.5,469.0 453.7,470.6 454.9,465.0 456.1,465.2 457.3,466.7 458.5,472.2 459.6,471.2 460.8,481.8 462.0,472.9 463.2,472.4 464.4,471.4 465.6,480.0 466.8,473.6 467.9,485.5 469.1,496.1 470.3,497.6 471.5,502.5 472.7,504.3 473.9,511.5 475.0,503.9 476.2,494.1 477.4,494.5 478.6,497.7 479.8,489.8 481.0,486.8 482.1,500.2 483.3,502.9 484.5,495.1 485.7,484.7 486.9,476.0 488.1,475.0 489.2,474.9 490.4,470.0 491.6,468.9 492.8,468.8 494.0,465.0 495.2,465.0 496.3,466.8 497.5,465.5 498.7,465.0 499.9,465.0 501.1,467.5 502.3,473.8 503.5,468.1 504.6,467.5 505.8,473.6 507.0,479.3 508.2,471.5 509.4,470.8 510.6,469.9 511.7,465.0 512.9,465.0 514.1,466.1 515.3,465.0 516.5,465.0 517.7,465.0 518.8,465.0 520.0,465.0 521.2,465.0 522.4,465.0 523.6,467.4 524.8,471.3 525.9,474.1 527.1,470.8 528.3,469.7 529.5,468.4 530.7,471.8 531.9,470.0 533.1,465.0 534.2,465.0 535.4,465.0 536.6,465.0 537.8,465.0 539.0,465.0 540.2,472.5 541.3,467.1 542.5,465.0 543.7,465.0 544.9,477.2 546.1,483.8 547.3,489.4 548.4,480.7 549.6,482.0 550.8,501.3 552.0,505.7 553.2,496.4 554.4,495.9 555.5,500.1 556.7,486.6 557.9,498.6 559.1,514.1 560.3,538.0 561.5,530.7 562.6,536.0 563.8,517.6 565.0,514.0 566.2,513.6 567.4,500.1 568.6,497.5 569.8,483.1 570.9,481.2 572.1,473.1 573.3,474.5 574.5,471.5 575.7,478.3 576.9,469.2 578.0,471.3 579.2,470.1 580.4,475.1 581.6,475.0 582.8,466.8 584.0,484.6 585.1,486.4 586.3,488.4 587.5,502.7 588.7,493.4 589.9,489.7 591.1,481.1 592.2,473.9 593.4,469.4 594.6,468.1 595.8,467.8 597.0,470.3 598.2,465.0 599.4,469.2 600.5,467.0 601.7,465.0 602.9,466.9 604.1,465.0 605.3,466.3 606.5,465.0 607.6,472.8 608.8,472.4 610.0,474.0 611.2,466.2 612.4,474.0 613.6,465.9 614.7,465.0 615.9,466.5 617.1,465.0 618.3,465.0 619.5,471.7 620.7,468.0 621.8,467.9 623.0,465.0 624.2,466.4 625.4,466.9 626.6,474.8 627.8,472.9 628.9,473.2 630.1,470.6 631.3,469.2 632.5,471.8 633.7,488.7 634.9,485.1 636.1,487.0 637.2,476.7 638.4,465.0 639.6,465.0 640.8,465.0 642.0,465.0 643.2,467.7 644.3,467.3 645.5,472.8 646.7,483.9 647.9,480.4 649.1,477.3 650.3,477.0 651.4,472.4 652.6,469.7 653.8,466.8 655.0,465.0 656.2,467.6 657.4,465.0 658.5,465.0 659.7,465.0 660.9,465.0 662.1,466.4 663.3,465.0 664.5,469.5 665.6,472.2 666.8,465.5 668.0,470.0 669.2,470.1 670.4,466.5 671.6,470.0 672.8,495.8 673.9,496.0 675.1,488.8 676.3,483.7 677.5,474.3 678.7,474.2 679.9,483.3 681.0,493.0 682.2,496.0 683.4,498.1 684.6,487.7 685.8,482.8 687.0,492.4 688.1,491.2 689.3,504.0 690.5,502.8 691.7,501.6 692.9,486.5 694.1,488.1 695.2,479.6 696.4,471.8 697.6,467.0 698.8,465.0 700.0,467.5 701.2,479.8 702.4,472.4 703.5,476.3 704.7,471.7 705.9,476.3 707.1,482.1 708.3,476.4 709.5,472.9 710.6,469.9 711.8,477.8 713.0,472.0 714.2,471.3 715.4,474.1 716.6,465.0 717.7,465.1 718.9,465.0 720.1,465.0 721.3,468.6 722.5,483.4 723.7,487.3 724.8,491.5 726.0,491.1 727.2,504.5 728.4,491.6 729.6,506.3 730.8,516.1 731.9,507.3 733.1,522.0 734.3,517.4 735.5,539.2 736.7,545.8 737.9,541.6 739.1,552.2 740.2,536.0 741.4,529.9 742.6,538.6 743.8,529.9 745.0,532.2 746.2,534.4 747.3,520.0 748.5,518.1 749.7,527.8 750.9,530.0 752.1,546.1 753.3,540.9 754.4,538.6 755.6,533.6 756.8,573.0 758.0,617.5 759.2,618.8 760.4,630.0 761.5,556.1 762.7,590.2 763.9,576.9 765.1,569.6 766.3,571.7 767.5,588.7 768.7,587.6 769.8,605.3 771.0,586.4 772.2,574.8 773.4,558.9 774.6,553.3 775.8,553.0 776.9,548.0 778.1,547.7 779.3,542.2 780.5,530.4 781.7,535.0 782.9,541.7 784.0,538.4 785.2,532.8 786.4,533.8 787.6,507.4 788.8,502.0 790.0,500.9 791.1,496.8 792.3,491.5 793.5,490.6 794.7,493.5 795.9,507.6 797.1,507.3 798.2,512.9 799.4,495.9 800.6,500.7 801.8,497.4 803.0,498.4 804.2,493.7 805.4,488.9 806.5,489.1 807.7,493.2 808.9,484.5 810.1,483.8 811.3,479.0 812.5,481.4 813.6,478.0 814.8,487.6 816.0,479.5 817.2,486.8 818.4,486.9 819.6,491.4 820.7,483.1 821.9,473.7 823.1,473.2 824.3,466.5 825.5,465.0 826.7,465.0 827.8,465.3 829.0,465.0 830.2,465.0 831.4,471.5 832.6,471.9 833.8,466.8 835.0,465.0 836.1,468.1 837.3,466.4 838.5,470.1 839.7,467.2 840.9,465.0 842.1,465.6 843.2,465.0 844.4,465.0 845.6,465.0 846.8,465.0 848.0,465.0 849.2,465.2 850.3,467.5 851.5,468.6 852.7,471.8 853.9,486.0 855.1,473.1 856.3,477.4 857.4,470.9 858.6,471.6 859.8,465.0 861.0,466.7 862.2,465.0 863.4,465.0 864.5,465.0 865.7,467.0 866.9,467.2 868.1,471.9 869.3,474.2 870.5,477.7 871.7,465.0 872.8,468.8 874.0,465.2 875.2,465.0 876.4,465.0 877.6,470.2 878.8,476.6 879.9,471.9 881.1,465.0 882.3,467.5 883.5,465.4 884.7,465.0 885.9,465.0 887.0,465.0 888.2,465.3 889.4,465.0 890.6,466.2 891.8,467.3 893.0,465.0 894.1,465.0 895.3,465.0 896.5,469.7 897.7,472.5 898.9,476.4 900.1,471.5 901.2,469.1 902.4,465.9 903.6,465.0 904.8,465.0 906.0,465.0 907.2,465.0 908.4,468.2 909.5,465.0 910.7,467.5 911.9,490.9 913.1,478.0 914.3,479.0 915.5,475.2 916.6,481.1 917.8,476.3 919.0,467.3 920.2,467.3 921.4,471.9 922.6,466.7 923.7,465.0 924.9,465.0 926.1,465.0 927.3,465.0 928.5,474.6 929.7,471.7 930.8,470.1 932.0,480.4 933.2,477.4 934.4,486.6 935.6,485.7 936.8,472.5 938.0,470.5 939.1,470.1 940.3,484.4 941.5,484.5 942.7,492.4 943.9,499.5 945.1,496.3 946.2,509.0 947.4,500.8 948.6,488.6 949.8,480.6 951.0,474.7 952.2,470.1 953.3,474.0 954.5,472.4 955.7,469.4 956.9,468.8 958.1,467.1 959.3,469.8 960.4,470.5 961.6,465.0 962.8,465.0 964.0,474.3 965.2,475.6 966.4,478.0 967.5,487.4 968.7,481.0 969.9,475.8 971.1,470.5 972.3,466.5 973.5,465.0 974.7,465.1 975.8,468.2 977.0,469.2 978.2,475.6 979.4,474.1 980.6,468.3 981.8,465.0 982.9,467.8 984.1,467.9 985.3,465.0 986.5,465.0 987.7,466.7 988.9,471.0 990.0,468.6 991.2,469.4 992.4,487.0 993.6,477.2 994.8,472.7 996.0,472.4 997.1,468.0 998.3,465.0 999.5,465.1 1000.7,466.8 1001.9,469.4 1003.1,465.1 1004.3,472.4 1005.4,476.6 1006.6,487.3 1007.8,471.1 1009.0,466.9 1010.2,469.2 1011.4,469.4 1012.5,482.8 1013.7,482.2 1014.9,480.8 1016.1,476.5 1017.3,478.7 1018.5,472.6 1019.6,481.4 1020.8,475.2 1022.0,467.9 1023.2,472.7 1024.4,476.9 1025.6,476.4 1026.7,483.9 1027.9,477.9 1029.1,482.7 1030.3,493.9 1031.5,486.5 1032.7,487.9 1033.8,488.9 1035.0,501.7 1036.2,506.5 1037.4,498.0 1038.6,495.8 1039.8,507.5 1041.0,509.6 1042.1,523.6 1043.3,515.1 1044.5,517.8 1045.7,513.3 1046.9,527.9 1048.1,541.7 1049.2,544.3 1050.4,521.4 1051.6,515.3 1052.8,514.5 1054.0,510.7 1055.2,510.3 1056.3,489.3 1057.5,484.5 1058.7,485.0 1059.9,476.7 1061.1,466.3 1062.3,465.0 1063.4,465.0 1064.6,465.0 1065.8,466.7 1067.0,472.4 1068.2,465.0 1069.4,468.4 1070.6,465.0 1071.7,465.0 1072.9,469.2 1074.1,469.4 1075.3,465.0 1076.5,465.0 1077.7,468.2 1078.8,465.0 1080.0,465.0 1081.2,467.7 1082.4,465.0 1083.6,465.0 1084.8,466.3 1085.9,465.0 1087.1,465.0 1088.3,475.4 1089.5,476.1 1090.7,481.8 1091.9,473.0 1093.0,471.3 1094.2,467.9 1095.4,465.0 1096.6,465.2 1097.8,465.0 1099.0,465.0 1100.1,465.0 1101.3,465.0 1102.5,471.1 1103.7,467.8 1104.9,490.2 1106.1,488.3 1107.3,490.7 1108.4,504.0 1109.6,489.9 1110.8,485.4 1112.0,470.4 1113.2,475.6 1114.4,486.3 1115.5,479.7 1116.7,482.4 1117.9,494.7 1119.1,495.1 1120.3,493.9 1121.5,500.0 1122.6,486.2 1123.8,479.6 1125.0,480.8 1126.2,481.9 1127.4,474.5 1128.6,478.6 1129.7,481.2 1130.9,474.0 1132.1,470.3 1133.3,476.9 1134.5,473.8 1135.7,470.4 1136.9,475.1 1138.0,483.6 1139.2,485.0 1140.4,477.9 1141.6,478.9 1142.8,489.5 1144.0,488.6 1145.1,488.4 1146.3,486.4 1147.5,499.4 1148.7,485.4 1149.9,479.3 1151.1,467.2 1152.2,465.0 1153.4,466.7 1154.6,468.1 1155.8,465.0 1157.0,465.3 1158.2,468.0 1159.3,465.9 1160.5,465.0 1161.7,466.7 1162.9,470.8 1164.1,476.6 1165.3,474.8 1166.4,481.9 1167.6,478.8 1168.8,481.1 1170.0,478.5"/><line x1="95" x2="125" y1="70" y2="70" stroke="#c45a24" stroke-width="3"/><text x="133" y="75" font-size="14">Current Production + cash-yield scenario</text><line x1="615" x2="645" y1="70" y2="70" stroke="#8b5a3c" stroke-width="3"/><text x="653" y="75" font-size="14">Production without Systematic Premium Pilot + cash yield</text><line x1="95" x2="125" y1="94" y2="94" stroke="#234a76" stroke-width="3"/><text x="133" y="99" font-size="14">Intraday only + cash yield</text><line x1="615" x2="645" y1="94" y2="94" stroke="#777777" stroke-width="3"/><text x="653" y="99" font-size="14">SPY Buy &amp; Hold</text><line class="g" x1="95.0" x2="95.0" y1="55" y2="630"/><text x="95.0" y="658" font-size="13" text-anchor="middle">2023</text><line class="g" x1="385.0605726872247" x2="385.0605726872247" y1="55" y2="630"/><text x="385.0605726872247" y="658" font-size="13" text-anchor="middle">2024</text><line class="g" x1="683.4085903083701" x2="683.4085903083701" y1="55" y2="630"/><text x="683.4085903083701" y="658" font-size="13" text-anchor="middle">2025</text><line class="g" x1="979.3887665198238" x2="979.3887665198238" y1="55" y2="630"/><text x="979.3887665198238" y="658" font-size="13" text-anchor="middle">2026</text></svg>