<svg xmlns="http://www.w3.org/2000/svg" width="1200" height="700" viewBox="0 0 1200 700"><rect width="100%" height="100%" fill="white"/><style>text{font-family:Arial,sans-serif;fill:#263238}.g{stroke:#d8dde2;stroke-width:1}</style><text x="95" y="30" font-size="22" font-weight="700">Foxchase — Current Production + One-Spread Pilot</text><line class="g" x1="95" x2="1170" y1="420.0" y2="420.0"/><text x="85" y="425.0" font-size="13" text-anchor="end">$6,229</text><line class="g" x1="95" x2="1170" y1="347.0" y2="347.0"/><text x="85" y="352.0" font-size="13" text-anchor="end">$17,726</text><line class="g" x1="95" x2="1170" y1="274.0" y2="274.0"/><text x="85" y="279.0" font-size="13" text-anchor="end">$29,223</text><line class="g" x1="95" x2="1170" y1="201.0" y2="201.0"/><text x="85" y="206.0" font-size="13" text-anchor="end">$40,720</text><line class="g" x1="95" x2="1170" y1="128.0" y2="128.0"/><text x="85" y="133.0" font-size="13" text-anchor="end">$52,217</text><line class="g" x1="95" x2="1170" y1="54.99999999999991" y2="54.99999999999991"/><text x="85" y="59.99999999999991" font-size="13" text-anchor="end">$63,714</text><line class="g" x1="95" x2="1170" y1="630.0" y2="630.0"/><text x="85" y="635.0" font-size="13" text-anchor="end">-14%</text><line class="g" x1="95" x2="1170" y1="588.75" y2="588.75"/><text x="85" y="593.75" font-size="13" text-anchor="end">-11%</text><line class="g" x1="95" x2="1170" y1="547.5" y2="547.5"/><text x="85" y="552.5" font-size="13" text-anchor="end">-7%</text><line class="g" x1="95" x2="1170" y1="506.25" y2="506.25"/><text x="85" y="511.25" font-size="13" text-anchor="end">-4%</text><line class="g" x1="95" x2="1170" y1="465.0" y2="465.0"/><text x="85" y="470.0" font-size="13" text-anchor="end">0%</text><polyline fill="none" stroke="#c45a24" stroke-width="2.5" points="95.0,396.0 96.2,395.9 97.4,395.7 98.6,395.7 99.7,395.7 100.9,395.1 102.1,394.9 103.3,394.7 104.5,394.6 105.7,394.9 106.8,394.4 108.0,394.4 109.2,394.3 110.4,394.7 111.6,394.3 112.8,393.6 113.9,393.4 115.1,393.7 116.3,393.9 117.5,393.3 118.7,393.9 119.9,394.3 121.0,394.3 122.2,393.6 123.4,393.4 124.6,393.1 125.8,393.8 127.0,393.9 128.1,395.2 129.3,395.5 130.5,395.9 131.7,397.2 132.9,396.6 134.1,396.9 135.3,397.6 136.4,396.6 137.6,393.3 138.8,393.0 140.0,391.6 141.2,391.5 142.4,391.8 143.5,392.0 144.7,392.2 145.9,391.7 147.1,391.7 148.3,391.0 149.5,389.9 150.6,389.5 151.8,389.1 153.0,389.1 154.2,389.1 155.4,389.2 156.6,389.3 157.7,389.3 158.9,388.8 160.1,388.6 161.3,388.5 162.5,388.4 163.7,388.3 164.9,388.4 166.0,388.3 167.2,388.3 168.4,388.4 169.6,389.4 170.8,389.2 172.0,389.2 173.1,389.2 174.3,389.1 175.5,389.1 176.7,389.3 177.9,389.2 179.1,389.2 180.2,389.9 181.4,390.8 182.6,390.7 183.8,390.3 185.0,390.2 186.2,390.5 187.3,390.8 188.5,390.4 189.7,389.4 190.9,389.3 192.1,389.6 193.3,389.2 194.4,389.4 195.6,389.7 196.8,389.6 198.0,389.7 199.2,389.5 200.4,389.5 201.6,389.5 202.7,389.5 203.9,389.9 205.1,390.0 206.3,389.1 207.5,388.5 208.7,388.5 209.8,388.2 211.0,387.9 212.2,387.7 213.4,388.0 214.6,387.6 215.8,388.0 216.9,388.2 218.1,388.1 219.3,387.7 220.5,387.6 221.7,387.5 222.9,387.4 224.0,387.3 225.2,387.0 226.4,387.2 227.6,386.9 228.8,387.6 230.0,387.9 231.2,387.2 232.3,387.2 233.5,387.0 234.7,386.7 235.9,386.6 237.1,386.7 238.3,386.9 239.4,387.0 240.6,386.9 241.8,386.6 243.0,386.1 244.2,385.9 245.4,385.9 246.5,385.9 247.7,386.7 248.9,386.7 250.1,387.1 251.3,387.1 252.5,386.9 253.6,386.8 254.8,386.7 256.0,386.7 257.2,386.3 258.4,386.3 259.6,386.4 260.7,387.5 261.9,387.6 263.1,387.8 264.3,387.2 265.5,387.3 266.7,387.6 267.9,387.4 269.0,388.8 270.2,388.2 271.4,388.8 272.6,389.6 273.8,390.5 275.0,390.6 276.1,390.1 277.3,390.2 278.5,388.7 279.7,390.7 280.9,388.6 282.1,387.8 283.2,387.1 284.4,387.0 285.6,387.0 286.8,387.4 288.0,387.3 289.2,387.5 290.3,387.7 291.5,387.5 292.7,387.2 293.9,387.5 295.1,387.9 296.3,387.5 297.5,387.9 298.6,388.0 299.8,387.7 301.0,388.6 302.2,390.4 303.4,390.7 304.6,390.2 305.7,391.3 306.9,391.5 308.1,391.8 309.3,392.8 310.5,392.5 311.7,392.8 312.8,392.4 314.0,393.3 315.2,391.4 316.4,390.9 317.6,390.4 318.8,389.9 319.9,390.7 321.1,391.8 322.3,391.9 323.5,391.9 324.7,392.5 325.9,393.2 327.0,392.9 328.2,393.0 329.4,392.3 330.6,394.9 331.8,396.3 333.0,396.4 334.2,395.6 335.3,395.1 336.5,394.1 337.7,393.0 338.9,392.9 340.1,393.0 341.3,392.8 342.4,393.1 343.6,393.5 344.8,393.0 346.0,393.1 347.2,392.7 348.4,392.7 349.5,392.6 350.7,392.6 351.9,392.4 353.1,392.4 354.3,392.2 355.5,392.2 356.6,392.1 357.8,392.5 359.0,392.6 360.2,392.5 361.4,392.2 362.6,392.5 363.8,392.4 364.9,392.8 366.1,392.2 367.3,391.9 368.5,391.1 369.7,391.1 370.9,391.1 372.0,391.1 373.2,391.1 374.4,391.1 375.6,390.3 376.8,390.3 378.0,389.4 379.1,389.4 380.3,389.4 381.5,389.4 382.7,389.4 383.9,389.4 385.1,389.4 386.2,389.2 387.4,389.4 388.6,389.3 389.8,388.8 391.0,388.8 392.2,388.7 393.3,388.7 394.5,389.9 395.7,390.3 396.9,390.5 398.1,390.1 399.3,389.8 400.5,389.4 401.6,389.6 402.8,389.3 404.0,388.7 405.2,388.8 406.4,388.7 407.6,388.8 408.7,388.6 409.9,388.1 411.1,387.6 412.3,387.7 413.5,387.7 414.7,387.5 415.8,387.5 417.0,387.4 418.2,387.4 419.4,387.4 420.6,387.2 421.8,387.2 422.9,387.2 424.1,387.3 425.3,387.3 426.5,386.5 427.7,386.5 428.9,386.5 430.0,386.3 431.2,386.5 432.4,386.2 433.6,385.8 434.8,385.7 436.0,385.3 437.2,385.3 438.3,385.3 439.5,385.3 440.7,385.5 441.9,385.1 443.1,385.2 444.3,384.4 445.4,385.3 446.6,384.9 447.8,384.7 449.0,384.4 450.2,384.4 451.4,384.4 452.5,384.4 453.7,384.5 454.9,384.2 456.1,384.3 457.3,384.3 458.5,384.5 459.6,384.4 460.8,385.5 462.0,384.7 463.2,384.5 464.4,383.8 465.6,384.5 466.8,383.7 467.9,384.9 469.1,384.6 470.3,383.8 471.5,386.2 472.7,386.8 473.9,388.2 475.0,387.4 476.2,385.6 477.4,385.6 478.6,386.4 479.8,385.0 481.0,384.9 482.1,385.8 483.3,386.0 484.5,388.7 485.7,386.8 486.9,386.6 488.1,386.6 489.2,386.6 490.4,386.4 491.6,386.4 492.8,386.3 494.0,386.1 495.2,385.8 496.3,385.8 497.5,385.9 498.7,385.9 499.9,385.8 501.1,386.0 502.3,387.1 503.5,386.5 504.6,386.4 505.8,387.1 507.0,387.9 508.2,386.6 509.4,386.5 510.6,386.4 511.7,385.5 512.9,385.5 514.1,385.4 515.3,385.3 516.5,385.2 517.7,385.0 518.8,384.8 520.0,384.8 521.2,384.6 522.4,384.5 523.6,384.1 524.8,383.4 525.9,383.7 527.1,383.4 528.3,382.0 529.5,381.7 530.7,381.7 531.9,383.5 533.1,383.5 534.2,383.5 535.4,383.5 536.6,383.6 537.8,382.7 539.0,382.7 540.2,382.0 541.3,382.0 542.5,382.2 543.7,381.1 544.9,380.6 546.1,380.3 547.3,380.3 548.4,380.4 549.6,379.5 550.8,379.5 552.0,379.5 553.2,379.5 554.4,379.8 555.5,378.6 556.7,378.6 557.9,377.7 559.1,375.8 560.3,376.1 561.5,375.3 562.6,375.3 563.8,375.3 565.0,375.3 566.2,375.4 567.4,374.5 568.6,374.5 569.8,374.5 570.9,374.5 572.1,374.4 573.3,373.0 574.5,373.0 575.7,372.1 576.9,372.1 578.0,371.6 579.2,371.4 580.4,372.0 581.6,372.0 582.8,372.0 584.0,371.3 585.1,371.3 586.3,370.8 587.5,369.1 588.7,369.3 589.9,369.6 591.1,369.6 592.2,369.6 593.4,369.6 594.6,369.7 595.8,368.3 597.0,368.3 598.2,368.3 599.4,367.4 600.5,367.0 601.7,366.2 602.9,366.2 604.1,366.2 605.3,366.2 606.5,366.2 607.6,362.2 608.8,362.2 610.0,362.2 611.2,362.2 612.4,362.6 613.6,361.5 614.7,361.5 615.9,361.5 617.1,361.5 618.3,361.6 619.5,360.0 620.7,360.0 621.8,359.0 623.0,359.0 624.2,359.0 625.4,358.1 626.6,356.4 627.8,356.4 628.9,356.4 630.1,356.5 631.3,356.6 632.5,356.6 633.7,356.6 634.9,356.6 636.1,356.3 637.2,355.3 638.4,355.3 639.6,355.3 640.8,355.3 642.0,355.4 643.2,354.4 644.3,353.9 645.5,353.9 646.7,355.0 647.9,354.4 649.1,353.5 650.3,353.5 651.4,353.5 652.6,353.5 653.8,353.7 655.0,352.7 656.2,352.3 657.4,352.3 658.5,352.3 659.7,352.3 660.9,352.3 662.1,352.3 663.3,352.3 664.5,351.8 665.6,351.0 666.8,350.4 668.0,350.4 669.2,350.4 670.4,350.4 671.6,349.3 672.8,349.3 673.9,349.3 675.1,349.4 676.3,348.9 677.5,348.9 678.7,348.9 679.9,347.9 681.0,348.1 682.2,347.2 683.4,346.3 684.6,346.3 685.8,346.3 687.0,344.2 688.1,344.6 689.3,343.7 690.5,343.7 691.7,341.1 692.9,341.1 694.1,341.1 695.2,341.1 696.4,341.3 697.6,340.4 698.8,340.4 700.0,339.9 701.2,340.0 702.4,339.5 703.5,339.5 704.7,339.5 705.9,339.5 707.1,340.2 708.3,339.6 709.5,339.6 710.6,339.6 711.8,339.6 713.0,339.8 714.2,338.4 715.4,338.4 716.6,338.0 717.7,338.0 718.9,337.3 720.1,336.3 721.3,333.9 722.5,331.1 723.7,336.5 724.8,332.9 726.0,330.7 727.2,324.5 728.4,324.5 729.6,324.5 730.8,320.0 731.9,319.5 733.1,319.5 734.3,319.5 735.5,319.9 736.7,318.7 737.9,322.1 739.1,319.7 740.2,319.7 741.4,319.8 742.6,316.8 743.8,316.8 745.0,316.8 746.2,318.1 747.3,317.6 748.5,316.6 749.7,314.9 750.9,314.9 752.1,312.2 753.3,312.2 754.4,310.9 755.6,311.8 756.8,309.4 758.0,309.5 759.2,311.0 760.4,308.8 761.5,307.5 762.7,307.5 763.9,307.5 765.1,307.7 766.3,306.7 767.5,306.7 768.7,306.7 769.8,306.9 771.0,305.8 772.2,305.8 773.4,305.8 774.6,305.8 775.8,305.9 776.9,304.9 778.1,305.1 779.3,304.6 780.5,304.6 781.7,304.7 782.9,305.0 784.0,304.3 785.2,304.3 786.4,304.3 787.6,304.3 788.8,303.5 790.0,303.5 791.1,303.5 792.3,303.0 793.5,303.0 794.7,301.7 795.9,302.0 797.1,301.2 798.2,300.7 799.4,300.2 800.6,300.2 801.8,302.9 803.0,302.9 804.2,302.4 805.4,302.4 806.5,302.4 807.7,302.4 808.9,302.4 810.1,302.5 811.3,301.6 812.5,301.6 813.6,301.7 814.8,301.7 816.0,299.4 817.2,298.7 818.4,298.1 819.6,300.1 820.7,299.6 821.9,298.9 823.1,298.9 824.3,298.9 825.5,298.9 826.7,298.9 827.8,298.0 829.0,298.0 830.2,298.0 831.4,298.1 832.6,297.3 833.8,296.7 835.0,296.7 836.1,297.2 837.3,296.7 838.5,295.4 839.7,297.5 840.9,297.0 842.1,296.5 843.2,296.6 844.4,298.9 845.6,298.9 846.8,298.9 848.0,298.9 849.2,299.1 850.3,298.2 851.5,297.3 852.7,297.3 853.9,294.7 855.1,294.2 856.3,294.2 857.4,294.2 858.6,292.6 859.8,292.6 861.0,292.8 862.2,292.6 863.4,292.6 864.5,292.7 865.7,292.1 866.9,292.1 868.1,294.2 869.3,293.0 870.5,289.5 871.7,289.5 872.8,289.0 874.0,289.0 875.2,288.5 876.4,288.5 877.6,285.6 878.8,285.5 879.9,285.1 881.1,285.1 882.3,283.4 883.5,283.5 884.7,283.8 885.9,283.8 887.0,283.8 888.2,283.9 889.4,283.4 890.6,283.4 891.8,285.5 893.0,285.1 894.1,285.1 895.3,284.6 896.5,284.6 897.7,285.9 898.9,286.3 900.1,285.8 901.2,286.1 902.4,285.2 903.6,284.7 904.8,283.7 906.0,283.7 907.2,283.9 908.4,282.5 909.5,282.5 910.7,281.4 911.9,275.2 913.1,275.3 914.3,274.5 915.5,274.5 916.6,274.5 917.8,273.4 919.0,273.0 920.2,272.3 921.4,267.5 922.6,267.5 923.7,267.5 924.9,267.6 926.1,266.7 927.3,266.7 928.5,266.7 929.7,266.7 930.8,269.9 932.0,270.0 933.2,269.5 934.4,266.6 935.6,262.5 936.8,262.2 938.0,261.3 939.1,261.3 940.3,256.0 941.5,256.1 942.7,260.5 943.9,252.5 945.1,252.0 946.2,252.0 947.4,249.7 948.6,249.2 949.8,248.4 951.0,248.4 952.2,248.4 953.3,248.5 954.5,247.9 955.7,247.9 956.9,246.0 958.1,246.0 959.3,242.4 960.4,241.4 961.6,240.2 962.8,239.8 964.0,236.9 965.2,231.8 966.4,227.1 967.5,223.0 968.7,223.0 969.9,223.0 971.1,222.7 972.3,221.8 973.5,221.8 974.7,221.8 975.8,222.0 977.0,220.6 978.2,219.3 979.4,224.9 980.6,224.9 981.8,224.9 982.9,224.5 984.1,224.9 985.3,224.4 986.5,224.5 987.7,223.2 988.9,217.7 990.0,217.3 991.2,224.1 992.4,224.6 993.6,223.0 994.8,222.5 996.0,222.5 997.1,222.2 998.3,220.8 999.5,218.3 1000.7,209.9 1001.9,209.9 1003.1,209.9 1004.3,206.2 1005.4,206.2 1006.6,199.5 1007.8,198.9 1009.0,198.7 1010.2,197.9 1011.4,197.9 1012.5,191.6 1013.7,191.6 1014.9,192.2 1016.1,191.0 1017.3,191.0 1018.5,191.0 1019.6,184.6 1020.8,184.6 1022.0,184.6 1023.2,180.5 1024.4,182.6 1025.6,182.6 1026.7,177.8 1027.9,177.3 1029.1,173.3 1030.3,177.5 1031.5,179.2 1032.7,177.9 1033.8,177.9 1035.0,174.7 1036.2,169.8 1037.4,169.4 1038.6,168.4 1039.8,168.4 1041.0,168.4 1042.1,160.3 1043.3,160.0 1044.5,158.9 1045.7,158.9 1046.9,159.1 1048.1,158.4 1049.2,158.4 1050.4,158.4 1051.6,158.4 1052.8,158.4 1054.0,157.8 1055.2,157.8 1056.3,157.8 1057.5,157.8 1058.7,157.8 1059.9,157.9 1061.1,156.7 1062.3,156.7 1063.4,156.7 1064.6,156.7 1065.8,156.8 1067.0,152.9 1068.2,152.9 1069.4,153.1 1070.6,152.5 1071.7,152.6 1072.9,151.7 1074.1,152.6 1075.3,152.6 1076.5,152.6 1077.7,152.8 1078.8,151.8 1080.0,151.8 1081.2,151.8 1082.4,151.8 1083.6,146.1 1084.8,146.2 1085.9,146.1 1087.1,146.1 1088.3,145.8 1089.5,146.0 1090.7,146.3 1091.9,145.8 1093.0,145.6 1094.2,145.4 1095.4,145.3 1096.6,149.3 1097.8,149.0 1099.0,148.8 1100.1,148.6 1101.3,148.5 1102.5,143.8 1103.7,143.7 1104.9,141.2 1106.1,138.7 1107.3,126.7 1108.4,127.4 1109.6,125.4 1110.8,123.3 1112.0,121.5 1113.2,121.3 1114.4,123.5 1115.5,120.9 1116.7,117.0 1117.9,120.9 1119.1,130.6 1120.3,104.6 1121.5,113.6 1122.6,112.4 1123.8,110.8 1125.0,110.6 1126.2,108.2 1127.4,106.7 1128.6,100.2 1129.7,94.3 1130.9,93.5 1132.1,92.6 1133.3,94.1 1134.5,93.0 1135.7,95.8 1136.9,96.5 1138.0,97.7 1139.2,100.7 1140.4,97.3 1141.6,96.3 1142.8,101.4 1144.0,101.9 1145.1,103.0 1146.3,105.4 1147.5,101.5 1148.7,92.3 1149.9,89.6 1151.1,88.7 1152.2,88.2 1153.4,82.4 1154.6,82.4 1155.8,82.2 1157.0,82.2 1158.2,77.4 1159.3,77.4 1160.5,77.4 1161.7,77.4 1162.9,77.4 1164.1,77.4 1165.3,77.4 1166.4,80.1 1167.6,80.0 1168.8,80.0 1170.0,81.9"/><polyline fill="none" stroke="#c45a24" stroke-width="2" points="95.0,465.0 96.2,465.0 97.4,465.0 98.6,465.0 99.7,465.0 100.9,465.0 102.1,465.0 103.3,465.0 104.5,465.0 105.7,470.9 106.8,465.0 108.0,465.0 109.2,465.0 110.4,472.1 111.6,465.2 112.8,465.0 113.9,465.0 115.1,469.1 116.3,473.5 117.5,465.0 118.7,474.4 119.9,482.4 121.0,481.2 122.2,470.4 123.4,465.3 124.6,465.0 125.8,477.8 127.0,478.6 128.1,502.0 129.3,506.9 130.5,514.5 131.7,535.5 132.9,526.3 134.1,531.5 135.3,543.0 136.4,526.4 137.6,468.1 138.8,465.0 140.0,465.0 141.2,465.0 142.4,470.1 143.5,473.7 144.7,475.9 145.9,467.6 147.1,468.1 148.3,465.0 149.5,465.0 150.6,465.0 151.8,465.0 153.0,465.0 154.2,465.0 155.4,465.9 156.6,468.0 157.7,468.4 158.9,465.0 160.1,465.0 161.3,465.0 162.5,465.0 163.7,465.0 164.9,467.5 166.0,465.3 167.2,465.1 168.4,466.2 169.6,483.7 170.8,480.0 172.0,479.9 173.1,479.2 174.3,478.0 175.5,478.0 176.7,480.7 177.9,479.9 179.1,479.8 180.2,490.9 181.4,505.8 182.6,504.6 183.8,497.4 185.0,495.5 186.2,501.1 187.3,504.9 188.5,499.9 189.7,483.6 190.9,481.8 192.1,486.0 193.3,479.8 194.4,483.3 195.6,488.6 196.8,486.5 198.0,488.0 199.2,485.1 200.4,484.2 201.6,484.2 202.7,485.2 203.9,491.1 205.1,492.0 206.3,477.8 207.5,468.9 208.7,468.0 209.8,465.0 211.0,465.0 212.2,465.0 213.4,469.4 214.6,465.0 215.8,470.7 216.9,473.4 218.1,471.8 219.3,466.3 220.5,465.0 221.7,465.0 222.9,465.0 224.0,465.0 225.2,465.0 226.4,468.8 227.6,465.0 228.8,476.7 230.0,481.9 231.2,470.2 232.3,469.9 233.5,467.7 234.7,465.0 235.9,465.0 237.1,465.5 238.3,469.6 239.4,471.3 240.6,468.8 241.8,465.0 243.0,465.0 244.2,465.0 245.4,465.0 246.5,465.0 247.7,477.5 248.9,477.8 250.1,485.1 251.3,485.0 252.5,481.6 253.6,479.3 254.8,478.4 256.0,477.4 257.2,472.3 258.4,472.1 259.6,472.8 260.7,490.2 261.9,492.0 263.1,495.5 264.3,486.3 265.5,487.2 266.7,491.5 267.9,489.2 269.0,511.5 270.2,501.6 271.4,511.0 272.6,524.0 273.8,537.5 275.0,539.2 276.1,532.0 277.3,532.7 278.5,509.7 279.7,541.0 280.9,508.2 282.1,496.0 283.2,483.7 284.4,482.6 285.6,482.3 286.8,488.7 288.0,488.2 289.2,490.5 290.3,493.1 291.5,491.2 292.7,485.7 293.9,491.5 295.1,497.2 296.3,490.4 297.5,497.1 298.6,499.1 299.8,493.2 301.0,508.3 302.2,536.2 303.4,540.7 304.6,533.3 305.7,550.9 306.9,552.9 308.1,558.4 309.3,573.6 310.5,568.9 311.7,574.5 312.8,567.5 314.0,581.9 315.2,552.4 316.4,544.5 317.6,536.8 318.8,527.9 319.9,540.9 321.1,558.8 322.3,559.3 323.5,560.4 324.7,569.6 325.9,580.6 327.0,575.2 328.2,576.4 329.4,566.8 330.6,607.6 331.8,629.6 333.0,630.0 334.2,618.7 335.3,610.1 336.5,594.6 337.7,577.4 338.9,576.1 340.1,576.8 341.3,574.8 342.4,578.8 343.6,584.9 344.8,577.6 346.0,578.2 347.2,572.0 348.4,572.0 349.5,571.4 350.7,570.8 351.9,568.1 353.1,567.2 354.3,564.8 355.5,565.0 356.6,562.4 357.8,569.3 359.0,570.5 360.2,569.0 361.4,564.9 362.6,570.0 363.8,568.5 364.9,573.7 366.1,564.6 367.3,559.3 368.5,547.5 369.7,547.5 370.9,547.5 372.0,547.5 373.2,547.5 374.4,547.7 375.6,534.2 376.8,534.2 378.0,520.7 379.1,520.7 380.3,520.7 381.5,520.7 382.7,520.7 383.9,520.7 385.1,520.7 386.2,517.9 387.4,521.3 388.6,519.6 389.8,510.8 391.0,510.6 392.2,509.3 393.3,509.3 394.5,528.4 395.7,535.0 396.9,537.2 398.1,532.1 399.3,527.1 400.5,520.3 401.6,524.0 402.8,518.5 404.0,510.3 405.2,511.7 406.4,509.5 407.6,511.3 408.7,508.1 409.9,499.7 411.1,492.9 412.3,493.3 413.5,493.4 414.7,491.0 415.8,490.8 417.0,489.1 418.2,488.5 419.4,489.2 420.6,486.7 421.8,485.3 422.9,486.3 424.1,488.0 425.3,488.0 426.5,474.9 427.7,474.9 428.9,474.7 430.0,472.1 431.2,474.7 432.4,469.6 433.6,465.0 434.8,465.0 436.0,465.0 437.2,465.0 438.3,465.0 439.5,465.0 440.7,468.1 441.9,465.0 443.1,466.5 444.3,465.0 445.4,480.0 446.6,473.6 447.8,469.6 449.0,466.0 450.2,465.2 451.4,465.0 452.5,466.4 453.7,467.5 454.9,465.0 456.1,465.6 457.3,465.5 458.5,469.4 459.6,468.2 460.8,483.8 462.0,471.5 463.2,469.1 464.4,465.0 465.6,475.1 466.8,465.0 467.9,482.6 469.1,478.1 470.3,466.6 471.5,502.7 472.7,511.2 473.9,532.8 475.0,520.9 476.2,493.0 477.4,492.8 478.6,505.7 479.8,483.7 481.0,482.1 482.1,495.9 483.3,499.3 484.5,540.3 485.7,511.6 486.9,508.8 488.1,508.7 489.2,508.9 490.4,506.3 491.6,505.3 492.8,504.8 494.0,501.6 495.2,496.9 496.3,496.9 497.5,498.7 498.7,498.8 499.9,496.4 501.1,498.9 502.3,516.2 503.5,506.6 504.6,505.1 505.8,516.2 507.0,528.0 508.2,509.3 509.4,507.7 510.6,506.0 511.7,491.7 512.9,491.2 514.1,490.5 515.3,489.5 516.5,486.8 517.7,484.1 518.8,481.8 520.0,481.3 521.2,478.0 522.4,477.1 523.6,471.1 524.8,465.0 525.9,469.5 527.1,465.0 528.3,465.0 529.5,465.0 530.7,465.0 531.9,491.6 533.1,491.6 534.2,491.6 535.4,491.6 536.6,493.1 537.8,479.2 539.0,479.2 540.2,469.6 541.3,469.6 542.5,471.7 543.7,465.0 544.9,465.0 546.1,465.0 547.3,465.0 548.4,466.3 549.6,465.0 550.8,465.0 552.0,465.0 553.2,465.0 554.4,468.6 555.5,465.0 556.7,465.0 557.9,465.0 559.1,465.0 560.3,468.1 561.5,465.0 562.6,465.0 563.8,465.0 565.0,465.0 566.2,465.9 567.4,465.0 568.6,465.0 569.8,465.0 570.9,465.0 572.1,465.0 573.3,465.0 574.5,465.1 575.7,465.0 576.9,465.0 578.0,465.0 579.2,465.0 580.4,472.3 581.6,472.3 582.8,472.3 584.0,465.0 585.1,465.0 586.3,465.0 587.5,465.0 588.7,466.8 589.9,471.2 591.1,471.2 592.2,471.2 593.4,471.2 594.6,472.2 595.8,465.0 597.0,465.0 598.2,465.0 599.4,465.0 600.5,465.0 601.7,465.0 602.9,465.0 604.1,465.0 605.3,465.0 606.5,465.6 607.6,465.0 608.8,465.0 610.0,465.0 611.2,465.0 612.4,468.8 613.6,465.0 614.7,465.0 615.9,465.0 617.1,465.0 618.3,466.0 619.5,465.0 620.7,465.0 621.8,465.0 623.0,465.0 624.2,465.8 625.4,465.0 626.6,465.0 627.8,465.0 628.9,465.0 630.1,466.8 631.3,467.2 632.5,467.2 633.7,467.2 634.9,467.2 636.1,465.0 637.2,465.0 638.4,465.0 639.6,465.0 640.8,465.0 642.0,465.5 643.2,465.0 644.3,465.0 645.5,465.0 646.7,476.4 647.9,470.4 649.1,465.0 650.3,465.0 651.4,465.0 652.6,465.0 653.8,466.5 655.0,465.0 656.2,465.0 657.4,465.0 658.5,465.0 659.7,465.0 660.9,465.0 662.1,465.0 663.3,465.0 664.5,465.0 665.6,465.0 666.8,465.0 668.0,465.0 669.2,465.0 670.4,465.3 671.6,465.0 672.8,465.0 673.9,465.0 675.1,465.1 676.3,465.0 677.5,465.0 678.7,465.0 679.9,465.0 681.0,467.1 682.2,465.0 683.4,465.0 684.6,465.0 685.8,465.0 687.0,465.0 688.1,469.2 689.3,465.0 690.5,465.0 691.7,465.0 692.9,465.0 694.1,465.0 695.2,465.0 696.4,466.2 697.6,465.0 698.8,465.0 700.0,465.0 701.2,465.4 702.4,465.0 703.5,465.0 704.7,465.0 705.9,465.0 707.1,471.6 708.3,466.4 709.5,466.4 710.6,466.4 711.8,466.4 713.0,467.9 714.2,465.0 715.4,465.2 716.6,465.0 717.7,465.0 718.9,465.0 720.1,465.0 721.3,465.0 722.5,465.0 723.7,513.8 724.8,481.6 726.0,465.0 727.2,465.0 728.4,465.0 729.6,465.0 730.8,465.0 731.9,465.0 733.1,465.0 734.3,465.0 735.5,468.0 736.7,465.0 737.9,493.5 739.1,473.4 740.2,473.4 741.4,474.1 742.6,465.0 743.8,465.0 745.0,465.0 746.2,475.4 747.3,471.4 748.5,465.0 749.7,465.0 750.9,465.0 752.1,465.0 753.3,465.3 754.4,465.0 755.6,472.1 756.8,465.0 758.0,465.9 759.2,477.5 760.4,465.0 761.5,465.0 762.7,465.0 763.9,465.0 765.1,466.7 766.3,465.0 767.5,465.0 768.7,465.0 769.8,466.8 771.0,465.0 772.2,465.0 773.4,465.0 774.6,465.0 775.8,466.0 776.9,465.0 778.1,465.8 779.3,465.0 780.5,465.0 781.7,465.8 782.9,468.0 784.0,465.0 785.2,465.0 786.4,465.0 787.6,465.1 788.8,465.0 790.0,465.0 791.1,465.0 792.3,465.0 793.5,465.0 794.7,465.0 795.9,467.0 797.1,465.0 798.2,465.0 799.4,465.0 800.6,465.0 801.8,484.9 803.0,485.2 804.2,481.4 805.4,481.4 806.5,481.4 807.7,481.4 808.9,481.4 810.1,481.9 811.3,475.8 812.5,475.8 813.6,476.0 814.8,476.5 816.0,465.0 817.2,465.0 818.4,465.0 819.6,479.2 820.7,475.8 821.9,470.5 823.1,470.5 824.3,470.5 825.5,470.5 826.7,470.5 827.8,465.0 829.0,465.0 830.2,465.0 831.4,466.1 832.6,465.0 833.8,465.0 835.0,465.1 836.1,468.2 837.3,465.0 838.5,465.0 839.7,479.9 840.9,476.6 842.1,472.8 843.2,473.5 844.4,490.0 845.6,490.0 846.8,490.0 848.0,490.0 849.2,490.8 850.3,484.7 851.5,478.5 852.7,478.5 853.9,465.0 855.1,465.0 856.3,465.0 857.4,465.0 858.6,465.0 859.8,465.0 861.0,466.2 862.2,465.0 863.4,465.0 864.5,465.3 865.7,465.0 866.9,465.3 868.1,479.4 869.3,471.5 870.5,465.0 871.7,465.4 872.8,465.0 874.0,465.0 875.2,465.0 876.4,465.0 877.6,465.0 878.8,465.0 879.9,465.0 881.1,465.0 882.3,465.0 883.5,465.8 884.7,467.9 885.9,467.9 887.0,467.9 888.2,468.3 889.4,465.0 890.6,465.0 891.8,479.3 893.0,476.1 894.1,476.2 895.3,473.2 896.5,473.2 897.7,481.7 898.9,484.5 900.1,481.0 901.2,483.1 902.4,476.7 903.6,473.7 904.8,467.3 906.0,467.3 907.2,468.2 908.4,465.0 909.5,465.0 910.7,465.0 911.9,465.0 913.1,465.5 914.3,465.0 915.5,465.0 916.6,465.0 917.8,465.0 919.0,465.0 920.2,465.0 921.4,465.0 922.6,465.0 923.7,465.0 924.9,465.7 926.1,465.0 927.3,465.0 928.5,465.0 929.7,465.0 930.8,484.2 932.0,484.8 933.2,481.8 934.4,465.0 935.6,465.0 936.8,465.0 938.0,465.0 939.1,465.0 940.3,465.0 941.5,465.4 942.7,490.5 943.9,465.0 945.1,465.0 946.2,465.0 947.4,465.0 948.6,465.0 949.8,465.0 951.0,465.0 952.2,465.0 953.3,465.5 954.5,465.0 955.7,465.0 956.9,465.0 958.1,465.0 959.3,465.0 960.4,465.0 961.6,465.0 962.8,465.0 964.0,465.0 965.2,465.0 966.4,465.0 967.5,465.0 968.7,465.0 969.9,465.0 971.1,465.0 972.3,465.0 973.5,465.0 974.7,465.0 975.8,466.2 977.0,465.0 978.2,465.0 979.4,492.3 980.6,492.3 981.8,492.2 982.9,490.0 984.1,492.1 985.3,489.6 986.5,490.0 987.7,483.7 988.9,465.0 990.0,465.0 991.2,497.8 992.4,499.9 993.6,492.3 994.8,489.9 996.0,490.3 997.1,488.5 998.3,481.8 999.5,469.8 1000.7,465.0 1001.9,465.0 1003.1,465.0 1004.3,465.0 1005.4,465.0 1006.6,465.0 1007.8,465.0 1009.0,465.0 1010.2,465.0 1011.4,465.0 1012.5,465.0 1013.7,465.0 1014.9,467.5 1016.1,465.0 1017.3,465.0 1018.5,465.0 1019.6,465.0 1020.8,465.0 1022.0,465.0 1023.2,465.0 1024.4,473.4 1025.6,473.5 1026.7,465.0 1027.9,465.0 1029.1,465.0 1030.3,482.0 1031.5,488.6 1032.7,483.5 1033.8,483.5 1035.0,470.6 1036.2,465.0 1037.4,465.0 1038.6,465.0 1039.8,465.0 1041.0,465.0 1042.1,465.0 1043.3,465.0 1044.5,465.0 1045.7,465.0 1046.9,465.8 1048.1,465.0 1049.2,465.0 1050.4,465.0 1051.6,465.0 1052.8,465.3 1054.0,465.0 1055.2,465.0 1056.3,465.0 1057.5,465.0 1058.7,465.0 1059.9,465.4 1061.1,465.0 1062.3,465.0 1063.4,465.0 1064.6,465.0 1065.8,465.5 1067.0,465.0 1068.2,465.0 1069.4,465.6 1070.6,465.0 1071.7,465.6 1072.9,465.0 1074.1,468.4 1075.3,468.4 1076.5,468.4 1077.7,469.4 1078.8,465.5 1080.0,465.5 1081.2,465.5 1082.4,465.5 1083.6,465.0 1084.8,465.4 1085.9,465.0 1087.1,465.0 1088.3,465.0 1089.5,465.9 1090.7,466.9 1091.9,465.0 1093.0,465.0 1094.2,465.0 1095.4,465.0 1096.6,479.7 1097.8,478.6 1099.0,477.8 1100.1,477.2 1101.3,476.9 1102.5,465.0 1103.7,465.0 1104.9,465.0 1106.1,465.0 1107.3,465.0 1108.4,467.3 1109.6,465.0 1110.8,465.0 1112.0,465.0 1113.2,465.0 1114.4,472.4 1115.5,465.0 1116.7,465.0 1117.9,478.2 1119.1,511.0 1120.3,465.0 1121.5,494.6 1122.6,490.5 1123.8,485.3 1125.0,484.7 1126.2,476.9 1127.4,471.9 1128.6,465.0 1129.7,465.0 1130.9,465.0 1132.1,465.0 1133.3,469.8 1134.5,466.3 1135.7,475.3 1136.9,477.5 1138.0,481.2 1139.2,490.5 1140.4,480.0 1141.6,476.7 1142.8,492.8 1144.0,494.4 1145.1,497.8 1146.3,505.6 1147.5,493.0 1148.7,465.0 1149.9,465.0 1151.1,465.0 1152.2,465.0 1153.4,465.0 1154.6,465.0 1155.8,465.0 1157.0,465.1 1158.2,465.0 1159.3,465.0 1160.5,465.0 1161.7,465.0 1162.9,465.0 1164.1,465.0 1165.3,465.0 1166.4,473.1 1167.6,472.8 1168.8,472.9 1170.0,478.7"/><line x1="95" x2="125" y1="70" y2="70" stroke="#c45a24" stroke-width="3"/><text x="133" y="75" font-size="14">Current Production</text><line class="g" x1="95.0" x2="95.0" y1="55" y2="630"/><text x="95.0" y="658" font-size="13" text-anchor="middle">2023</text><line class="g" x1="385.0605726872247" x2="385.0605726872247" y1="55" y2="630"/><text x="385.0605726872247" y="658" font-size="13" text-anchor="middle">2024</text><line class="g" x1="683.4085903083701" x2="683.4085903083701" y1="55" y2="630"/><text x="683.4085903083701" y="658" font-size="13" text-anchor="middle">2025</text><line class="g" x1="979.3887665198238" x2="979.3887665198238" y1="55" y2="630"/><text x="979.3887665198238" y="658" font-size="13" text-anchor="middle">2026</text></svg>