<svg xmlns="http://www.w3.org/2000/svg" width="1500" height="800" viewBox="0 0 1500 800">
<rect width="100%" height="100%" fill="#fff"/><text x="90" y="35" font-family="Arial" font-size="24" font-weight="700" fill="#172033">Foxchase Trading research portfolio vs SPY buy and hold</text>
<text x="90" y="62" font-family="Arial" font-size="15" fill="#555">389 trades · fixed 20% target-risk budget · non-compounding · natural bid/ask · no added stress</text>
<text x="90" y="90" font-family="Arial" font-size="15" fill="#0b5ed7">Foxchase Trading ending $27,267 (+172.7%)</text><text x="470" y="90" font-family="Arial" font-size="15" fill="#777">SPY ending $18,590 (+85.9%)</text>
<line x1="90" y1="505" x2="1350" y2="505" stroke="#ccd2dc"/><polyline points="90.0,493.0 91.5,487.4 92.9,487.4 94.4,487.4 95.8,484.7 97.3,482.5 98.8,482.5 100.2,482.5 101.7,477.7 103.1,477.7 104.6,472.6 106.1,472.6 107.5,484.9 109.0,484.9 110.4,485.3 111.9,485.3 113.4,480.8 114.8,476.2 116.3,470.3 117.7,470.3 119.2,470.3 120.7,470.3 122.1,470.3 123.6,464.5 125.0,460.1 126.5,460.1 128.0,460.1 129.4,467.7 130.9,467.7 132.3,465.0 133.8,465.0 135.3,472.3 136.7,472.3 138.2,484.7 139.6,484.7 141.1,481.4 142.6,479.0 144.0,474.6 145.5,471.9 146.9,476.8 148.4,471.2 149.9,462.4 151.3,462.4 152.8,457.8 154.2,457.8 155.7,451.3 157.2,451.3 158.6,451.3 160.1,439.7 161.5,439.7 163.0,439.7 164.5,435.8 165.9,431.7 167.4,428.4 168.8,428.4 170.3,426.2 171.8,426.2 173.2,432.7 174.7,439.9 176.1,439.9 177.6,439.9 179.1,438.2 180.5,443.9 182.0,443.9 183.4,441.6 184.9,440.2 186.4,447.0 187.8,447.0 189.3,447.0 190.7,447.0 192.2,447.0 193.7,447.0 195.1,444.9 196.6,444.9 198.0,444.9 199.5,444.9 201.0,444.9 202.4,444.9 203.9,450.6 205.3,450.6 206.8,448.9 208.3,445.7 209.7,445.7 211.2,444.3 212.6,442.1 214.1,440.4 215.6,437.6 217.0,437.6 218.5,436.1 219.9,433.3 221.4,433.3 222.9,430.0 224.3,430.0 225.8,430.0 227.2,430.0 228.7,433.0 230.2,433.0 231.6,433.0 233.1,430.6 234.5,430.6 236.0,430.6 237.5,430.6 238.9,430.6 240.4,434.2 241.8,432.9 243.3,432.9 244.8,445.1 246.2,445.1 247.7,443.6 249.1,447.3 250.6,443.9 252.1,443.9 253.5,441.1 255.0,437.7 256.4,436.0 257.9,436.0 259.4,434.7 260.8,434.7 262.3,434.7 263.7,434.7 265.2,434.7 266.7,434.7 268.1,434.7 269.6,434.7 271.0,432.8 272.5,431.1 274.0,433.9 275.4,433.9 276.9,433.9 278.3,431.9 279.8,429.8 281.3,428.3 282.7,428.3 284.2,428.3 285.6,426.9 287.1,426.9 288.6,426.9 290.0,426.9 291.5,426.9 292.9,430.4 294.4,425.9 295.9,424.6 297.3,422.8 298.8,422.8 300.2,421.2 301.7,428.0 303.2,424.6 304.6,423.0 306.1,417.5 307.5,417.5 309.0,424.2 310.5,419.6 311.9,417.7 313.4,416.1 314.8,416.1 316.3,416.1 317.8,416.1 319.2,413.2 320.7,413.2 322.1,410.4 323.6,410.4 325.1,410.4 326.5,410.4 328.0,417.1 329.4,415.2 330.9,415.2 332.4,415.2 333.8,415.2 335.3,415.2 336.7,415.2 338.2,415.2 339.7,415.2 341.1,418.9 342.6,418.9 344.0,418.9 345.5,418.9 347.0,418.9 348.4,418.9 349.9,418.9 351.3,418.9 352.8,418.9 354.3,418.9 355.7,418.9 357.2,418.9 358.6,429.3 360.1,429.3 361.6,426.3 363.0,426.3 364.5,426.3 365.9,423.9 367.4,419.9 368.9,419.9 370.3,419.9 371.8,419.9 373.2,415.5 374.7,415.5 376.2,409.7 377.6,409.7 379.1,404.6 380.5,414.4 382.0,410.0 383.5,407.2 384.9,407.2 386.4,402.3 387.8,397.7 389.3,395.6 390.8,392.9 392.2,392.9 393.7,392.9 395.1,396.0 396.6,396.0 398.1,396.0 399.5,396.0 401.0,400.7 402.4,400.7 403.9,398.6 405.4,398.6 406.8,397.1 408.3,401.1 409.7,401.1 411.2,401.1 412.7,401.1 414.1,401.1 415.6,401.1 417.0,398.6 418.5,398.6 420.0,398.6 421.4,398.6 422.9,398.6 424.3,403.0 425.8,403.0 427.3,400.9 428.7,400.9 430.2,400.9 431.6,400.9 433.1,400.9 434.6,399.6 436.0,399.6 437.5,399.6 438.9,397.2 440.4,397.2 441.9,395.3 443.3,395.3 444.8,395.3 446.2,393.1 447.7,393.1 449.2,393.1 450.6,393.1 452.1,393.1 453.5,393.1 455.0,391.1 456.5,391.1 457.9,391.1 459.4,388.3 460.8,385.0 462.3,385.0 463.8,385.0 465.2,389.6 466.7,388.2 468.1,392.9 469.6,395.9 471.1,399.5 472.5,398.0 474.0,398.0 475.4,398.0 476.9,394.7 478.4,393.1 479.8,398.0 481.3,398.0 482.7,398.0 484.2,396.5 485.7,396.5 487.1,394.7 488.6,394.7 490.0,401.7 491.5,399.8 493.0,405.0 494.4,405.0 495.9,406.2 497.3,406.2 498.8,411.4 500.3,411.4 501.7,411.4 503.2,411.4 504.6,411.4 506.1,408.8 507.6,408.8 509.0,408.8 510.5,406.6 511.9,406.6 513.4,406.6 514.9,406.6 516.3,406.6 517.8,406.6 519.2,406.6 520.7,406.6 522.2,402.7 523.6,402.7 525.1,402.7 526.5,402.7 528.0,401.4 529.5,401.4 530.9,401.4 532.4,401.4 533.8,399.7 535.3,398.1 536.8,398.1 538.2,398.1 539.7,398.1 541.1,398.1 542.6,395.6 544.1,395.6 545.5,395.6 547.0,395.6 548.4,409.7 549.9,403.9 551.4,397.4 552.8,397.4 554.3,397.4 555.7,397.4 557.2,393.3 558.7,393.3 560.1,400.9 561.6,400.9 563.0,397.5 564.5,394.8 566.0,404.5 567.4,404.5 568.9,421.3 570.3,418.8 571.8,418.8 573.3,417.0 574.7,415.0 576.2,412.6 577.6,410.3 579.1,410.3 580.6,407.7 582.0,407.7 583.5,406.0 584.9,406.0 586.4,406.0 587.9,404.7 589.3,404.7 590.8,410.3 592.2,410.3 593.7,410.3 595.2,410.3 596.6,410.3 598.1,410.3 599.5,406.1 601.0,401.3 602.5,399.1 603.9,399.1 605.4,399.1 606.8,399.1 608.3,399.1 609.8,399.1 611.2,405.2 612.7,405.2 614.1,403.9 615.6,401.0 617.1,401.0 618.5,401.0 620.0,405.3 621.4,408.5 622.9,412.5 624.4,410.1 625.8,414.6 627.3,414.6 628.7,414.6 630.2,412.9 631.7,410.1 633.1,410.1 634.6,410.1 636.0,408.3 637.5,408.3 639.0,408.3 640.4,408.3 641.9,406.1 643.3,406.1 644.8,400.5 646.3,400.5 647.7,396.4 649.2,392.3 650.6,392.3 652.1,392.3 653.6,392.3 655.0,392.3 656.5,384.7 657.9,384.7 659.4,376.3 660.9,376.3 662.3,376.3 663.8,376.3 665.2,387.3 666.7,387.3 668.2,387.3 669.6,398.7 671.1,394.4 672.5,411.1 674.0,408.0 675.5,408.0 676.9,405.9 678.4,403.4 679.8,397.4 681.3,394.6 682.8,389.1 684.2,386.5 685.7,386.5 687.1,377.9 688.6,377.9 690.1,377.9 691.5,371.2 693.0,371.2 694.4,371.2 695.9,371.2 697.4,366.1 698.8,366.1 700.3,380.9 701.7,376.3 703.2,371.1 704.7,366.8 706.1,373.2 707.6,363.4 709.0,371.0 710.5,381.4 712.0,379.2 713.4,377.8 714.9,382.4 716.3,382.4 717.8,382.4 719.3,382.4 720.7,382.4 722.2,382.4 723.7,376.7 725.1,376.7 726.6,376.7 728.0,376.7 729.5,376.7 731.0,376.7 732.4,376.7 733.9,376.7 735.3,382.8 736.8,382.8 738.3,382.8 739.7,382.8 741.2,382.8 742.6,382.8 744.1,386.8 745.6,386.8 747.0,385.0 748.5,385.0 749.9,385.0 751.4,385.0 752.9,385.0 754.3,385.0 755.8,385.0 757.2,385.0 758.7,385.0 760.2,385.0 761.6,382.9 763.1,382.9 764.5,382.9 766.0,381.0 767.5,387.2 768.9,387.2 770.4,387.2 771.8,387.2 773.3,387.2 774.8,387.2 776.2,384.0 777.7,382.0 779.1,379.8 780.6,379.8 782.1,379.8 783.5,379.8 785.0,378.4 786.4,382.5 787.9,382.5 789.4,382.5 790.8,387.2 792.3,387.2 793.7,387.2 795.2,387.2 796.7,387.2 798.1,387.2 799.6,387.2 801.0,387.2 802.5,387.2 804.0,376.5 805.4,370.6 806.9,370.6 808.3,370.6 809.8,370.6 811.3,370.6 812.7,389.7 814.2,389.7 815.6,385.3 817.1,385.3 818.6,385.3 820.0,380.3 821.5,387.6 822.9,380.7 824.4,377.2 825.9,389.1 827.3,398.5 828.8,395.4 830.2,392.8 831.7,390.0 833.2,390.0 834.6,390.0 836.1,382.2 837.5,378.6 839.0,378.6 840.5,375.9 841.9,373.9 843.4,364.1 844.8,364.1 846.3,360.7 847.8,357.6 849.2,350.6 850.7,350.6 852.1,350.6 853.6,350.6 855.1,350.6 856.5,348.4 858.0,348.4 859.4,348.4 860.9,348.4 862.4,341.9 863.8,341.9 865.3,341.9 866.7,354.5 868.2,340.5 869.7,340.5 871.1,340.5 872.6,340.5 874.0,340.5 875.5,340.5 877.0,340.5 878.4,340.5 879.9,340.5 881.3,359.6 882.8,351.7 884.3,351.7 885.7,347.5 887.2,343.9 888.6,343.9 890.1,343.9 891.6,336.6 893.0,336.6 894.5,336.6 895.9,343.9 897.4,337.9 898.9,337.9 900.3,337.9 901.8,337.9 903.2,337.9 904.7,337.9 906.2,362.6 907.6,349.5 909.1,366.3 910.5,366.3 912.0,353.0 913.5,342.4 914.9,335.1 916.4,328.0 917.8,328.0 919.3,320.4 920.8,337.6 922.2,337.6 923.7,330.3 925.1,330.3 926.6,325.9 928.1,338.7 929.5,338.7 931.0,338.7 932.4,338.7 933.9,338.7 935.4,338.7 936.8,332.7 938.3,345.1 939.7,345.1 941.2,345.1 942.7,345.1 944.1,345.1 945.6,345.1 947.0,345.1 948.5,345.1 950.0,337.5 951.4,337.5 952.9,334.0 954.3,334.0 955.8,334.0 957.3,331.8 958.7,327.0 960.2,327.0 961.6,327.0 963.1,323.0 964.6,323.0 966.0,323.0 967.5,323.0 968.9,323.0 970.4,323.0 971.9,323.0 973.3,323.0 974.8,316.3 976.2,328.1 977.7,328.1 979.2,328.1 980.6,328.1 982.1,337.8 983.5,334.8 985.0,333.3 986.5,333.3 987.9,333.3 989.4,333.3 990.8,333.3 992.3,330.6 993.8,330.6 995.2,330.6 996.7,330.6 998.1,330.6 999.6,330.6 1001.1,330.6 1002.5,330.6 1004.0,330.6 1005.4,336.9 1006.9,336.9 1008.4,334.8 1009.8,332.4 1011.3,332.4 1012.7,339.2 1014.2,337.2 1015.7,337.2 1017.1,337.2 1018.6,342.2 1020.0,342.2 1021.5,332.0 1023.0,332.0 1024.4,332.0 1025.9,332.0 1027.3,332.0 1028.8,328.5 1030.3,324.5 1031.7,324.5 1033.2,324.5 1034.6,324.5 1036.1,330.8 1037.6,330.8 1039.0,330.8 1040.5,330.8 1041.9,336.1 1043.4,336.1 1044.9,336.1 1046.3,336.1 1047.8,336.1 1049.2,336.1 1050.7,331.9 1052.2,330.0 1053.6,324.4 1055.1,337.6 1056.5,340.9 1058.0,338.7 1059.5,338.7 1060.9,337.2 1062.4,342.7 1063.8,347.3 1065.3,347.3 1066.8,347.3 1068.2,347.3 1069.7,347.3 1071.1,347.3 1072.6,347.3 1074.1,347.3 1075.5,347.3 1077.0,350.8 1078.4,356.3 1079.9,351.4 1081.4,349.2 1082.8,349.2 1084.3,345.6 1085.7,345.6 1087.2,344.0 1088.7,344.0 1090.1,344.0 1091.6,344.0 1093.0,344.0 1094.5,344.0 1096.0,341.2 1097.4,336.9 1098.9,336.9 1100.3,344.0 1101.8,344.0 1103.3,344.0 1104.7,344.0 1106.2,344.0 1107.6,351.9 1109.1,351.9 1110.6,349.1 1112.0,347.5 1113.5,347.5 1114.9,347.5 1116.4,347.5 1117.9,342.7 1119.3,342.7 1120.8,335.4 1122.2,335.4 1123.7,327.4 1125.2,327.4 1126.6,325.6 1128.1,322.7 1129.5,317.7 1131.0,317.7 1132.5,309.7 1133.9,327.1 1135.4,318.5 1136.8,310.8 1138.3,323.2 1139.8,323.2 1141.2,323.2 1142.7,319.3 1144.1,314.9 1145.6,312.8 1147.1,306.4 1148.5,302.8 1150.0,302.8 1151.4,299.8 1152.9,296.7 1154.4,308.6 1155.8,308.6 1157.3,302.1 1158.7,302.1 1160.2,296.4 1161.7,289.1 1163.1,289.1 1164.6,283.3 1166.0,279.9 1167.5,279.9 1169.0,279.9 1170.4,279.9 1171.9,279.9 1173.3,277.9 1174.8,280.7 1176.3,279.0 1177.7,276.3 1179.2,286.3 1180.6,286.3 1182.1,286.3 1183.6,286.3 1185.0,282.0 1186.5,278.6 1187.9,278.6 1189.4,278.6 1190.9,278.6 1192.3,276.1 1193.8,282.4 1195.2,272.3 1196.7,265.0 1198.2,262.9 1199.6,262.9 1201.1,266.0 1202.5,266.0 1204.0,260.3 1205.5,249.6 1206.9,244.8 1208.4,244.8 1209.8,238.8 1211.3,238.8 1212.8,256.4 1214.2,256.4 1215.7,256.4 1217.1,256.4 1218.6,256.4 1220.1,266.3 1221.5,258.1 1223.0,250.6 1224.4,243.1 1225.9,239.2 1227.4,233.3 1228.8,225.6 1230.3,225.6 1231.7,221.4 1233.2,221.4 1234.7,215.9 1236.1,205.8 1237.6,199.0 1239.0,199.0 1240.5,212.1 1242.0,212.1 1243.4,203.4 1244.9,200.5 1246.3,192.8 1247.8,192.8 1249.3,192.8 1250.7,187.7 1252.2,196.7 1253.6,196.7 1255.1,196.7 1256.6,196.7 1258.0,196.7 1259.5,196.7 1260.9,196.7 1262.4,196.7 1263.9,196.7 1265.3,196.7 1266.8,196.7 1268.2,192.3 1269.7,184.3 1271.2,184.3 1272.6,184.3 1274.1,184.3 1275.5,181.2 1277.0,187.1 1278.5,181.0 1279.9,181.0 1281.4,178.2 1282.8,175.7 1284.3,171.2 1285.8,177.8 1287.2,171.7 1288.7,171.7 1290.1,171.7 1291.6,168.7 1293.1,165.7 1294.5,162.4 1296.0,165.1 1297.4,160.7 1298.9,157.6 1300.4,157.6 1301.8,157.6 1303.3,157.6 1304.7,157.6 1306.2,155.5 1307.7,152.8 1309.1,150.1 1310.6,150.1 1312.0,150.1 1313.5,150.1 1315.0,150.1 1316.4,150.1 1317.9,150.1 1319.3,142.3 1320.8,142.3 1322.3,142.3 1323.7,142.3 1325.2,136.5 1326.6,130.1 1328.1,130.1 1329.6,125.8 1331.0,125.8 1332.5,125.8 1333.9,125.8 1335.4,125.8 1336.9,121.7 1338.3,121.7 1339.8,129.0 1341.2,129.0 1342.7,129.0 1344.2,129.0 1345.6,129.0 1347.1,134.2 1348.5,134.2 1350.0,128.8" fill="none" stroke="#0b5ed7" stroke-width="3"/><polyline points="90.0,495.7 91.5,494.8 92.9,494.0 94.4,494.9 95.8,498.1 97.3,498.9 98.8,495.2 100.2,493.0 101.7,494.0 103.1,492.8 104.6,491.2 106.1,490.3 107.5,492.4 109.0,490.4 110.4,486.7 111.9,485.4 113.4,486.9 114.8,487.3 116.3,485.3 117.7,487.1 119.2,489.4 120.7,488.8 122.1,486.4 123.6,487.0 125.0,485.5 126.5,489.3 128.0,489.2 129.4,493.3 130.9,493.4 132.3,492.9 133.8,495.2 135.3,494.1 136.7,496.0 138.2,496.1 139.6,494.7 141.1,490.6 142.6,490.6 144.0,494.1 145.5,493.9 146.9,498.5 148.4,500.1 149.9,500.9 151.3,497.7 152.8,499.2 154.2,495.3 155.7,498.0 157.2,496.6 158.6,493.8 160.1,497.1 161.5,496.5 163.0,495.1 164.5,494.8 165.9,495.0 167.4,492.7 168.8,490.9 170.3,487.9 171.8,487.5 173.2,488.3 174.7,489.3 176.1,488.5 177.6,487.7 179.1,487.8 180.5,489.3 182.0,486.1 183.4,486.1 184.9,485.7 186.4,485.7 187.8,486.2 189.3,486.9 190.7,486.7 192.2,486.6 193.7,488.9 195.1,490.3 196.6,486.8 198.0,484.5 199.5,485.1 201.0,487.3 202.4,489.6 203.9,489.8 205.3,486.6 206.8,486.4 208.3,487.1 209.7,486.0 211.2,486.5 212.6,487.4 214.1,486.4 215.6,487.4 217.0,485.1 218.5,482.5 219.9,483.2 221.4,482.5 222.9,485.3 224.3,486.3 225.8,485.7 227.2,482.2 228.7,482.2 230.2,483.3 231.6,481.4 233.1,478.1 234.5,478.9 236.0,477.9 237.5,478.9 238.9,477.7 240.4,477.1 241.8,475.0 243.3,473.4 244.8,473.2 246.2,470.7 247.7,472.0 249.1,473.1 250.6,474.4 252.1,473.5 253.5,475.6 255.0,475.9 256.4,474.1 257.9,473.3 259.4,472.6 260.8,470.1 262.3,469.6 263.7,470.2 265.2,472.0 266.7,472.4 268.1,471.9 269.6,470.4 271.0,468.2 272.5,466.7 274.0,466.7 275.4,466.2 276.9,464.1 278.3,464.2 279.8,465.1 281.3,465.2 282.7,464.0 284.2,463.5 285.6,463.3 287.1,464.8 288.6,462.5 290.0,462.1 291.5,463.6 292.9,465.8 294.4,466.4 295.9,468.0 297.3,465.9 298.8,467.0 300.2,468.0 301.7,468.2 303.2,468.6 304.6,467.1 306.1,470.0 307.5,471.9 309.0,473.8 310.5,473.7 311.9,472.4 313.4,472.6 314.8,469.0 316.3,473.2 317.8,471.8 319.2,470.2 320.7,466.6 322.1,465.7 323.6,466.0 325.1,465.8 326.5,466.8 328.0,468.4 329.4,469.0 330.9,468.9 332.4,467.4 333.8,468.5 335.3,467.9 336.7,466.0 338.2,469.9 339.7,469.6 341.1,470.1 342.6,472.8 344.0,476.5 345.5,476.7 347.0,475.9 348.4,478.9 349.9,478.8 351.3,477.8 352.8,478.4 354.3,478.5 355.7,481.6 357.2,480.2 358.6,480.3 360.1,477.0 361.6,475.8 363.0,474.6 364.5,473.1 365.9,474.9 367.4,476.8 368.9,473.8 370.3,474.4 371.8,476.8 373.2,479.3 374.7,482.1 376.2,481.5 377.6,480.7 379.1,484.7 380.5,485.2 382.0,487.6 383.5,485.0 384.9,483.9 386.4,480.5 387.8,477.1 389.3,474.2 390.8,474.5 392.2,473.5 393.7,473.5 395.1,475.1 396.6,471.6 398.1,471.5 399.5,466.7 401.0,466.6 402.4,466.0 403.9,466.2 405.4,463.9 406.8,464.7 408.3,463.7 409.7,463.4 411.2,463.8 412.7,463.5 414.1,463.7 415.6,463.0 417.0,461.0 418.5,463.2 420.0,462.3 421.4,463.9 422.9,462.0 424.3,460.6 425.8,459.7 427.3,458.4 428.7,454.5 430.2,454.7 431.6,455.5 433.1,454.6 434.6,453.0 436.0,456.2 437.5,454.3 438.9,453.9 440.4,452.6 441.9,451.9 443.3,451.8 444.8,452.8 446.2,454.2 447.7,455.9 449.2,456.8 450.6,456.4 452.1,453.3 453.5,453.5 455.0,451.8 456.5,452.6 457.9,452.5 459.4,453.0 460.8,454.3 462.3,451.9 463.8,448.8 465.2,448.3 466.7,447.0 468.1,447.3 469.6,446.5 471.1,446.5 472.5,444.1 474.0,445.2 475.4,448.0 476.9,443.9 478.4,442.9 479.8,443.4 481.3,442.7 482.7,440.6 484.2,440.5 485.7,438.9 487.1,439.3 488.6,442.5 490.0,440.2 491.5,438.6 493.0,440.3 494.4,441.6 495.9,439.0 497.3,435.5 498.8,435.7 500.3,436.4 501.7,435.8 503.2,436.3 504.6,434.8 506.1,433.0 507.6,433.2 509.0,435.7 510.5,434.6 511.9,431.4 513.4,433.2 514.9,432.7 516.3,430.3 517.8,430.5 519.2,431.8 520.7,434.2 522.2,432.7 523.6,431.1 525.1,427.7 526.5,427.2 528.0,428.3 529.5,428.4 530.9,428.9 532.4,427.4 533.8,427.1 535.3,427.8 536.8,429.4 538.2,428.4 539.7,432.2 541.1,429.4 542.6,429.3 544.1,429.0 545.5,432.3 547.0,429.6 548.4,434.1 549.9,437.1 551.4,436.8 552.8,438.9 554.3,440.2 555.7,442.3 557.2,439.8 558.7,436.0 560.1,438.1 561.6,435.6 563.0,434.8 564.5,434.2 566.0,438.7 567.4,438.2 568.9,436.0 570.3,432.8 571.8,430.6 573.3,430.1 574.7,430.3 576.2,428.4 577.6,428.7 579.1,428.3 580.6,426.8 582.0,423.2 583.5,424.0 584.9,423.5 586.4,423.3 587.9,422.5 589.3,422.8 590.8,425.4 592.2,423.6 593.7,423.7 595.2,426.5 596.6,427.7 598.1,424.3 599.5,424.6 601.0,423.8 602.5,420.6 603.9,420.9 605.4,421.5 606.8,420.6 608.3,419.5 609.8,416.7 611.2,416.6 612.7,416.4 614.1,413.9 615.6,413.2 617.1,414.1 618.5,415.6 620.0,416.3 621.4,415.4 622.9,415.8 624.4,414.1 625.8,415.2 627.3,415.3 628.7,413.5 630.2,412.1 631.7,410.4 633.1,409.1 634.6,409.3 636.0,406.6 637.5,409.1 639.0,407.3 640.4,406.0 641.9,404.8 643.3,408.2 644.8,410.7 646.3,413.1 647.7,410.3 649.2,411.9 650.6,416.6 652.1,418.3 653.6,415.7 655.0,416.1 656.5,416.5 657.9,410.7 659.4,417.3 660.9,422.6 662.3,427.1 663.8,428.7 665.2,430.9 666.7,422.5 668.2,421.7 669.6,421.5 671.1,416.9 672.5,416.0 674.0,410.6 675.5,410.5 676.9,407.6 678.4,408.0 679.8,406.6 681.3,408.7 682.8,406.0 684.2,407.1 685.7,406.8 687.1,410.2 688.6,407.8 690.1,405.3 691.5,412.0 693.0,412.4 694.4,413.1 695.9,418.6 697.4,414.1 698.8,413.5 700.3,410.2 701.7,407.6 703.2,406.3 704.7,405.9 706.1,405.3 707.6,404.5 709.0,401.7 710.5,402.8 712.0,402.2 713.4,401.2 714.9,401.3 716.3,400.5 717.8,401.5 719.3,400.1 720.7,403.0 722.2,402.0 723.7,403.0 725.1,400.6 726.6,403.1 728.0,400.4 729.5,398.1 731.0,398.2 732.4,397.2 733.9,393.9 735.3,396.5 736.8,395.6 738.3,394.9 739.7,393.9 741.2,394.5 742.6,394.8 744.1,397.2 745.6,396.8 747.0,397.6 748.5,396.1 749.9,394.8 751.4,397.6 752.9,402.2 754.3,401.1 755.8,402.0 757.2,396.9 758.7,390.8 760.2,388.0 761.6,386.8 763.1,386.7 764.5,387.8 766.0,387.1 767.5,390.0 768.9,393.1 770.4,392.2 771.8,390.3 773.3,391.9 774.8,389.5 776.2,387.6 777.7,388.2 779.1,385.1 780.6,386.0 782.1,384.0 783.5,383.7 785.0,383.4 786.4,382.0 787.9,382.3 789.4,381.8 790.8,383.3 792.3,384.0 793.7,382.1 795.2,382.8 796.7,383.6 798.1,382.5 799.6,383.5 801.0,392.3 802.5,394.1 804.0,389.9 805.4,388.6 806.9,385.1 808.3,385.5 809.8,388.3 811.3,392.5 812.7,393.0 814.2,393.3 815.6,390.0 817.1,388.1 818.6,391.3 820.0,392.1 821.5,396.5 822.9,394.7 824.4,395.0 825.9,389.1 827.3,390.3 828.8,386.9 830.2,383.4 831.7,382.6 833.2,380.8 834.6,381.7 836.1,386.1 837.5,383.5 839.0,384.1 840.5,382.5 841.9,386.2 843.4,385.5 844.8,385.5 846.3,383.2 847.8,382.5 849.2,385.6 850.7,383.6 852.1,382.9 853.6,383.2 855.1,380.5 856.5,380.4 858.0,379.3 859.4,379.1 860.9,380.1 862.4,385.5 863.8,386.8 865.3,387.9 866.7,389.1 868.2,393.8 869.7,388.7 871.1,393.6 872.6,396.2 874.0,395.4 875.5,399.5 877.0,399.2 878.4,408.0 879.9,408.4 881.3,406.8 882.8,410.5 884.3,406.0 885.7,403.5 887.2,406.6 888.6,402.5 890.1,404.1 891.6,404.5 893.0,399.8 894.5,398.6 895.9,403.1 897.4,403.7 898.9,410.4 900.3,408.8 901.8,406.2 903.2,415.3 904.7,419.9 906.2,436.5 907.6,434.3 909.1,444.5 910.5,414.9 912.0,427.5 913.5,421.0 914.9,419.6 916.4,421.4 917.8,425.5 919.3,424.8 920.8,430.8 922.2,419.8 923.7,419.8 925.1,413.4 926.6,411.9 928.1,411.9 929.5,411.0 931.0,407.6 932.4,408.7 933.9,403.5 935.4,405.7 936.8,405.4 938.3,406.7 939.7,404.9 941.2,404.5 942.7,395.3 944.1,392.5 945.6,393.2 947.0,391.0 948.5,392.0 950.0,388.1 951.4,389.8 952.9,394.8 954.3,394.8 955.8,397.0 957.3,390.4 958.7,387.5 960.2,392.1 961.6,391.9 963.1,390.3 964.6,387.7 966.0,388.1 967.5,389.6 968.9,385.8 970.4,385.8 971.9,384.2 973.3,385.5 974.8,385.6 976.2,387.1 977.7,386.3 979.2,387.8 980.6,387.2 982.1,388.2 983.5,383.9 985.0,382.0 986.5,381.9 987.9,379.2 989.4,378.5 990.8,376.2 992.3,376.1 993.8,374.6 995.2,372.3 996.7,374.9 998.1,374.8 999.6,373.0 1001.1,371.6 1002.5,373.3 1004.0,372.7 1005.4,374.4 1006.9,373.2 1008.4,370.2 1009.8,370.7 1011.3,370.1 1012.7,369.3 1014.2,367.1 1015.7,366.7 1017.1,365.6 1018.6,365.6 1020.0,366.7 1021.5,364.8 1023.0,369.0 1024.4,374.3 1025.9,368.6 1027.3,371.1 1028.8,367.6 1030.3,367.8 1031.7,364.9 1033.2,366.5 1034.6,362.6 1036.1,361.7 1037.6,361.4 1039.0,362.4 1040.5,362.3 1041.9,364.6 1043.4,365.4 1044.9,366.0 1046.3,361.2 1047.8,362.6 1049.2,361.1 1050.7,361.6 1052.2,359.6 1053.6,361.5 1055.1,363.6 1056.5,362.4 1058.0,359.1 1059.5,361.0 1060.9,359.3 1062.4,358.2 1063.8,357.3 1065.3,354.7 1066.8,354.9 1068.2,353.1 1069.7,353.3 1071.1,352.7 1072.6,351.6 1074.1,351.6 1075.5,349.8 1077.0,351.6 1078.4,352.6 1079.9,354.6 1081.4,352.3 1082.8,351.7 1084.3,350.9 1085.7,349.0 1087.2,348.4 1088.7,348.3 1090.1,347.7 1091.6,348.7 1093.0,346.0 1094.5,347.0 1096.0,357.7 1097.4,352.0 1098.9,352.1 1100.3,350.7 1101.8,354.0 1103.3,350.6 1104.7,347.1 1106.2,347.6 1107.6,349.8 1109.1,346.8 1110.6,344.2 1112.0,339.7 1113.5,338.8 1114.9,339.1 1116.4,340.3 1117.9,341.8 1119.3,341.7 1120.8,346.8 1122.2,344.2 1123.7,347.0 1125.2,346.8 1126.6,341.8 1128.1,340.9 1129.5,341.6 1131.0,346.7 1132.5,346.3 1133.9,350.6 1135.4,353.5 1136.8,348.1 1138.3,356.5 1139.8,353.4 1141.2,348.5 1142.7,344.9 1144.1,342.5 1145.6,340.8 1147.1,342.7 1148.5,341.4 1150.0,340.8 1151.4,340.1 1152.9,339.5 1154.4,340.2 1155.8,341.4 1157.3,339.6 1158.7,338.1 1160.2,341.7 1161.7,343.0 1163.1,343.9 1164.6,346.6 1166.0,344.6 1167.5,341.9 1169.0,340.0 1170.4,338.6 1171.9,337.6 1173.3,337.4 1174.8,338.8 1176.3,339.6 1177.7,341.3 1179.2,341.1 1180.6,338.7 1182.1,336.2 1183.6,337.3 1185.0,337.6 1186.5,334.9 1187.9,335.3 1189.4,335.4 1190.9,337.6 1192.3,335.8 1193.8,336.6 1195.2,343.4 1196.7,339.0 1198.2,337.7 1199.6,338.5 1201.1,335.7 1202.5,333.5 1204.0,334.8 1205.5,335.9 1206.9,337.1 1208.4,333.6 1209.8,338.0 1211.3,338.5 1212.8,346.0 1214.2,337.0 1215.7,335.3 1217.1,335.3 1218.6,336.0 1220.1,342.4 1221.5,342.2 1223.0,341.7 1224.4,339.5 1225.9,339.8 1227.4,337.6 1228.8,341.0 1230.3,338.4 1231.7,336.2 1233.2,339.3 1234.7,340.7 1236.1,340.3 1237.6,342.8 1239.0,339.0 1240.5,341.6 1242.0,347.3 1243.4,345.2 1244.9,343.8 1246.3,347.4 1247.8,350.0 1249.3,351.8 1250.7,348.7 1252.2,348.0 1253.6,353.0 1255.1,352.9 1256.6,357.1 1258.0,355.2 1259.5,354.7 1260.9,355.9 1262.4,360.0 1263.9,368.0 1265.3,369.3 1266.8,357.6 1268.2,356.3 1269.7,355.6 1271.2,354.5 1272.6,346.1 1274.1,345.5 1275.5,343.1 1277.0,342.4 1278.5,339.2 1279.9,334.9 1281.4,331.6 1282.8,330.7 1284.3,326.2 1285.8,326.9 1287.2,328.2 1288.7,326.3 1290.1,326.8 1291.6,324.4 1293.1,323.2 1294.5,325.3 1296.0,324.6 1297.4,321.3 1298.9,321.2 1300.4,321.2 1301.8,321.2 1303.3,322.4 1304.7,317.8 1306.2,314.2 1307.7,315.1 1309.1,311.7 1310.6,311.7 1312.0,311.7 1313.5,310.8 1315.0,312.3 1316.4,308.5 1317.9,306.3 1319.3,311.9 1320.8,311.9 1322.3,311.9 1323.7,311.1 1325.2,313.6 1326.6,311.4 1328.1,308.2 1329.6,308.5 1331.0,308.5 1332.5,308.5 1333.9,308.5 1335.4,304.6 1336.9,305.1 1338.3,302.4 1339.8,302.0 1341.2,302.0 1342.7,302.0 1344.2,301.5 1345.6,299.9 1347.1,304.8 1348.5,302.6 1350.0,313.1" fill="none" stroke="#777" stroke-width="2.3"/>
<text x="90" y="555" font-family="Arial" font-size="16" fill="#172033">Drawdown (%)</text><line x1="90" y1="755" x2="1350" y2="755" stroke="#ccd2dc"/><polyline points="90.0,575.0 91.5,575.0 92.9,575.0 94.4,575.0 95.8,575.0 97.3,575.0 98.8,575.0 100.2,575.0 101.7,575.0 103.1,575.0 104.6,575.0 106.1,575.0 107.5,619.8 109.0,619.8 110.4,621.3 111.9,621.3 113.4,605.0 114.8,588.2 116.3,575.0 117.7,575.0 119.2,575.0 120.7,575.0 122.1,575.0 123.6,575.0 125.0,575.0 126.5,575.0 128.0,575.0 129.4,601.4 130.9,601.4 132.3,592.1 133.8,592.1 135.3,617.4 136.7,617.4 138.2,660.5 139.6,660.5 141.1,649.1 142.6,640.9 144.0,625.4 145.5,616.0 146.9,633.1 148.4,613.6 149.9,583.0 151.3,583.0 152.8,575.0 154.2,575.0 155.7,575.0 157.2,575.0 158.6,575.0 160.1,575.0 161.5,575.0 163.0,575.0 164.5,575.0 165.9,575.0 167.4,575.0 168.8,575.0 170.3,575.0 171.8,575.0 173.2,595.0 174.7,616.8 176.1,616.8 177.6,616.8 179.1,611.8 180.5,629.1 182.0,629.1 183.4,622.3 184.9,617.7 186.4,638.7 187.8,638.7 189.3,638.7 190.7,638.7 192.2,638.7 193.7,638.7 195.1,632.3 196.6,632.3 198.0,632.3 199.5,632.3 201.0,632.3 202.4,632.3 203.9,649.6 205.3,649.6 206.8,644.6 208.3,634.6 209.7,634.6 211.2,630.5 212.6,623.6 214.1,618.6 215.6,610.0 217.0,610.0 218.5,605.5 219.9,596.8 221.4,596.8 222.9,586.8 224.3,586.8 225.8,586.8 227.2,586.8 228.7,595.9 230.2,595.9 231.6,595.9 233.1,588.6 234.5,588.6 236.0,588.6 237.5,588.6 238.9,588.6 240.4,599.6 241.8,595.5 243.3,595.5 244.8,632.9 246.2,632.9 247.7,628.3 249.1,639.7 250.6,629.2 252.1,629.2 253.5,620.6 255.0,610.1 256.4,605.1 257.9,605.1 259.4,601.0 260.8,601.0 262.3,601.0 263.7,601.0 265.2,601.0 266.7,601.0 268.1,601.0 269.6,601.0 271.0,595.1 272.5,590.1 274.0,598.8 275.4,598.8 276.9,598.8 278.3,592.4 279.8,586.0 281.3,581.5 282.7,581.5 284.2,581.5 285.6,577.3 287.1,577.3 288.6,577.3 290.0,577.3 291.5,577.3 292.9,587.8 294.4,575.0 295.9,575.0 297.3,575.0 298.8,575.0 300.2,575.0 301.7,595.6 303.2,585.3 304.6,580.4 306.1,575.0 307.5,575.0 309.0,594.9 310.5,581.2 311.9,575.5 313.4,575.0 314.8,575.0 316.3,575.0 317.8,575.0 319.2,575.0 320.7,575.0 322.1,575.0 323.6,575.0 325.1,575.0 326.5,575.0 328.0,594.4 329.4,588.8 330.9,588.8 332.4,588.8 333.8,588.8 335.3,588.8 336.7,588.8 338.2,588.8 339.7,588.8 341.1,599.5 342.6,599.5 344.0,599.5 345.5,599.5 347.0,599.5 348.4,599.5 349.9,599.5 351.3,599.5 352.8,599.5 354.3,599.5 355.7,599.5 357.2,599.5 358.6,629.6 360.1,629.6 361.6,620.9 363.0,620.9 364.5,620.9 365.9,614.1 367.4,602.4 368.9,602.4 370.3,602.4 371.8,602.4 373.2,589.6 374.7,589.6 376.2,575.0 377.6,575.0 379.1,575.0 380.5,603.0 382.0,590.4 383.5,582.4 384.9,582.4 386.4,575.0 387.8,575.0 389.3,575.0 390.8,575.0 392.2,575.0 393.7,575.0 395.1,583.5 396.6,583.5 398.1,583.5 399.5,583.5 401.0,596.1 402.4,596.1 403.9,590.5 405.4,590.5 406.8,586.4 408.3,597.4 409.7,597.4 411.2,597.4 412.7,597.4 414.1,597.4 415.6,597.4 417.0,590.5 418.5,590.5 420.0,590.5 421.4,590.5 422.9,590.5 424.3,602.7 425.8,602.7 427.3,597.0 428.7,597.0 430.2,597.0 431.6,597.0 433.1,597.0 434.6,593.3 436.0,593.3 437.5,593.3 438.9,586.8 440.4,586.8 441.9,581.5 443.3,581.5 444.8,581.5 446.2,575.4 447.7,575.4 449.2,575.4 450.6,575.4 452.1,575.4 453.5,575.4 455.0,575.0 456.5,575.0 457.9,575.0 459.4,575.0 460.8,575.0 462.3,575.0 463.8,575.0 465.2,587.3 466.7,583.3 468.1,596.0 469.6,604.0 471.1,613.5 472.5,609.5 474.0,609.5 475.4,609.5 476.9,600.8 478.4,596.4 479.8,609.5 481.3,609.5 482.7,609.5 484.2,605.6 485.7,605.6 487.1,600.8 488.6,600.8 490.0,619.4 491.5,614.3 493.0,628.2 494.4,628.2 495.9,631.3 497.3,631.3 498.8,645.2 500.3,645.2 501.7,645.2 503.2,645.2 504.6,645.2 506.1,638.5 507.6,638.5 509.0,638.5 510.5,632.5 511.9,632.5 513.4,632.5 514.9,632.5 516.3,632.5 517.8,632.5 519.2,632.5 520.7,632.5 522.2,622.1 523.6,622.1 525.1,622.1 526.5,622.1 528.0,618.5 529.5,618.5 530.9,618.5 532.4,618.5 533.8,614.2 535.3,609.8 536.8,609.8 538.2,609.8 539.7,609.8 541.1,609.8 542.6,603.1 544.1,603.1 545.5,603.1 547.0,603.1 548.4,640.7 549.9,625.3 551.4,608.0 552.8,608.0 554.3,608.0 555.7,608.0 557.2,597.2 558.7,597.2 560.1,617.4 561.6,617.4 563.0,608.3 564.5,601.1 566.0,627.0 567.4,627.0 568.9,671.9 570.3,665.1 571.8,665.1 573.3,660.4 574.7,654.8 576.2,648.5 577.6,642.5 579.1,642.5 580.6,635.4 582.0,635.4 583.5,631.0 584.9,631.0 586.4,631.0 587.9,627.4 589.3,627.4 590.8,642.5 592.2,642.5 593.7,642.5 595.2,642.5 596.6,642.5 598.1,642.5 599.5,631.2 601.0,618.5 602.5,612.5 603.9,612.5 605.4,612.5 606.8,612.5 608.3,612.5 609.8,612.5 611.2,628.8 612.7,628.8 614.1,625.2 615.6,617.7 617.1,617.7 618.5,617.7 620.0,629.2 621.4,637.5 622.9,648.2 624.4,641.9 625.8,653.8 627.3,653.8 628.7,653.8 630.2,649.4 631.7,641.9 633.1,641.9 634.6,641.9 636.0,637.1 637.5,637.1 639.0,637.1 640.4,637.1 641.9,631.2 643.3,631.2 644.8,616.2 646.3,616.2 647.7,605.3 649.2,594.4 650.6,594.4 652.1,594.4 653.6,594.4 655.0,594.4 656.5,575.0 657.9,575.0 659.4,575.0 660.9,575.0 662.3,575.0 663.8,575.0 665.2,603.7 666.7,603.7 668.2,603.7 669.6,633.3 671.1,622.2 672.5,665.4 674.0,657.3 675.5,657.3 676.9,651.9 678.4,645.4 679.8,629.9 681.3,622.6 682.8,608.4 684.2,601.5 685.7,601.5 687.1,579.1 688.6,579.1 690.1,579.1 691.5,575.0 693.0,575.0 694.4,575.0 695.9,575.0 697.4,575.0 698.8,575.0 700.3,612.3 701.7,600.7 703.2,587.4 704.7,576.7 706.1,592.8 707.6,575.0 709.0,594.0 710.5,619.9 712.0,614.3 713.4,611.0 714.9,622.5 716.3,622.5 717.8,622.5 719.3,622.5 720.7,622.5 722.2,622.5 723.7,608.0 725.1,608.0 726.6,608.0 728.0,608.0 729.5,608.0 731.0,608.0 732.4,608.0 733.9,608.0 735.3,623.3 736.8,623.3 738.3,623.3 739.7,623.3 741.2,623.3 742.6,623.3 744.1,633.3 745.6,633.3 747.0,628.9 748.5,628.9 749.9,628.9 751.4,628.9 752.9,628.9 754.3,628.9 755.8,628.9 757.2,628.9 758.7,628.9 760.2,628.9 761.6,623.7 763.1,623.7 764.5,623.7 766.0,618.8 767.5,634.5 768.9,634.5 770.4,634.5 771.8,634.5 773.3,634.5 774.8,634.5 776.2,626.3 777.7,621.4 779.1,615.9 780.6,615.9 782.1,615.9 783.5,615.9 785.0,612.5 786.4,622.6 787.9,622.6 789.4,622.6 790.8,634.5 792.3,634.5 793.7,634.5 795.2,634.5 796.7,634.5 798.1,634.5 799.6,634.5 801.0,634.5 802.5,634.5 804.0,607.7 805.4,592.8 806.9,592.8 808.3,592.8 809.8,592.8 811.3,592.8 812.7,640.6 814.2,640.6 815.6,629.6 817.1,629.6 818.6,629.6 820.0,617.2 821.5,635.5 822.9,618.0 824.4,609.5 825.9,639.2 827.3,662.6 828.8,654.8 830.2,648.5 831.7,641.4 833.2,641.4 834.6,641.4 836.1,621.9 837.5,612.9 839.0,612.9 840.5,606.2 841.9,601.0 843.4,576.6 844.8,576.6 846.3,575.0 847.8,575.0 849.2,575.0 850.7,575.0 852.1,575.0 853.6,575.0 855.1,575.0 856.5,575.0 858.0,575.0 859.4,575.0 860.9,575.0 862.4,575.0 863.8,575.0 865.3,575.0 866.7,604.6 868.2,575.0 869.7,575.0 871.1,575.0 872.6,575.0 874.0,575.0 875.5,575.0 877.0,575.0 878.4,575.0 879.9,575.0 881.3,619.8 882.8,601.4 884.3,601.4 885.7,591.5 887.2,583.0 888.6,583.0 890.1,583.0 891.6,575.0 893.0,575.0 894.5,575.0 895.9,591.9 897.4,578.1 898.9,578.1 900.3,578.1 901.8,578.1 903.2,578.1 904.7,578.1 906.2,635.3 907.6,604.9 909.1,644.0 910.5,644.0 912.0,613.1 913.5,588.4 914.9,575.0 916.4,575.0 917.8,575.0 919.3,575.0 920.8,613.3 922.2,613.3 923.7,597.1 925.1,597.1 926.6,587.3 928.1,615.6 929.5,615.6 931.0,615.6 932.4,615.6 933.9,615.6 935.4,615.6 936.8,602.4 938.3,630.0 939.7,630.0 941.2,630.0 942.7,630.0 944.1,630.0 945.6,630.0 947.0,630.0 948.5,630.0 950.0,613.0 951.4,613.0 952.9,605.4 954.3,605.4 955.8,605.4 957.3,600.4 958.7,589.8 960.2,589.8 961.6,589.8 963.1,580.8 964.6,580.8 966.0,580.8 967.5,580.8 968.9,580.8 970.4,580.8 971.9,580.8 973.3,580.8 974.8,575.0 976.2,600.8 977.7,600.8 979.2,600.8 980.6,600.8 982.1,622.1 983.5,615.6 985.0,612.3 986.5,612.3 987.9,612.3 989.4,612.3 990.8,612.3 992.3,606.4 993.8,606.4 995.2,606.4 996.7,606.4 998.1,606.4 999.6,606.4 1001.1,606.4 1002.5,606.4 1004.0,606.4 1005.4,620.2 1006.9,620.2 1008.4,615.6 1009.8,610.3 1011.3,610.3 1012.7,625.4 1014.2,620.8 1015.7,620.8 1017.1,620.8 1018.6,631.9 1020.0,631.9 1021.5,609.5 1023.0,609.5 1024.4,609.5 1025.9,609.5 1027.3,609.5 1028.8,601.6 1030.3,593.0 1031.7,593.0 1033.2,593.0 1034.6,593.0 1036.1,606.8 1037.6,606.8 1039.0,606.8 1040.5,606.8 1041.9,618.6 1043.4,618.6 1044.9,618.6 1046.3,618.6 1047.8,618.6 1049.2,618.6 1050.7,609.2 1052.2,605.0 1053.6,592.6 1055.1,621.8 1056.5,629.0 1058.0,624.1 1059.5,624.1 1060.9,620.8 1062.4,632.9 1063.8,643.1 1065.3,643.1 1066.8,643.1 1068.2,643.1 1069.7,643.1 1071.1,643.1 1072.6,643.1 1074.1,643.1 1075.5,643.1 1077.0,650.9 1078.4,663.0 1079.9,652.2 1081.4,647.3 1082.8,647.3 1084.3,639.4 1085.7,639.4 1087.2,635.8 1088.7,635.8 1090.1,635.8 1091.6,635.8 1093.0,635.8 1094.5,635.8 1096.0,629.6 1097.4,620.2 1098.9,620.2 1100.3,636.0 1101.8,636.0 1103.3,636.0 1104.7,636.0 1106.2,636.0 1107.6,653.3 1109.1,653.3 1110.6,647.1 1112.0,643.5 1113.5,643.5 1114.9,643.5 1116.4,643.5 1117.9,633.0 1119.3,633.0 1120.8,616.9 1122.2,616.9 1123.7,599.4 1125.2,599.4 1126.6,595.4 1128.1,588.9 1129.5,578.0 1131.0,578.0 1132.5,575.0 1133.9,612.6 1135.4,594.0 1136.8,577.5 1138.3,604.3 1139.8,604.3 1141.2,604.3 1142.7,595.9 1144.1,586.3 1145.6,581.8 1147.1,575.0 1148.5,575.0 1150.0,575.0 1151.4,575.0 1152.9,575.0 1154.4,599.9 1155.8,599.9 1157.3,586.4 1158.7,586.4 1160.2,575.0 1161.7,575.0 1163.1,575.0 1164.6,575.0 1166.0,575.0 1167.5,575.0 1169.0,575.0 1170.4,575.0 1171.9,575.0 1173.3,575.0 1174.8,580.7 1176.3,577.1 1177.7,575.0 1179.2,594.9 1180.6,594.9 1182.1,594.9 1183.6,594.9 1185.0,586.4 1186.5,579.6 1187.9,579.6 1189.4,579.6 1190.9,579.6 1192.3,575.0 1193.8,587.8 1195.2,575.0 1196.7,575.0 1198.2,575.0 1199.6,575.0 1201.1,581.0 1202.5,581.0 1204.0,575.0 1205.5,575.0 1206.9,575.0 1208.4,575.0 1209.8,575.0 1211.3,575.0 1212.8,607.3 1214.2,607.3 1215.7,607.3 1217.1,607.3 1218.6,607.3 1220.1,625.4 1221.5,610.3 1223.0,596.6 1224.4,582.9 1225.9,575.7 1227.4,575.0 1228.8,575.0 1230.3,575.0 1231.7,575.0 1233.2,575.0 1234.7,575.0 1236.1,575.0 1237.6,575.0 1239.0,575.0 1240.5,597.2 1242.0,597.2 1243.4,582.5 1244.9,577.4 1246.3,575.0 1247.8,575.0 1249.3,575.0 1250.7,575.0 1252.2,589.9 1253.6,589.9 1255.1,589.9 1256.6,589.9 1258.0,589.9 1259.5,589.9 1260.9,589.9 1262.4,589.9 1263.9,589.9 1265.3,589.9 1266.8,589.9 1268.2,582.6 1269.7,575.0 1271.2,575.0 1272.6,575.0 1274.1,575.0 1275.5,575.0 1277.0,584.7 1278.5,575.0 1279.9,575.0 1281.4,575.0 1282.8,575.0 1284.3,575.0 1285.8,585.5 1287.2,575.7 1288.7,575.7 1290.1,575.7 1291.6,575.0 1293.1,575.0 1294.5,575.0 1296.0,579.2 1297.4,575.0 1298.9,575.0 1300.4,575.0 1301.8,575.0 1303.3,575.0 1304.7,575.0 1306.2,575.0 1307.7,575.0 1309.1,575.0 1310.6,575.0 1312.0,575.0 1313.5,575.0 1315.0,575.0 1316.4,575.0 1317.9,575.0 1319.3,575.0 1320.8,575.0 1322.3,575.0 1323.7,575.0 1325.2,575.0 1326.6,575.0 1328.1,575.0 1329.6,575.0 1331.0,575.0 1332.5,575.0 1333.9,575.0 1335.4,575.0 1336.9,575.0 1338.3,575.0 1339.8,585.7 1341.2,585.7 1342.7,585.7 1344.2,585.7 1345.6,585.7 1347.1,593.4 1348.5,593.4 1350.0,585.4" fill="none" stroke="#b52b27" stroke-width="2.5"/><polyline points="90.0,575.0 91.5,575.0 92.9,575.0 94.4,578.7 95.8,591.5 97.3,594.6 98.8,579.7 100.2,575.0 101.7,578.9 103.1,575.0 104.6,575.0 106.1,575.0 107.5,583.4 109.0,575.7 110.4,575.0 111.9,575.0 113.4,580.9 114.8,582.2 116.3,575.0 117.7,582.0 119.2,591.0 120.7,588.5 122.1,579.4 123.6,581.6 125.0,575.8 126.5,590.5 128.0,590.3 129.4,606.2 130.9,606.4 132.3,604.5 133.8,613.5 135.3,609.3 136.7,616.4 138.2,617.0 139.6,611.5 141.1,595.8 142.6,595.8 144.0,609.3 145.5,608.5 146.9,626.2 148.4,632.6 149.9,635.3 151.3,623.1 152.8,629.0 154.2,613.9 155.7,624.3 157.2,618.9 158.6,608.0 160.1,620.7 161.5,618.3 163.0,613.0 164.5,611.9 165.9,612.7 167.4,603.8 168.8,596.9 170.3,585.4 171.8,583.7 173.2,586.8 174.7,590.5 176.1,587.4 177.6,584.5 179.1,585.0 180.5,590.7 182.0,578.3 183.4,578.4 184.9,576.8 186.4,576.8 187.8,578.8 189.3,581.3 190.7,580.6 192.2,580.2 193.7,589.3 195.1,594.4 196.6,581.0 198.0,575.0 199.5,577.3 201.0,585.5 202.4,594.7 203.9,595.4 205.3,583.1 206.8,582.4 208.3,584.8 209.7,580.8 211.2,582.6 212.6,586.0 214.1,582.3 215.6,585.9 217.0,577.3 218.5,575.0 219.9,577.7 221.4,575.0 222.9,585.7 224.3,589.4 225.8,587.3 227.2,575.0 228.7,575.3 230.2,579.3 231.6,575.0 233.1,575.0 234.5,577.8 236.0,575.0 237.5,578.8 238.9,575.0 240.4,575.0 241.8,575.0 243.3,575.0 244.8,575.0 246.2,575.0 247.7,579.7 249.1,583.8 250.6,588.5 252.1,585.4 253.5,592.9 255.0,593.9 256.4,587.6 257.9,584.7 259.4,582.1 260.8,575.0 262.3,575.0 263.7,577.2 265.2,583.6 266.7,585.3 268.1,583.3 269.6,578.0 271.0,575.0 272.5,575.0 274.0,575.2 275.4,575.0 276.9,575.0 278.3,575.1 279.8,578.4 281.3,578.8 282.7,575.0 284.2,575.0 285.6,575.0 287.1,580.3 288.6,575.0 290.0,575.0 291.5,580.3 292.9,588.1 294.4,590.0 295.9,595.8 297.3,588.3 298.8,592.3 300.2,595.7 301.7,596.4 303.2,597.6 304.6,592.5 306.1,602.5 307.5,609.4 309.0,616.0 310.5,615.7 311.9,611.1 313.4,611.9 314.8,599.0 316.3,613.9 317.8,609.0 319.2,603.2 320.7,590.8 322.1,587.7 323.6,588.5 325.1,588.0 326.5,591.4 328.0,597.0 329.4,599.2 330.9,598.9 332.4,593.5 333.8,597.2 335.3,595.4 336.7,588.5 338.2,602.4 339.7,601.2 341.1,603.1 342.6,612.5 344.0,625.3 345.5,626.1 347.0,623.4 348.4,633.9 349.9,633.6 351.3,629.9 352.8,632.2 354.3,632.3 355.7,643.3 357.2,638.2 358.6,638.7 360.1,627.2 361.6,623.1 363.0,618.7 364.5,613.6 365.9,620.0 367.4,626.5 368.9,616.0 370.3,617.9 371.8,626.6 373.2,635.3 374.7,645.1 376.2,642.8 377.6,640.1 379.1,654.3 380.5,656.0 382.0,664.3 383.5,655.4 384.9,651.3 386.4,639.4 387.8,627.6 389.3,617.5 390.8,618.4 392.2,614.8 393.7,615.0 395.1,620.6 396.6,608.2 398.1,607.8 399.5,591.1 401.0,590.6 402.4,588.7 403.9,589.2 405.4,581.3 406.8,584.1 408.3,580.6 409.7,579.6 411.2,580.9 412.7,579.8 414.1,580.5 415.6,578.1 417.0,575.0 418.5,582.5 420.0,579.4 421.4,585.0 422.9,578.3 424.3,575.0 425.8,575.0 427.3,575.0 428.7,575.0 430.2,575.6 431.6,578.5 433.1,575.5 434.6,575.0 436.0,585.8 437.5,579.2 438.9,577.8 440.4,575.0 441.9,575.0 443.3,575.0 444.8,578.6 446.2,583.3 447.7,588.9 449.2,591.7 450.6,590.5 452.1,580.1 453.5,580.9 455.0,575.0 456.5,577.9 457.9,577.6 459.4,579.2 460.8,583.6 462.3,575.6 463.8,575.0 465.2,575.0 466.7,575.0 468.1,575.8 469.6,575.0 471.1,575.2 472.5,575.0 474.0,578.7 475.4,587.8 476.9,575.0 478.4,575.0 479.8,576.9 481.3,575.0 482.7,575.0 484.2,575.0 485.7,575.0 487.1,576.4 488.6,586.6 490.0,579.0 491.5,575.0 493.0,580.6 494.4,584.5 495.9,576.2 497.3,575.0 498.8,575.5 500.3,577.7 501.7,576.0 503.2,577.7 504.6,575.0 506.1,575.0 507.6,575.7 509.0,583.4 510.5,580.1 511.9,575.0 513.4,580.5 514.9,578.8 516.3,575.0 517.8,575.8 519.2,579.6 520.7,587.0 522.2,582.6 523.6,577.6 525.1,575.0 526.5,575.0 528.0,578.5 529.5,578.9 530.9,580.2 532.4,575.7 533.8,575.0 535.3,577.1 536.8,581.9 538.2,578.9 539.7,590.8 541.1,582.1 542.6,581.8 544.1,580.7 545.5,591.0 547.0,582.7 548.4,596.4 549.9,605.5 551.4,604.7 552.8,611.1 554.3,615.0 555.7,621.5 557.2,613.9 558.7,602.2 560.1,608.8 561.6,601.1 563.0,598.5 564.5,596.6 566.0,610.7 567.4,609.0 568.9,602.1 570.3,592.5 571.8,585.7 573.3,584.3 574.7,584.8 576.2,578.9 577.6,579.9 579.1,578.6 580.6,575.0 582.0,575.0 583.5,577.4 584.9,575.9 586.4,575.4 587.9,575.0 589.3,575.7 590.8,583.7 592.2,578.3 593.7,578.5 595.2,586.9 596.6,590.6 598.1,580.2 599.5,581.3 601.0,578.9 602.5,575.0 603.9,575.8 605.4,577.6 606.8,575.0 608.3,575.0 609.8,575.0 611.2,575.0 612.7,575.0 614.1,575.0 615.6,575.0 617.1,577.5 618.5,582.0 620.0,584.0 621.4,581.5 622.9,582.6 624.4,577.7 625.8,580.7 627.3,581.1 628.7,575.9 630.2,575.0 631.7,575.0 633.1,575.0 634.6,575.6 636.0,575.0 637.5,582.0 639.0,576.9 640.4,575.0 641.9,575.0 643.3,584.6 644.8,591.5 646.3,598.5 647.7,590.5 649.2,594.9 650.6,608.4 652.1,613.2 653.6,605.7 655.0,607.0 656.5,608.0 657.9,591.7 659.4,610.5 660.9,625.6 662.3,638.4 663.8,642.9 665.2,648.9 666.7,625.1 668.2,623.0 669.6,622.4 671.1,609.3 672.5,606.6 674.0,591.5 675.5,591.0 676.9,582.7 678.4,583.9 679.8,579.9 681.3,586.0 682.8,578.3 684.2,581.3 685.7,580.5 687.1,590.1 688.6,583.5 690.1,576.3 691.5,595.4 693.0,596.5 694.4,598.3 695.9,614.1 697.4,601.4 698.8,599.6 700.3,590.3 701.7,582.8 703.2,579.2 704.7,578.0 706.1,576.4 707.6,575.0 709.0,575.0 710.5,578.2 712.0,576.4 713.4,575.0 714.9,575.4 716.3,575.0 717.8,577.7 719.3,575.0 720.7,583.3 722.2,580.3 723.7,583.2 725.1,576.4 726.6,583.5 728.0,575.8 729.5,575.0 731.0,575.4 732.4,575.0 733.9,575.0 735.3,582.1 736.8,579.6 738.3,577.7 739.7,575.0 741.2,576.6 742.6,577.4 744.1,584.1 745.6,582.9 747.0,585.0 748.5,580.9 749.9,577.5 751.4,585.1 752.9,597.7 754.3,594.8 755.8,597.3 757.2,583.2 758.7,575.0 760.2,575.0 761.6,575.0 763.1,575.0 764.5,577.9 766.0,576.1 767.5,584.0 768.9,592.2 770.4,589.6 771.8,584.7 773.3,588.9 774.8,582.5 776.2,577.4 777.7,579.2 779.1,575.0 780.6,577.4 782.1,575.0 783.5,575.0 785.0,575.0 786.4,575.0 787.9,575.8 789.4,575.0 790.8,579.2 792.3,580.9 793.7,575.8 795.2,577.8 796.7,580.0 798.1,576.9 799.6,579.6 801.0,602.7 802.5,607.7 804.0,596.6 805.4,593.0 806.9,583.9 808.3,584.9 809.8,592.4 811.3,603.3 812.7,604.6 814.2,605.5 815.6,596.7 817.1,591.7 818.6,600.3 820.0,602.2 821.5,614.0 822.9,609.3 824.4,610.0 825.9,594.4 827.3,597.4 828.8,588.7 830.2,579.2 831.7,577.1 833.2,575.0 834.6,577.3 836.1,589.0 837.5,582.1 839.0,583.5 840.5,579.5 841.9,589.3 843.4,587.3 844.8,587.3 846.3,581.2 847.8,579.4 849.2,587.6 850.7,582.3 852.1,580.4 853.6,581.4 855.1,575.0 856.5,575.0 858.0,575.0 859.4,575.0 860.9,577.7 862.4,591.9 863.8,595.1 865.3,598.0 866.7,601.3 868.2,613.7 869.7,600.3 871.1,613.0 872.6,619.8 874.0,617.7 875.5,628.4 877.0,627.8 878.4,650.8 879.9,651.8 881.3,647.7 882.8,657.3 884.3,645.6 885.7,638.9 887.2,647.0 888.6,636.3 890.1,640.6 891.6,641.7 893.0,629.3 894.5,626.2 895.9,638.0 897.4,639.4 898.9,657.0 900.3,652.8 901.8,646.1 903.2,669.8 904.7,682.0 906.2,725.4 907.6,719.5 909.1,746.4 910.5,668.7 912.0,701.9 913.5,684.9 914.9,681.2 916.4,685.9 917.8,696.6 919.3,694.8 920.8,710.5 922.2,681.6 923.7,681.6 925.1,665.0 926.6,661.0 928.1,661.1 929.5,658.7 931.0,649.7 932.4,652.6 933.9,639.1 935.4,644.7 936.8,643.9 938.3,647.3 939.7,642.6 941.2,641.7 942.7,617.5 944.1,610.3 945.6,611.9 947.0,606.2 948.5,608.9 950.0,598.6 951.4,603.1 952.9,616.2 954.3,616.1 955.8,621.9 957.3,604.6 958.7,597.2 960.2,609.1 961.6,608.7 963.1,604.3 964.6,597.5 966.0,598.8 967.5,602.5 968.9,592.7 970.4,592.5 971.9,588.5 973.3,591.8 974.8,592.1 976.2,596.1 977.7,593.9 979.2,597.8 980.6,596.2 982.1,599.0 983.5,587.7 985.0,582.6 986.5,582.4 987.9,575.4 989.4,575.0 990.8,575.0 992.3,575.0 993.8,575.0 995.2,575.0 996.7,581.9 998.1,581.5 999.6,576.9 1001.1,575.0 1002.5,579.5 1004.0,578.0 1005.4,582.3 1006.9,579.3 1008.4,575.0 1009.8,576.2 1011.3,575.0 1012.7,575.0 1014.2,575.0 1015.7,575.0 1017.1,575.0 1018.6,575.1 1020.0,577.8 1021.5,575.0 1023.0,585.6 1024.4,598.9 1025.9,584.7 1027.3,590.9 1028.8,582.2 1030.3,582.6 1031.7,575.5 1033.2,579.3 1034.6,575.0 1036.1,575.0 1037.6,575.0 1039.0,577.4 1040.5,577.1 1041.9,582.9 1043.4,584.8 1044.9,586.5 1046.3,575.0 1047.8,578.3 1049.2,575.0 1050.7,576.2 1052.2,575.0 1053.6,579.8 1055.1,584.8 1056.5,581.9 1058.0,575.0 1059.5,579.6 1060.9,575.4 1062.4,575.0 1063.8,575.0 1065.3,575.0 1066.8,575.6 1068.2,575.0 1069.7,575.5 1071.1,575.0 1072.6,575.0 1074.1,575.0 1075.5,575.0 1077.0,579.1 1078.4,581.5 1079.9,586.5 1081.4,581.0 1082.8,579.4 1084.3,577.6 1085.7,575.0 1087.2,575.0 1088.7,575.0 1090.1,575.0 1091.6,577.3 1093.0,575.0 1094.5,577.3 1096.0,602.7 1097.4,589.1 1098.9,589.3 1100.3,586.0 1101.8,594.0 1103.3,585.9 1104.7,577.6 1106.2,578.6 1107.6,584.0 1109.1,576.9 1110.6,575.0 1112.0,575.0 1113.5,575.0 1114.9,575.7 1116.4,578.5 1117.9,581.9 1119.3,581.7 1120.8,593.7 1122.2,587.5 1123.7,594.2 1125.2,593.7 1126.6,581.9 1128.1,580.0 1129.5,581.6 1131.0,593.4 1132.5,592.4 1133.9,602.5 1135.4,609.2 1136.8,596.6 1138.3,616.2 1139.8,609.0 1141.2,597.6 1142.7,589.2 1144.1,583.6 1145.6,579.6 1147.1,584.0 1148.5,581.1 1150.0,579.6 1151.4,578.1 1152.9,576.6 1154.4,578.2 1155.8,581.0 1157.3,576.9 1158.7,575.0 1160.2,583.3 1161.7,586.3 1163.1,588.5 1164.6,594.6 1166.0,590.1 1167.5,583.8 1169.0,579.3 1170.4,576.0 1171.9,575.0 1173.3,575.0 1174.8,578.2 1176.3,580.1 1177.7,584.2 1179.2,583.7 1180.6,578.2 1182.1,575.0 1183.6,577.5 1185.0,578.3 1186.5,575.0 1187.9,575.8 1189.4,576.1 1190.9,581.2 1192.3,576.9 1193.8,578.8 1195.2,594.6 1196.7,584.4 1198.2,581.4 1199.6,583.1 1201.1,576.9 1202.5,575.0 1204.0,578.1 1205.5,580.6 1206.9,583.2 1208.4,575.2 1209.8,585.4 1211.3,586.5 1212.8,603.7 1214.2,583.2 1215.7,579.3 1217.1,579.3 1218.6,580.8 1220.1,595.4 1221.5,595.0 1223.0,594.0 1224.4,588.9 1225.9,589.6 1227.4,584.4 1228.8,592.3 1230.3,586.4 1231.7,581.2 1233.2,588.4 1234.7,591.6 1236.1,590.8 1237.6,596.5 1239.0,587.6 1240.5,593.6 1242.0,606.8 1243.4,602.0 1244.9,598.7 1246.3,607.0 1247.8,613.0 1249.3,617.2 1250.7,610.1 1252.2,608.3 1253.6,619.8 1255.1,619.6 1256.6,629.3 1258.0,625.0 1259.5,623.9 1260.9,626.6 1262.4,636.0 1263.9,654.4 1265.3,657.4 1266.8,630.5 1268.2,627.4 1269.7,626.0 1271.2,623.4 1272.6,604.1 1274.1,602.7 1275.5,597.1 1277.0,595.4 1278.5,588.3 1279.9,578.2 1281.4,575.0 1282.8,575.0 1284.3,575.0 1285.8,576.5 1287.2,579.6 1288.7,575.3 1290.1,576.5 1291.6,575.0 1293.1,575.0 1294.5,579.6 1296.0,578.1 1297.4,575.0 1298.9,575.0 1300.4,575.0 1301.8,575.0 1303.3,577.7 1304.7,575.0 1306.2,575.0 1307.7,576.8 1309.1,575.0 1310.6,575.0 1312.0,575.0 1313.5,575.0 1315.0,578.1 1316.4,575.0 1317.9,575.0 1319.3,586.9 1320.8,586.9 1322.3,586.9 1323.7,585.1 1325.2,590.5 1326.6,585.8 1328.1,579.1 1329.6,579.5 1331.0,579.5 1332.5,579.5 1333.9,579.5 1335.4,575.0 1336.9,576.0 1338.3,575.0 1339.8,575.0 1341.2,575.0 1342.7,575.0 1344.2,575.0 1345.6,575.0 1347.1,585.4 1348.5,580.8 1350.0,602.9" fill="none" stroke="#999" stroke-width="2"/>
</svg>