<svg xmlns="http://www.w3.org/2000/svg" width="1500" height="800" viewBox="0 0 1500 800">
<rect width="100%" height="100%" fill="#fff"/><text x="90" y="35" font-family="Arial" font-size="24" font-weight="700" fill="#172033">Foxchase Trading research portfolio vs SPY buy and hold</text>
<text x="90" y="62" font-family="Arial" font-size="15" fill="#555">401 trades · fixed 20% target-risk budget · non-compounding · natural bid/ask · no added stress</text>
<text x="90" y="90" font-family="Arial" font-size="15" fill="#0b5ed7">Foxchase Trading ending $31,053 (+210.5%)</text><text x="470" y="90" font-family="Arial" font-size="15" fill="#777">SPY ending $19,173 (+91.7%)</text>
<line x1="90" y1="505" x2="1350" y2="505" stroke="#ccd2dc"/><polyline points="90.0,497.8 91.5,497.8 92.9,497.8 94.4,497.8 95.8,497.8 97.3,495.6 98.7,495.6 100.2,495.6 101.6,495.0 103.1,492.7 104.5,490.9 106.0,490.9 107.4,490.9 108.9,486.9 110.3,486.9 111.8,482.7 113.2,480.8 114.7,491.0 116.1,491.0 117.6,480.5 119.0,480.5 120.5,476.8 121.9,473.0 123.4,468.0 124.8,466.7 126.3,466.7 127.7,466.7 129.2,466.7 130.6,466.7 132.1,463.0 133.5,463.0 135.0,463.0 136.5,469.3 137.9,469.3 139.4,467.1 140.8,467.1 142.3,473.2 143.7,473.2 145.2,483.5 146.6,483.5 148.1,480.8 149.5,478.8 151.0,475.1 152.4,472.8 153.9,476.9 155.3,472.3 156.8,464.9 158.2,464.9 159.7,461.1 161.1,461.1 162.6,455.7 164.0,455.7 165.5,455.7 166.9,446.0 168.4,444.7 169.8,444.7 171.3,441.5 172.7,438.0 174.2,435.3 175.6,435.3 177.1,433.5 178.5,433.5 180.0,438.9 181.5,444.9 182.9,444.9 184.4,444.9 185.8,443.5 187.3,443.5 188.7,443.5 190.2,441.6 191.6,439.8 193.1,445.5 194.5,445.5 196.0,445.5 197.4,445.5 198.9,445.5 200.3,445.5 201.8,443.8 203.2,443.8 204.7,443.8 206.1,443.8 207.6,443.8 209.0,446.9 210.5,451.6 211.9,451.6 213.4,450.2 214.8,447.5 216.3,447.5 217.7,446.4 219.2,444.5 220.6,443.2 222.1,440.8 223.5,440.8 225.0,439.6 226.5,437.2 227.9,437.2 229.4,434.5 230.8,434.5 232.3,434.5 233.7,434.5 235.2,436.9 236.6,436.9 238.1,436.9 239.5,435.0 241.0,435.0 242.4,435.0 243.9,435.0 245.3,435.0 246.8,437.9 248.2,436.8 249.7,436.8 251.1,447.0 252.6,447.0 254.0,445.8 255.5,448.9 256.9,446.0 258.4,446.0 259.8,443.7 261.3,440.8 262.7,439.5 264.2,439.5 265.6,438.3 267.1,438.3 268.5,438.3 270.0,438.3 271.5,438.3 272.9,438.3 274.4,438.3 275.8,438.3 277.3,438.3 278.7,437.0 280.2,439.3 281.6,439.3 283.1,439.3 284.5,437.6 286.0,435.9 287.4,434.6 288.9,434.6 290.3,434.6 291.8,430.4 293.2,430.4 294.7,430.4 296.1,430.4 297.6,430.4 299.0,433.2 300.5,429.5 301.9,428.4 303.4,426.9 304.8,426.9 306.3,425.6 307.7,425.6 309.2,422.7 310.6,421.4 312.1,416.8 313.5,416.8 315.0,422.4 316.5,418.6 317.9,417.0 319.4,415.6 320.8,414.9 322.3,414.9 323.7,414.9 325.2,412.5 326.6,412.5 328.1,410.1 329.5,410.1 331.0,410.1 332.4,410.1 333.9,415.7 335.3,414.1 336.8,414.1 338.2,414.1 339.7,414.1 341.1,414.1 342.6,414.1 344.0,414.1 345.5,414.1 346.9,417.2 348.4,417.2 349.8,417.2 351.3,417.2 352.7,417.2 354.2,417.2 355.6,416.6 357.1,419.6 358.5,419.6 360.0,419.6 361.5,419.6 362.9,419.6 364.4,428.2 365.8,428.2 367.3,425.7 368.7,425.7 370.2,428.6 371.6,428.6 373.1,425.2 374.5,425.2 376.0,425.2 377.4,424.4 378.9,420.7 380.3,420.7 381.8,415.9 383.2,415.9 384.7,411.6 386.1,419.8 387.6,416.1 389.0,413.8 390.5,413.8 391.9,409.7 393.4,405.8 394.8,404.1 396.3,401.9 397.7,401.9 399.2,401.9 400.6,404.5 402.1,404.5 403.5,404.5 405.0,404.5 406.5,408.3 407.9,408.3 409.4,406.6 410.8,406.6 412.3,405.4 413.7,408.7 415.2,408.7 416.6,408.7 418.1,408.7 419.5,408.7 421.0,408.7 422.4,406.6 423.9,406.6 425.3,406.6 426.8,406.6 428.2,406.6 429.7,410.3 431.1,410.3 432.6,410.3 434.0,410.3 435.5,410.3 436.9,410.3 438.4,410.3 439.8,409.2 441.3,409.2 442.7,409.2 444.2,407.2 445.6,407.2 447.1,405.6 448.5,405.6 450.0,405.6 451.5,403.7 452.9,403.7 454.4,403.7 455.8,403.7 457.3,403.7 458.7,403.7 460.2,402.1 461.6,402.1 463.1,402.1 464.5,399.8 466.0,397.0 467.4,397.0 468.9,397.0 470.3,400.9 471.8,399.6 473.2,403.6 474.7,406.1 476.1,409.1 477.6,407.8 479.0,406.6 480.5,406.6 481.9,403.9 483.4,402.5 484.8,406.6 486.3,406.6 487.7,406.6 489.2,405.4 490.6,405.4 492.1,403.9 493.5,403.9 495.0,409.7 496.5,408.1 497.9,412.4 499.4,412.4 500.8,413.6 502.3,413.6 503.7,417.9 505.2,417.9 506.6,417.9 508.1,417.9 509.5,417.9 511.0,415.8 512.4,415.8 513.9,415.8 515.3,413.9 516.8,413.9 518.2,413.9 519.7,413.9 521.1,413.9 522.6,413.9 524.0,413.9 525.5,413.9 526.9,410.7 528.4,410.7 529.8,410.7 531.3,410.7 532.7,409.6 534.2,409.6 535.6,409.6 537.1,409.6 538.5,408.2 540.0,406.8 541.5,406.8 542.9,406.8 544.4,406.8 545.8,406.8 547.3,404.7 548.7,404.7 550.2,404.7 551.6,404.7 553.1,416.5 554.5,411.7 556.0,406.3 557.4,406.3 558.9,406.3 560.3,406.3 561.8,402.9 563.2,402.0 564.7,408.3 566.1,408.3 567.6,405.5 569.0,403.2 570.5,411.3 571.9,411.3 573.4,425.4 574.8,423.3 576.3,423.3 577.7,421.8 579.2,420.0 580.6,418.0 582.1,416.2 583.5,416.2 585.0,413.9 586.5,413.9 587.9,412.6 589.4,412.6 590.8,412.6 592.3,411.5 593.7,411.5 595.2,416.2 596.6,415.6 598.1,415.6 599.5,415.6 601.0,415.6 602.4,415.6 603.9,412.0 605.3,408.0 606.8,406.2 608.2,406.2 609.7,406.2 611.1,406.2 612.6,406.2 614.0,406.2 615.5,411.3 616.9,411.3 618.4,410.2 619.8,407.8 621.3,407.8 622.7,407.8 624.2,411.4 625.6,414.0 627.1,417.3 628.5,415.4 630.0,419.1 631.5,419.1 632.9,419.1 634.4,417.7 635.8,415.4 637.3,415.4 638.7,415.4 640.2,413.9 641.6,413.9 643.1,413.9 644.5,413.0 646.0,411.1 647.4,411.1 648.9,406.5 650.3,406.5 651.8,403.1 653.2,399.7 654.7,399.7 656.1,399.7 657.6,398.5 659.0,398.5 660.5,392.2 661.9,392.2 663.4,385.2 664.8,385.2 666.3,385.2 667.7,385.2 669.2,394.4 670.6,394.4 672.1,394.4 673.5,403.9 675.0,400.3 676.5,400.3 677.9,397.7 679.4,397.7 680.8,396.0 682.3,393.9 683.7,388.9 685.2,386.6 686.6,382.0 688.1,379.8 689.5,379.8 691.0,372.6 692.4,372.6 693.9,371.7 695.3,366.2 696.8,366.2 698.2,366.2 699.7,366.2 701.1,362.0 702.6,362.0 704.0,362.0 705.5,358.1 706.9,353.7 708.4,350.2 709.8,355.5 711.3,347.4 712.7,353.7 714.2,362.4 715.6,360.5 717.1,359.4 718.5,363.2 720.0,363.2 721.5,363.2 722.9,363.2 724.4,363.2 725.8,363.2 727.3,358.4 728.7,358.4 730.2,358.4 731.6,358.4 733.1,357.5 734.5,357.5 736.0,356.5 737.4,356.5 738.9,361.6 740.3,361.6 741.8,361.6 743.2,361.6 744.7,361.6 746.1,361.6 747.6,365.0 749.0,365.0 750.5,363.5 751.9,363.5 753.4,363.5 754.8,363.5 756.3,363.5 757.7,362.8 759.2,362.8 760.6,362.8 762.1,362.8 763.5,362.8 765.0,361.0 766.5,361.0 767.9,361.0 769.4,361.0 770.8,366.2 772.3,366.2 773.7,366.2 775.2,366.2 776.6,366.2 778.1,366.2 779.5,363.5 781.0,361.9 782.4,360.0 783.9,360.0 785.3,360.0 786.8,359.5 788.2,358.4 789.7,361.8 791.1,360.9 792.6,360.9 794.0,364.9 795.5,364.9 796.9,364.9 798.4,364.9 799.8,364.9 801.3,364.9 802.7,364.9 804.2,364.9 805.6,364.9 807.1,355.9 808.5,351.0 810.0,351.0 811.5,351.0 812.9,351.0 814.4,351.0 815.8,366.9 817.3,366.9 818.7,363.2 820.2,363.2 821.6,363.2 823.1,359.1 824.5,365.2 826.0,359.4 827.4,356.5 828.9,356.5 830.3,364.3 831.8,361.7 833.2,359.6 834.7,357.3 836.1,357.3 837.6,357.3 839.0,350.7 840.5,347.8 841.9,347.8 843.4,345.5 844.8,343.8 846.3,335.7 847.7,335.7 849.2,332.8 850.6,330.2 852.1,324.4 853.5,324.4 855.0,324.4 856.5,324.4 857.9,324.4 859.4,322.5 860.8,322.5 862.3,322.5 863.7,322.5 865.2,317.1 866.6,317.1 868.1,317.1 869.5,327.6 871.0,315.9 872.4,315.9 873.9,315.9 875.3,315.9 876.8,315.9 878.2,315.9 879.7,315.9 881.1,315.9 882.6,315.9 884.0,315.9 885.5,309.4 886.9,309.4 888.4,305.8 889.8,299.3 891.3,299.3 892.7,299.3 894.2,293.2 895.6,293.2 897.1,293.2 898.5,299.3 900.0,294.4 901.5,294.4 902.9,294.4 904.4,294.4 905.8,294.4 907.3,294.4 908.7,314.9 910.2,304.0 911.6,318.0 913.1,318.0 914.5,318.0 916.0,309.2 917.4,303.1 918.9,297.2 920.3,297.2 921.8,290.8 923.2,305.2 924.7,305.2 926.1,299.1 927.6,299.1 929.0,295.4 930.5,306.1 931.9,306.1 933.4,306.1 934.8,306.1 936.3,306.1 937.7,306.1 939.2,301.1 940.6,311.5 942.1,311.5 943.5,311.5 945.0,311.5 946.5,311.5 947.9,311.5 949.4,311.5 950.8,311.5 952.3,305.1 953.7,305.1 955.2,302.2 956.6,302.2 958.1,302.2 959.5,300.4 961.0,296.4 962.4,296.4 963.9,296.4 965.3,293.0 966.8,293.0 968.2,293.0 969.7,293.0 971.1,293.0 972.6,293.0 974.0,293.0 975.5,293.0 976.9,287.5 978.4,297.3 979.8,297.3 981.3,297.3 982.7,297.3 984.2,305.3 985.6,302.9 987.1,301.6 988.5,301.6 990.0,301.6 991.5,301.6 992.9,301.6 994.4,299.4 995.8,299.4 997.3,299.4 998.7,299.4 1000.2,299.4 1001.6,299.4 1003.1,299.4 1004.5,299.4 1006.0,299.4 1007.4,299.4 1008.9,299.4 1010.3,297.6 1011.8,295.7 1013.2,295.7 1014.7,301.4 1016.1,299.6 1017.6,299.6 1019.0,299.6 1020.5,303.8 1021.9,303.8 1023.4,295.3 1024.8,295.3 1026.3,295.3 1027.7,295.3 1029.2,295.3 1030.6,292.4 1032.1,289.1 1033.5,289.1 1035.0,289.1 1036.5,289.1 1037.9,294.3 1039.4,294.3 1040.8,294.3 1042.3,294.3 1043.7,298.8 1045.2,298.8 1046.6,298.8 1048.1,295.8 1049.5,295.8 1051.0,295.8 1052.4,292.3 1053.9,290.6 1055.3,286.0 1056.8,297.0 1058.2,299.8 1059.7,297.9 1061.1,297.9 1062.6,296.7 1064.0,301.2 1065.5,305.1 1066.9,305.1 1068.4,305.1 1069.8,305.1 1071.3,305.1 1072.7,305.1 1074.2,305.1 1075.6,305.1 1077.1,305.1 1078.5,308.1 1080.0,312.7 1081.5,308.5 1082.9,306.7 1084.4,306.7 1085.8,303.7 1087.3,303.7 1088.7,302.3 1090.2,302.3 1091.6,302.3 1093.1,302.3 1094.5,301.3 1096.0,301.3 1097.4,299.0 1098.9,295.4 1100.3,295.4 1101.8,301.4 1103.2,304.6 1104.7,304.6 1106.1,304.6 1107.6,303.4 1109.0,310.0 1110.5,310.0 1111.9,310.0 1113.4,308.6 1114.8,308.6 1116.3,308.6 1117.7,308.6 1119.2,304.6 1120.6,304.6 1122.1,298.5 1123.5,298.5 1125.0,291.9 1126.5,291.9 1127.9,290.4 1129.4,287.9 1130.8,283.8 1132.3,283.8 1133.7,277.1 1135.2,291.6 1136.6,284.4 1138.1,278.0 1139.5,288.4 1141.0,288.4 1142.4,287.3 1143.9,284.0 1145.3,280.3 1146.8,278.6 1148.2,273.2 1149.7,270.2 1151.1,270.2 1152.6,267.7 1154.0,265.1 1155.5,275.1 1156.9,275.1 1158.4,269.7 1159.8,269.7 1161.3,264.9 1162.7,258.8 1164.2,258.8 1165.6,253.9 1167.1,253.9 1168.5,253.9 1170.0,253.9 1171.5,253.9 1172.9,253.9 1174.4,252.3 1175.8,254.7 1177.3,253.2 1178.7,251.0 1180.2,259.3 1181.6,259.3 1183.1,259.3 1184.5,258.7 1186.0,255.1 1187.4,252.3 1188.9,252.3 1190.3,252.3 1191.8,252.3 1193.2,250.2 1194.7,255.5 1196.1,247.0 1197.6,240.9 1199.0,239.2 1200.5,239.2 1201.9,241.8 1203.4,241.8 1204.8,237.0 1206.3,228.1 1207.7,224.1 1209.2,224.1 1210.6,219.1 1212.1,219.1 1213.5,233.8 1215.0,233.8 1216.5,233.8 1217.9,233.8 1219.4,233.8 1220.8,242.0 1222.3,242.0 1223.7,235.8 1225.2,229.6 1226.6,226.3 1228.1,221.3 1229.5,215.0 1231.0,213.0 1232.4,209.4 1233.9,209.4 1235.3,204.9 1236.8,196.4 1238.2,190.8 1239.7,190.8 1241.1,201.7 1242.6,201.7 1244.0,194.5 1245.5,192.0 1246.9,192.0 1248.4,192.0 1249.8,192.0 1251.3,187.7 1252.7,195.2 1254.2,195.2 1255.6,195.2 1257.1,195.2 1258.5,195.2 1260.0,195.2 1261.5,195.2 1262.9,195.2 1264.4,195.2 1265.8,195.2 1267.3,194.1 1268.7,190.4 1270.2,183.8 1271.6,183.8 1273.1,183.8 1274.5,183.8 1276.0,181.2 1277.4,181.2 1278.9,176.1 1280.3,176.1 1281.8,173.7 1283.2,171.6 1284.7,167.9 1286.1,173.4 1287.6,168.3 1289.0,167.4 1290.5,167.4 1291.9,164.9 1293.4,162.4 1294.8,159.7 1296.3,157.3 1297.7,153.6 1299.2,151.0 1300.6,151.0 1302.1,151.0 1303.5,151.0 1305.0,151.0 1306.5,149.3 1307.9,147.0 1309.4,144.8 1310.8,144.8 1312.3,144.8 1313.7,144.8 1315.2,144.8 1316.6,144.8 1318.1,144.8 1319.5,138.3 1321.0,138.3 1322.4,138.3 1323.9,138.3 1325.3,133.5 1326.8,128.1 1328.2,128.1 1329.7,124.5 1331.1,124.5 1332.6,124.5 1334.0,124.5 1335.5,124.5 1336.9,121.1 1338.4,121.1 1339.8,127.2 1341.3,127.2 1342.7,127.2 1344.2,127.2 1345.6,127.2 1347.1,131.5 1348.5,131.5 1350.0,127.0" fill="none" stroke="#0b5ed7" stroke-width="3"/><polyline points="90.0,500.1 91.5,501.5 92.9,498.1 94.4,498.4 95.8,496.5 97.3,494.5 98.7,493.8 100.2,493.1 101.6,493.9 103.1,496.6 104.5,497.3 106.0,494.1 107.4,492.2 108.9,493.1 110.3,492.1 111.8,490.7 113.2,489.9 114.7,491.7 116.1,490.0 117.6,486.8 119.0,485.7 120.5,487.0 121.9,487.3 123.4,485.6 124.8,487.1 126.3,489.1 127.7,488.6 129.2,486.6 130.6,487.0 132.1,485.8 133.5,489.0 135.0,489.0 136.5,492.5 137.9,492.6 139.4,492.1 140.8,494.1 142.3,493.2 143.7,494.8 145.2,494.9 146.6,493.7 148.1,490.2 149.5,490.2 151.0,493.2 152.4,493.0 153.9,497.0 155.3,498.4 156.8,499.0 158.2,496.3 159.7,497.6 161.1,494.2 162.6,496.5 164.0,495.3 165.5,492.9 166.9,495.7 168.4,495.2 169.8,494.0 171.3,493.8 172.7,494.0 174.2,492.0 175.6,490.4 177.1,487.9 178.5,487.5 180.0,488.2 181.5,489.0 182.9,488.3 184.4,487.7 185.8,487.8 187.3,489.1 188.7,486.3 190.2,486.3 191.6,486.0 193.1,486.0 194.5,486.4 196.0,487.0 197.4,486.8 198.9,486.7 200.3,488.7 201.8,489.9 203.2,486.9 204.7,485.0 206.1,485.5 207.6,487.3 209.0,489.3 210.5,489.5 211.9,486.8 213.4,486.6 214.8,487.1 216.3,486.2 217.7,486.7 219.2,487.4 220.6,486.6 222.1,487.4 223.5,485.5 225.0,483.2 226.5,483.8 227.9,483.2 229.4,485.6 230.8,486.4 232.3,486.0 233.7,482.9 235.2,483.0 236.6,483.9 238.1,482.2 239.5,479.4 241.0,480.1 242.4,479.2 243.9,480.1 245.3,479.1 246.8,478.5 248.2,476.7 249.7,475.4 251.1,475.2 252.6,473.0 254.0,474.1 255.5,475.1 256.9,476.2 258.4,475.5 259.8,477.3 261.3,477.5 262.7,476.0 264.2,475.3 265.6,474.7 267.1,472.6 268.5,472.1 270.0,472.6 271.5,474.1 272.9,474.5 274.4,474.0 275.8,472.8 277.3,470.9 278.7,469.6 280.2,469.7 281.6,469.1 283.1,467.4 284.5,467.4 286.0,468.2 287.4,468.3 288.9,467.3 290.3,466.8 291.8,466.7 293.2,468.0 294.7,466.0 296.1,465.7 297.6,467.0 299.0,468.9 300.5,469.3 301.9,470.8 303.4,468.9 304.8,469.9 306.3,470.8 307.7,470.9 309.2,471.2 310.6,470.0 312.1,472.4 313.5,474.1 315.0,475.7 316.5,475.7 317.9,474.5 319.4,474.7 320.8,471.6 322.3,475.2 323.7,474.0 325.2,472.6 326.6,469.5 328.1,468.8 329.5,469.0 331.0,468.9 332.4,469.7 333.9,471.1 335.3,471.6 336.8,471.5 338.2,470.2 339.7,471.1 341.1,470.7 342.6,469.0 344.0,472.4 345.5,472.1 346.9,472.6 348.4,474.9 349.8,478.0 351.3,478.2 352.7,477.6 354.2,480.1 355.6,480.1 357.1,479.2 358.5,479.7 360.0,479.7 361.5,482.4 362.9,481.2 364.4,481.3 365.8,478.5 367.3,477.5 368.7,476.4 370.2,475.1 371.6,476.7 373.1,478.3 374.5,475.7 376.0,476.2 377.4,478.3 378.9,480.5 380.3,482.9 381.8,482.3 383.2,481.7 384.7,485.1 386.1,485.5 387.6,487.6 389.0,485.4 390.5,484.4 391.9,481.5 393.4,478.6 394.8,476.1 396.3,476.3 397.7,475.4 399.2,475.5 400.6,476.9 402.1,473.8 403.5,473.7 405.0,469.6 406.5,469.5 407.9,469.0 409.4,469.1 410.8,467.2 412.3,467.9 413.7,467.0 415.2,466.8 416.6,467.1 418.1,466.8 419.5,467.0 421.0,466.4 422.4,464.7 423.9,466.6 425.3,465.8 426.8,467.2 428.2,465.6 429.7,464.4 431.1,463.6 432.6,462.5 434.0,459.1 435.5,459.3 436.9,460.0 438.4,459.2 439.8,457.9 441.3,460.6 442.7,458.9 444.2,458.6 445.6,457.5 447.1,456.8 448.5,456.8 450.0,457.7 451.5,458.9 452.9,460.3 454.4,461.1 455.8,460.8 457.3,458.1 458.7,458.3 460.2,456.8 461.6,457.5 463.1,457.4 464.5,457.8 466.0,459.0 467.4,456.9 468.9,454.2 470.3,453.8 471.8,452.7 473.2,452.9 474.7,452.2 476.1,452.3 477.6,450.2 479.0,451.2 480.5,453.6 481.9,450.0 483.4,449.1 484.8,449.6 486.3,449.0 487.7,447.2 489.2,447.1 490.6,445.7 492.1,446.1 493.5,448.8 495.0,446.8 496.5,445.4 497.9,446.9 499.4,448.0 500.8,445.8 502.3,442.8 503.7,442.9 505.2,443.5 506.6,443.1 508.1,443.5 509.5,442.2 511.0,440.6 512.4,440.8 513.9,442.9 515.3,442.0 516.8,439.3 518.2,440.8 519.7,440.3 521.1,438.3 522.6,438.5 524.0,439.6 525.5,441.6 526.9,440.4 528.4,439.0 529.8,436.1 531.3,435.6 532.7,436.6 534.2,436.7 535.6,437.1 537.1,435.8 538.5,435.6 540.0,436.2 541.5,437.5 542.9,436.6 544.4,440.0 545.8,437.5 547.3,437.5 548.7,437.1 550.2,440.1 551.6,437.7 553.1,441.6 554.5,444.1 556.0,443.9 557.4,445.7 558.9,446.8 560.3,448.6 561.8,446.5 563.2,443.2 564.7,445.0 566.1,442.9 567.6,442.2 569.0,441.6 570.5,445.6 571.9,445.1 573.4,443.2 574.8,440.5 576.3,438.6 577.7,438.2 579.2,438.3 580.6,436.7 582.1,436.9 583.5,436.6 585.0,435.3 586.5,432.2 587.9,432.9 589.4,432.5 590.8,432.3 592.3,431.6 593.7,431.8 595.2,434.1 596.6,432.6 598.1,432.6 599.5,435.0 601.0,436.1 602.4,433.1 603.9,433.4 605.3,432.7 606.8,430.0 608.2,430.2 609.7,430.8 611.1,429.9 612.6,429.1 614.0,426.6 615.5,426.5 616.9,426.4 618.4,424.2 619.8,423.6 621.3,424.4 622.7,425.7 624.2,426.3 625.6,425.5 627.1,425.8 628.5,424.4 630.0,425.3 631.5,425.4 632.9,423.9 634.4,422.6 635.8,421.2 637.3,420.1 638.7,420.3 640.2,418.0 641.6,420.1 643.1,418.5 644.5,417.4 646.0,416.4 647.4,419.3 648.9,421.4 650.3,423.5 651.8,421.1 653.2,422.4 654.7,426.5 656.1,428.0 657.6,425.7 659.0,426.1 660.5,426.4 661.9,421.5 663.4,427.2 664.8,431.7 666.3,435.6 667.7,436.9 669.2,438.8 670.6,431.6 672.1,430.9 673.5,430.8 675.0,426.8 676.5,426.0 677.9,421.4 679.4,421.3 680.8,418.7 682.3,419.1 683.7,417.9 685.2,419.7 686.6,417.4 688.1,418.3 689.5,418.1 691.0,421.0 692.4,419.0 693.9,416.8 695.3,422.6 696.8,422.9 698.2,423.5 699.7,428.2 701.1,424.4 702.6,423.9 704.0,421.1 705.5,418.8 706.9,417.7 708.4,417.3 709.8,416.8 711.3,416.1 712.7,413.7 714.2,414.7 715.6,414.1 717.1,413.2 718.5,413.4 720.0,412.7 721.5,413.5 722.9,412.3 724.4,414.9 725.8,413.9 727.3,414.8 728.7,412.7 730.2,414.9 731.6,412.6 733.1,410.6 734.5,410.7 736.0,409.8 737.4,407.0 738.9,409.2 740.3,408.5 741.8,407.8 743.2,407.0 744.7,407.5 746.1,407.8 747.6,409.9 749.0,409.5 750.5,410.1 751.9,408.9 753.4,407.8 754.8,410.2 756.3,414.1 757.7,413.2 759.2,414.0 760.6,409.6 762.1,404.3 763.5,401.9 765.0,400.9 766.5,400.8 767.9,401.7 769.4,401.1 770.8,403.7 772.3,406.3 773.7,405.5 775.2,403.9 776.6,405.3 778.1,403.2 779.5,401.6 781.0,402.1 782.4,399.4 783.9,400.2 785.3,398.5 786.8,398.3 788.2,398.0 789.7,396.8 791.1,397.0 792.6,396.5 794.0,397.9 795.5,398.5 796.9,396.8 798.4,397.5 799.8,398.2 801.3,397.2 802.7,398.1 804.2,405.6 805.6,407.2 807.1,403.6 808.5,402.4 810.0,399.4 811.5,399.8 812.9,402.2 814.4,405.8 815.8,406.2 817.3,406.5 818.7,403.6 820.2,402.0 821.6,404.8 823.1,405.4 824.5,409.3 826.0,407.7 827.4,408.0 828.9,402.9 830.3,403.9 831.8,401.0 833.2,397.9 834.7,397.2 836.1,395.7 837.6,396.5 839.0,400.3 840.5,398.0 841.9,398.5 843.4,397.2 844.8,400.4 846.3,399.7 847.7,399.7 849.2,397.8 850.6,397.2 852.1,399.8 853.5,398.1 855.0,397.5 856.5,397.8 857.9,395.5 859.4,395.4 860.8,394.4 862.3,394.2 863.7,395.1 865.2,399.8 866.6,400.9 868.1,401.8 869.5,402.9 871.0,406.9 872.4,402.6 873.9,406.7 875.3,409.0 876.8,408.3 878.2,411.8 879.7,411.6 881.1,419.1 882.6,419.5 884.0,418.1 885.5,421.3 886.9,417.4 888.4,415.2 889.8,417.9 891.3,414.4 892.7,415.8 894.2,416.1 895.6,412.1 897.1,411.0 898.5,414.9 900.0,415.4 901.5,421.2 902.9,419.8 904.4,417.6 905.8,425.4 907.3,429.4 908.7,443.6 910.2,441.7 911.6,450.5 913.1,425.0 914.5,435.9 916.0,430.3 917.4,429.1 918.9,430.6 920.3,434.2 921.8,433.6 923.2,438.7 924.7,429.2 926.1,429.2 927.6,423.8 929.0,422.5 930.5,422.5 931.9,421.7 933.4,418.8 934.8,419.7 936.3,415.3 937.7,417.1 939.2,416.9 940.6,418.0 942.1,416.4 943.5,416.1 945.0,408.2 946.5,405.8 947.9,406.4 949.4,404.5 950.8,405.4 952.3,402.0 953.7,403.5 955.2,407.8 956.6,407.7 958.1,409.7 959.5,404.0 961.0,401.5 962.4,405.4 963.9,405.3 965.3,403.9 966.8,401.6 968.2,402.0 969.7,403.3 971.1,400.1 972.6,400.0 974.0,398.7 975.5,399.7 976.9,399.9 978.4,401.2 979.8,400.4 981.3,401.7 982.7,401.2 984.2,402.1 985.6,398.4 987.1,396.7 988.5,396.7 990.0,394.4 991.5,393.7 992.9,391.8 994.4,391.7 995.8,390.4 997.3,388.4 998.7,390.7 1000.2,390.5 1001.6,389.0 1003.1,387.8 1004.5,389.3 1006.0,388.8 1007.4,390.2 1008.9,389.2 1010.3,386.7 1011.8,387.0 1013.2,386.5 1014.7,385.8 1016.1,383.9 1017.6,383.6 1019.0,382.6 1020.5,382.7 1021.9,383.6 1023.4,381.9 1024.8,385.6 1026.3,390.1 1027.7,385.2 1029.2,387.4 1030.6,384.4 1032.1,384.5 1033.5,382.1 1035.0,383.4 1036.5,380.0 1037.9,379.3 1039.4,379.1 1040.8,379.9 1042.3,379.8 1043.7,381.8 1045.2,382.5 1046.6,383.0 1048.1,378.9 1049.5,380.1 1051.0,378.8 1052.4,379.2 1053.9,377.5 1055.3,379.1 1056.8,380.9 1058.2,379.9 1059.7,377.1 1061.1,378.7 1062.6,377.2 1064.0,376.3 1065.5,375.5 1066.9,373.3 1068.4,373.5 1069.8,371.9 1071.3,372.1 1072.7,371.5 1074.2,370.6 1075.6,370.6 1077.1,369.1 1078.5,370.6 1080.0,371.4 1081.5,373.2 1082.9,371.2 1084.4,370.7 1085.8,370.0 1087.3,368.3 1088.7,367.8 1090.2,367.8 1091.6,367.3 1093.1,368.1 1094.5,365.8 1096.0,366.7 1097.4,375.8 1098.9,370.9 1100.3,371.0 1101.8,369.8 1103.2,372.7 1104.7,369.8 1106.1,366.8 1107.6,367.1 1109.0,369.1 1110.5,366.5 1111.9,364.2 1113.4,360.4 1114.8,359.6 1116.3,359.9 1117.7,360.9 1119.2,362.1 1120.6,362.1 1122.1,366.5 1123.5,364.2 1125.0,366.7 1126.5,366.5 1127.9,362.2 1129.4,361.4 1130.8,362.0 1132.3,366.4 1133.7,366.0 1135.2,369.8 1136.6,372.2 1138.1,367.6 1139.5,374.8 1141.0,372.1 1142.4,368.0 1143.9,364.8 1145.3,362.8 1146.8,361.3 1148.2,362.9 1149.7,361.9 1151.1,361.3 1152.6,360.7 1154.0,360.2 1155.5,360.8 1156.9,361.8 1158.4,360.3 1159.8,359.0 1161.3,362.1 1162.7,363.2 1164.2,364.0 1165.6,366.3 1167.1,364.6 1168.5,362.3 1170.0,360.6 1171.5,359.4 1172.9,358.5 1174.4,358.4 1175.8,359.6 1177.3,360.3 1178.7,361.8 1180.2,361.6 1181.6,359.6 1183.1,357.4 1184.5,358.3 1186.0,358.6 1187.4,356.3 1188.9,356.5 1190.3,356.7 1191.8,358.6 1193.2,357.0 1194.7,357.7 1196.1,363.6 1197.6,359.8 1199.0,358.6 1200.5,359.3 1201.9,357.0 1203.4,355.0 1204.8,356.2 1206.3,357.1 1207.7,358.1 1209.2,355.1 1210.6,358.9 1212.1,359.3 1213.5,365.8 1215.0,358.1 1216.5,356.6 1217.9,356.6 1219.4,357.2 1220.8,362.7 1222.3,362.5 1223.7,362.1 1225.2,360.2 1226.6,360.5 1228.1,358.5 1229.5,361.5 1231.0,359.3 1232.4,357.3 1233.9,360.0 1235.3,361.3 1236.8,360.9 1238.2,363.1 1239.7,359.8 1241.1,362.0 1242.6,366.9 1244.0,365.1 1245.5,363.9 1246.9,367.0 1248.4,369.2 1249.8,370.8 1251.3,368.1 1252.7,367.5 1254.2,371.8 1255.6,371.7 1257.1,375.3 1258.5,373.7 1260.0,373.3 1261.5,374.3 1262.9,377.8 1264.4,384.7 1265.8,385.8 1267.3,375.8 1268.7,374.6 1270.2,374.1 1271.6,373.1 1273.1,365.9 1274.5,365.4 1276.0,363.3 1277.4,362.7 1278.9,360.0 1280.3,356.2 1281.8,353.4 1283.2,352.7 1284.7,348.7 1286.1,349.3 1287.6,350.5 1289.0,348.9 1290.5,349.3 1291.9,347.2 1293.4,346.2 1294.8,348.0 1296.3,347.4 1297.7,344.5 1299.2,344.5 1300.6,344.5 1302.1,344.5 1303.5,345.5 1305.0,341.5 1306.5,338.5 1307.9,339.2 1309.4,336.3 1310.8,336.3 1312.3,336.3 1313.7,335.6 1315.2,336.8 1316.6,333.6 1318.1,331.7 1319.5,336.5 1321.0,336.5 1322.4,336.5 1323.9,335.7 1325.3,337.9 1326.8,336.0 1328.2,333.3 1329.7,333.5 1331.1,333.5 1332.6,333.5 1334.0,333.5 1335.5,330.2 1336.9,330.6 1338.4,328.3 1339.8,327.9 1341.3,327.9 1342.7,327.9 1344.2,327.5 1345.6,326.2 1347.1,330.4 1348.5,328.5 1350.0,337.5" fill="none" stroke="#777" stroke-width="2.3"/>
<text x="90" y="555" font-family="Arial" font-size="16" fill="#172033">Drawdown (%)</text><line x1="90" y1="755" x2="1350" y2="755" stroke="#ccd2dc"/><polyline points="90.0,575.0 91.5,575.0 92.9,575.0 94.4,575.0 95.8,575.0 97.3,575.0 98.7,575.0 100.2,575.0 101.6,575.0 103.1,575.0 104.5,575.0 106.0,575.0 107.4,575.0 108.9,575.0 110.3,575.0 111.8,575.0 113.2,575.0 114.7,619.8 116.1,619.8 117.6,575.0 119.0,575.0 120.5,575.0 121.9,575.0 123.4,575.0 124.8,575.0 126.3,575.0 127.7,575.0 129.2,575.0 130.6,575.0 132.1,575.0 133.5,575.0 135.0,575.0 136.5,600.4 137.9,600.4 139.4,591.5 140.8,591.5 142.3,615.9 143.7,615.9 145.2,657.5 146.6,657.5 148.1,646.6 149.5,638.6 151.0,623.6 152.4,614.6 153.9,631.1 155.3,612.3 156.8,582.8 158.2,582.8 159.7,575.0 161.1,575.0 162.6,575.0 164.0,575.0 165.5,575.0 166.9,575.0 168.4,575.0 169.8,575.0 171.3,575.0 172.7,575.0 174.2,575.0 175.6,575.0 177.1,575.0 178.5,575.0 180.0,594.3 181.5,615.3 182.9,615.3 184.4,615.3 185.8,610.5 187.3,610.5 188.7,610.5 190.2,603.9 191.6,597.4 193.1,617.5 194.5,617.5 196.0,617.5 197.4,617.5 198.9,617.5 200.3,617.5 201.8,611.4 203.2,611.4 204.7,611.4 206.1,611.4 207.6,611.4 209.0,622.4 210.5,639.1 211.9,639.1 213.4,634.3 214.8,624.6 216.3,624.6 217.7,620.7 219.2,614.1 220.6,609.3 222.1,600.9 223.5,600.9 225.0,596.5 226.5,588.2 227.9,588.2 229.4,578.6 230.8,578.6 232.3,578.6 233.7,578.6 235.2,587.3 236.6,587.3 238.1,587.3 239.5,580.3 241.0,580.3 242.4,580.3 243.9,580.3 245.3,580.3 246.8,590.8 248.2,586.9 249.7,586.9 251.1,623.0 252.6,623.0 254.0,618.6 255.5,629.6 256.9,619.5 258.4,619.5 259.8,611.1 261.3,601.1 262.7,596.2 264.2,596.2 265.6,592.3 267.1,592.3 268.5,592.3 270.0,592.3 271.5,592.3 272.9,592.3 274.4,592.3 275.8,592.3 277.3,592.3 278.7,587.5 280.2,595.8 281.6,595.8 283.1,595.8 284.5,589.7 286.0,583.5 287.4,579.1 288.9,579.1 290.3,579.1 291.8,575.0 293.2,575.0 294.7,575.0 296.1,575.0 297.6,575.0 299.0,585.0 300.5,575.0 301.9,575.0 303.4,575.0 304.8,575.0 306.3,575.0 307.7,575.0 309.2,575.0 310.6,575.0 312.1,575.0 313.5,575.0 315.0,593.5 316.5,580.8 317.9,575.5 319.4,575.0 320.8,575.0 322.3,575.0 323.7,575.0 325.2,575.0 326.6,575.0 328.1,575.0 329.5,575.0 331.0,575.0 332.4,575.0 333.9,593.0 335.3,587.8 336.8,587.8 338.2,587.8 339.7,587.8 341.1,587.8 342.6,587.8 344.0,587.8 345.5,587.8 346.9,597.8 348.4,597.8 349.8,597.8 351.3,597.8 352.7,597.8 354.2,597.8 355.6,595.8 357.1,605.4 358.5,605.4 360.0,605.4 361.5,605.4 362.9,605.4 364.4,633.3 365.8,633.3 367.3,625.3 368.7,625.3 370.2,634.5 371.6,634.5 373.1,623.7 374.5,623.7 376.0,623.7 377.4,620.9 378.9,609.0 380.3,609.0 381.8,593.5 383.2,593.5 384.7,579.7 386.1,606.3 387.6,594.4 389.0,586.8 390.5,586.8 391.9,575.0 393.4,575.0 394.8,575.0 396.3,575.0 397.7,575.0 399.2,575.0 400.6,583.2 402.1,583.2 403.5,583.2 405.0,583.2 406.5,595.2 407.9,595.2 409.4,589.8 410.8,589.8 412.3,585.9 413.7,596.4 415.2,596.4 416.6,596.4 418.1,596.4 419.5,596.4 421.0,596.4 422.4,589.8 423.9,589.8 425.3,589.8 426.8,589.8 428.2,589.8 429.7,601.4 431.1,601.4 432.6,601.4 434.0,601.4 435.5,601.4 436.9,601.4 438.4,601.4 439.8,597.9 441.3,597.9 442.7,597.9 444.2,591.7 445.6,591.7 447.1,586.6 448.5,586.6 450.0,586.6 451.5,580.8 452.9,580.8 454.4,580.8 455.8,580.8 457.3,580.8 458.7,580.8 460.2,575.8 461.6,575.8 463.1,575.8 464.5,575.0 466.0,575.0 467.4,575.0 468.9,575.0 470.3,586.8 471.8,583.0 473.2,595.2 474.7,602.9 476.1,612.0 477.6,608.2 479.0,604.4 480.5,604.4 481.9,596.0 483.4,591.8 484.8,604.4 486.3,604.4 487.7,604.4 489.2,600.6 490.6,600.6 492.1,596.0 493.5,596.0 495.0,613.9 496.5,609.0 497.9,622.3 499.4,622.3 500.8,625.8 502.3,625.8 503.7,639.1 505.2,639.1 506.6,639.1 508.1,639.1 509.5,639.1 511.0,632.7 512.4,632.7 513.9,632.7 515.3,626.9 516.8,626.9 518.2,626.9 519.7,626.9 521.1,626.9 522.6,626.9 524.0,626.9 525.5,626.9 526.9,616.9 528.4,616.9 529.8,616.9 531.3,616.9 532.7,613.5 534.2,613.5 535.6,613.5 537.1,613.5 538.5,609.3 540.0,605.1 541.5,605.1 542.9,605.1 544.4,605.1 545.8,605.1 547.3,598.6 548.7,598.6 550.2,598.6 551.6,598.6 553.1,634.8 554.5,620.0 556.0,603.4 557.4,603.4 558.9,603.4 560.3,603.4 561.8,592.9 563.2,590.3 564.7,609.7 566.1,609.7 567.6,600.9 569.0,594.1 570.5,618.9 571.9,618.9 573.4,662.1 574.8,655.6 576.3,655.6 577.7,651.0 579.2,645.7 580.6,639.6 582.1,633.9 583.5,633.9 585.0,627.0 586.5,627.0 587.9,622.8 589.4,622.8 590.8,622.8 592.3,619.4 593.7,619.4 595.2,633.9 596.6,632.0 598.1,632.0 599.5,632.0 601.0,632.0 602.4,632.0 603.9,621.1 605.3,608.8 606.8,603.1 608.2,603.1 609.7,603.1 611.1,603.1 612.6,603.1 614.0,603.1 615.5,618.8 616.9,618.8 618.4,615.3 619.8,608.1 621.3,608.1 622.7,608.1 624.2,619.1 625.6,627.2 627.1,637.5 628.5,631.4 630.0,642.8 631.5,642.8 632.9,642.8 634.4,638.6 635.8,631.4 637.3,631.4 638.7,631.4 640.2,626.8 641.6,626.8 643.1,626.8 644.5,624.1 646.0,618.4 647.4,618.4 648.9,604.0 650.3,604.0 651.8,593.5 653.2,583.1 654.7,583.1 656.1,583.1 657.6,579.6 659.0,579.6 660.5,575.0 661.9,575.0 663.4,575.0 664.8,575.0 666.3,575.0 667.7,575.0 669.2,602.2 670.6,602.2 672.1,602.2 673.5,630.2 675.0,619.8 676.5,619.8 677.9,612.1 679.4,612.1 680.8,606.9 682.3,600.7 683.7,586.1 685.2,579.1 686.6,575.0 688.1,575.0 689.5,575.0 691.0,575.0 692.4,575.0 693.9,575.0 695.3,575.0 696.8,575.0 698.2,575.0 699.7,575.0 701.1,575.0 702.6,575.0 704.0,575.0 705.5,575.0 706.9,575.0 708.4,575.0 709.8,589.1 711.3,575.0 712.7,591.5 714.2,614.1 715.6,609.3 717.1,606.3 718.5,616.4 720.0,616.4 721.5,616.4 722.9,616.4 724.4,616.4 725.8,616.4 727.3,603.8 728.7,603.8 730.2,603.8 731.6,603.8 733.1,601.5 734.5,601.5 736.0,598.9 737.4,598.9 738.9,612.2 740.3,612.2 741.8,612.2 743.2,612.2 744.7,612.2 746.1,612.2 747.6,621.0 749.0,621.0 750.5,617.1 751.9,617.1 753.4,617.1 754.8,617.1 756.3,617.1 757.7,615.1 759.2,615.1 760.6,615.1 762.1,615.1 763.5,615.1 765.0,610.6 766.5,610.6 767.9,610.6 769.4,610.6 770.8,624.2 772.3,624.2 773.7,624.2 775.2,624.2 776.6,624.2 778.1,624.2 779.5,617.1 781.0,612.9 782.4,608.0 783.9,608.0 785.3,608.0 786.8,606.7 788.2,603.8 789.7,612.5 791.1,610.3 792.6,610.3 794.0,620.7 795.5,620.7 796.9,620.7 798.4,620.7 799.8,620.7 801.3,620.7 802.7,620.7 804.2,620.7 805.6,620.7 807.1,597.3 808.5,584.4 810.0,584.4 811.5,584.4 812.9,584.4 814.4,584.4 815.8,626.0 817.3,626.0 818.7,616.4 820.2,616.4 821.6,616.4 823.1,605.7 824.5,621.5 826.0,606.3 827.4,598.9 828.9,598.9 830.3,619.3 831.8,612.5 833.2,606.9 834.7,600.8 836.1,600.8 837.6,600.8 839.0,583.8 840.5,576.0 841.9,576.0 843.4,575.0 844.8,575.0 846.3,575.0 847.7,575.0 849.2,575.0 850.6,575.0 852.1,575.0 853.5,575.0 855.0,575.0 856.5,575.0 857.9,575.0 859.4,575.0 860.8,575.0 862.3,575.0 863.7,575.0 865.2,575.0 866.6,575.0 868.1,575.0 869.5,600.1 871.0,575.0 872.4,575.0 873.9,575.0 875.3,575.0 876.8,575.0 878.2,575.0 879.7,575.0 881.1,575.0 882.6,575.0 884.0,575.0 885.5,575.0 886.9,575.0 888.4,575.0 889.8,575.0 891.3,575.0 892.7,575.0 894.2,575.0 895.6,575.0 897.1,575.0 898.5,588.6 900.0,577.5 901.5,577.5 902.9,577.5 904.4,577.5 905.8,577.5 907.3,577.5 908.7,623.6 910.2,599.1 911.6,630.6 913.1,630.6 914.5,630.6 916.0,610.8 917.4,597.2 918.9,583.9 920.3,583.9 921.8,575.0 923.2,607.0 924.7,607.0 926.1,593.5 927.6,593.5 929.0,585.3 930.5,609.0 931.9,609.0 933.4,609.0 934.8,609.0 936.3,609.0 937.7,609.0 939.2,597.9 940.6,621.0 942.1,621.0 943.5,621.0 945.0,621.0 946.5,621.0 947.9,621.0 949.4,621.0 950.8,621.0 952.3,606.8 953.7,606.8 955.2,600.4 956.6,600.4 958.1,600.4 959.5,596.3 961.0,587.4 962.4,587.4 963.9,587.4 965.3,579.8 966.8,579.8 968.2,579.8 969.7,579.8 971.1,579.8 972.6,579.8 974.0,579.8 975.5,579.8 976.9,575.0 978.4,596.6 979.8,596.6 981.3,596.6 982.7,596.6 984.2,614.5 985.6,609.0 987.1,606.3 988.5,606.3 990.0,606.3 991.5,606.3 992.9,606.3 994.4,601.3 995.8,601.3 997.3,601.3 998.7,601.3 1000.2,601.3 1001.6,601.3 1003.1,601.3 1004.5,601.3 1006.0,601.3 1007.4,601.3 1008.9,601.3 1010.3,597.5 1011.8,593.1 1013.2,593.1 1014.7,605.7 1016.1,601.9 1017.6,601.9 1019.0,601.9 1020.5,611.2 1021.9,611.2 1023.4,592.4 1024.8,592.4 1026.3,592.4 1027.7,592.4 1029.2,592.4 1030.6,585.8 1032.1,578.6 1033.5,578.6 1035.0,578.6 1036.5,578.6 1037.9,590.1 1039.4,590.1 1040.8,590.1 1042.3,590.1 1043.7,600.0 1045.2,600.0 1046.6,600.0 1048.1,593.4 1049.5,593.4 1051.0,593.4 1052.4,585.6 1053.9,582.0 1055.3,575.0 1056.8,599.4 1058.2,605.4 1059.7,601.3 1061.1,601.3 1062.6,598.5 1064.0,608.6 1065.5,617.1 1066.9,617.1 1068.4,617.1 1069.8,617.1 1071.3,617.1 1072.7,617.1 1074.2,617.1 1075.6,617.1 1077.1,617.1 1078.5,623.7 1080.0,633.8 1081.5,624.7 1082.9,620.6 1084.4,620.6 1085.8,614.1 1087.3,614.1 1088.7,611.1 1090.2,611.1 1091.6,611.1 1093.1,611.1 1094.5,608.9 1096.0,608.9 1097.4,603.7 1098.9,595.9 1100.3,595.9 1101.8,609.0 1103.2,616.1 1104.7,616.1 1106.1,616.1 1107.6,613.4 1109.0,627.9 1110.5,627.9 1111.9,627.9 1113.4,624.8 1114.8,624.8 1116.3,624.8 1117.7,624.8 1119.2,616.1 1120.6,616.1 1122.1,602.7 1123.5,602.7 1125.0,588.0 1126.5,588.0 1127.9,584.7 1129.4,579.3 1130.8,575.0 1132.3,575.0 1133.7,575.0 1135.2,606.3 1136.6,590.8 1138.1,577.1 1139.5,599.4 1141.0,599.4 1142.4,596.9 1143.9,589.9 1145.3,582.0 1146.8,578.2 1148.2,575.0 1149.7,575.0 1151.1,575.0 1152.6,575.0 1154.0,575.0 1155.5,595.8 1156.9,595.8 1158.4,584.5 1159.8,584.5 1161.3,575.0 1162.7,575.0 1164.2,575.0 1165.6,575.0 1167.1,575.0 1168.5,575.0 1170.0,575.0 1171.5,575.0 1172.9,575.0 1174.4,575.0 1175.8,579.8 1177.3,576.8 1178.7,575.0 1180.2,591.8 1181.6,591.8 1183.1,591.8 1184.5,590.5 1186.0,583.4 1187.4,577.6 1188.9,577.6 1190.3,577.6 1191.8,577.6 1193.2,575.0 1194.7,585.8 1196.1,575.0 1197.6,575.0 1199.0,575.0 1200.5,575.0 1201.9,580.1 1203.4,580.1 1204.8,575.0 1206.3,575.0 1207.7,575.0 1209.2,575.0 1210.6,575.0 1212.1,575.0 1213.5,602.6 1215.0,602.6 1216.5,602.6 1217.9,602.6 1219.4,602.6 1220.8,618.1 1222.3,618.1 1223.7,606.3 1225.2,594.6 1226.6,588.5 1228.1,579.2 1229.5,575.0 1231.0,575.0 1232.4,575.0 1233.9,575.0 1235.3,575.0 1236.8,575.0 1238.2,575.0 1239.7,575.0 1241.1,594.3 1242.6,594.3 1244.0,581.5 1245.5,577.1 1246.9,577.1 1248.4,577.1 1249.8,577.1 1251.3,575.0 1252.7,588.2 1254.2,588.2 1255.6,588.2 1257.1,588.2 1258.5,588.2 1260.0,588.2 1261.5,588.2 1262.9,588.2 1264.4,588.2 1265.8,588.2 1267.3,586.3 1268.7,579.8 1270.2,575.0 1271.6,575.0 1273.1,575.0 1274.5,575.0 1276.0,575.0 1277.4,575.0 1278.9,575.0 1280.3,575.0 1281.8,575.0 1283.2,575.0 1284.7,575.0 1286.1,584.2 1287.6,575.6 1289.0,575.0 1290.5,575.0 1291.9,575.0 1293.4,575.0 1294.8,575.0 1296.3,575.0 1297.7,575.0 1299.2,575.0 1300.6,575.0 1302.1,575.0 1303.5,575.0 1305.0,575.0 1306.5,575.0 1307.9,575.0 1309.4,575.0 1310.8,575.0 1312.3,575.0 1313.7,575.0 1315.2,575.0 1316.6,575.0 1318.1,575.0 1319.5,575.0 1321.0,575.0 1322.4,575.0 1323.9,575.0 1325.3,575.0 1326.8,575.0 1328.2,575.0 1329.7,575.0 1331.1,575.0 1332.6,575.0 1334.0,575.0 1335.5,575.0 1336.9,575.0 1338.4,575.0 1339.8,584.4 1341.3,584.4 1342.7,584.4 1344.2,584.4 1345.6,584.4 1347.1,591.1 1348.5,591.1 1350.0,584.1" fill="none" stroke="#b52b27" stroke-width="2.5"/><polyline points="90.0,575.0 91.5,581.8 92.9,575.0 94.4,576.0 95.8,575.0 97.3,575.0 98.7,575.0 100.2,575.0 101.6,578.7 103.1,591.5 104.5,594.6 106.0,579.7 107.4,575.0 108.9,578.9 110.3,575.0 111.8,575.0 113.2,575.0 114.7,583.4 116.1,575.7 117.6,575.0 119.0,575.0 120.5,580.9 121.9,582.2 123.4,575.0 124.8,582.0 126.3,591.0 127.7,588.5 129.2,579.4 130.6,581.6 132.1,575.8 133.5,590.5 135.0,590.3 136.5,606.2 137.9,606.4 139.4,604.5 140.8,613.5 142.3,609.3 143.7,616.4 145.2,617.0 146.6,611.5 148.1,595.8 149.5,595.8 151.0,609.3 152.4,608.5 153.9,626.2 155.3,632.6 156.8,635.3 158.2,623.1 159.7,629.0 161.1,613.9 162.6,624.3 164.0,618.9 165.5,608.0 166.9,620.7 168.4,618.3 169.8,613.0 171.3,611.9 172.7,612.7 174.2,603.8 175.6,596.9 177.1,585.4 178.5,583.7 180.0,586.8 181.5,590.5 182.9,587.4 184.4,584.5 185.8,585.0 187.3,590.7 188.7,578.3 190.2,578.4 191.6,576.8 193.1,576.8 194.5,578.8 196.0,581.3 197.4,580.6 198.9,580.2 200.3,589.3 201.8,594.4 203.2,581.0 204.7,575.0 206.1,577.3 207.6,585.5 209.0,594.7 210.5,595.4 211.9,583.1 213.4,582.4 214.8,584.8 216.3,580.8 217.7,582.6 219.2,586.0 220.6,582.3 222.1,585.9 223.5,577.3 225.0,575.0 226.5,577.7 227.9,575.0 229.4,585.7 230.8,589.4 232.3,587.3 233.7,575.0 235.2,575.3 236.6,579.3 238.1,575.0 239.5,575.0 241.0,577.8 242.4,575.0 243.9,578.8 245.3,575.0 246.8,575.0 248.2,575.0 249.7,575.0 251.1,575.0 252.6,575.0 254.0,579.7 255.5,583.8 256.9,588.5 258.4,585.4 259.8,592.9 261.3,593.9 262.7,587.6 264.2,584.7 265.6,582.1 267.1,575.0 268.5,575.0 270.0,577.2 271.5,583.6 272.9,585.3 274.4,583.3 275.8,578.0 277.3,575.0 278.7,575.0 280.2,575.2 281.6,575.0 283.1,575.0 284.5,575.1 286.0,578.4 287.4,578.8 288.9,575.0 290.3,575.0 291.8,575.0 293.2,580.3 294.7,575.0 296.1,575.0 297.6,580.3 299.0,588.1 300.5,590.0 301.9,595.8 303.4,588.3 304.8,592.3 306.3,595.7 307.7,596.4 309.2,597.6 310.6,592.5 312.1,602.5 313.5,609.4 315.0,616.0 316.5,615.7 317.9,611.1 319.4,611.9 320.8,599.0 322.3,613.9 323.7,609.0 325.2,603.2 326.6,590.8 328.1,587.7 329.5,588.5 331.0,588.0 332.4,591.4 333.9,597.0 335.3,599.2 336.8,598.9 338.2,593.5 339.7,597.2 341.1,595.4 342.6,588.5 344.0,602.4 345.5,601.2 346.9,603.1 348.4,612.5 349.8,625.3 351.3,626.1 352.7,623.4 354.2,633.9 355.6,633.6 357.1,629.9 358.5,632.2 360.0,632.3 361.5,643.3 362.9,638.2 364.4,638.7 365.8,627.2 367.3,623.1 368.7,618.7 370.2,613.6 371.6,620.0 373.1,626.5 374.5,616.0 376.0,617.9 377.4,626.6 378.9,635.3 380.3,645.1 381.8,642.8 383.2,640.1 384.7,654.3 386.1,656.0 387.6,664.3 389.0,655.4 390.5,651.3 391.9,639.4 393.4,627.6 394.8,617.5 396.3,618.4 397.7,614.8 399.2,615.0 400.6,620.6 402.1,608.2 403.5,607.8 405.0,591.1 406.5,590.6 407.9,588.7 409.4,589.2 410.8,581.3 412.3,584.1 413.7,580.6 415.2,579.6 416.6,580.9 418.1,579.8 419.5,580.5 421.0,578.1 422.4,575.0 423.9,582.5 425.3,579.4 426.8,585.0 428.2,578.3 429.7,575.0 431.1,575.0 432.6,575.0 434.0,575.0 435.5,575.6 436.9,578.5 438.4,575.5 439.8,575.0 441.3,585.8 442.7,579.2 444.2,577.8 445.6,575.0 447.1,575.0 448.5,575.0 450.0,578.6 451.5,583.3 452.9,588.9 454.4,591.7 455.8,590.5 457.3,580.1 458.7,580.9 460.2,575.0 461.6,577.9 463.1,577.6 464.5,579.2 466.0,583.6 467.4,575.6 468.9,575.0 470.3,575.0 471.8,575.0 473.2,575.8 474.7,575.0 476.1,575.2 477.6,575.0 479.0,578.7 480.5,587.8 481.9,575.0 483.4,575.0 484.8,576.9 486.3,575.0 487.7,575.0 489.2,575.0 490.6,575.0 492.1,576.4 493.5,586.6 495.0,579.0 496.5,575.0 497.9,580.6 499.4,584.5 500.8,576.2 502.3,575.0 503.7,575.5 505.2,577.7 506.6,576.0 508.1,577.7 509.5,575.0 511.0,575.0 512.4,575.7 513.9,583.4 515.3,580.1 516.8,575.0 518.2,580.5 519.7,578.8 521.1,575.0 522.6,575.8 524.0,579.6 525.5,587.0 526.9,582.6 528.4,577.6 529.8,575.0 531.3,575.0 532.7,578.5 534.2,578.9 535.6,580.2 537.1,575.7 538.5,575.0 540.0,577.1 541.5,581.9 542.9,578.9 544.4,590.8 545.8,582.1 547.3,581.8 548.7,580.7 550.2,591.0 551.6,582.7 553.1,596.4 554.5,605.5 556.0,604.7 557.4,611.1 558.9,615.0 560.3,621.5 561.8,613.9 563.2,602.2 564.7,608.8 566.1,601.1 567.6,598.5 569.0,596.6 570.5,610.7 571.9,609.0 573.4,602.1 574.8,592.5 576.3,585.7 577.7,584.3 579.2,584.8 580.6,578.9 582.1,579.9 583.5,578.6 585.0,575.0 586.5,575.0 587.9,577.4 589.4,575.9 590.8,575.4 592.3,575.0 593.7,575.7 595.2,583.7 596.6,578.3 598.1,578.5 599.5,586.9 601.0,590.6 602.4,580.2 603.9,581.3 605.3,578.9 606.8,575.0 608.2,575.8 609.7,577.6 611.1,575.0 612.6,575.0 614.0,575.0 615.5,575.0 616.9,575.0 618.4,575.0 619.8,575.0 621.3,577.5 622.7,582.0 624.2,584.0 625.6,581.5 627.1,582.6 628.5,577.7 630.0,580.7 631.5,581.1 632.9,575.9 634.4,575.0 635.8,575.0 637.3,575.0 638.7,575.6 640.2,575.0 641.6,582.0 643.1,576.9 644.5,575.0 646.0,575.0 647.4,584.6 648.9,591.5 650.3,598.5 651.8,590.5 653.2,594.9 654.7,608.4 656.1,613.2 657.6,605.7 659.0,607.0 660.5,608.0 661.9,591.7 663.4,610.5 664.8,625.6 666.3,638.4 667.7,642.9 669.2,648.9 670.6,625.1 672.1,623.0 673.5,622.4 675.0,609.3 676.5,606.6 677.9,591.5 679.4,591.0 680.8,582.7 682.3,583.9 683.7,579.9 685.2,586.0 686.6,578.3 688.1,581.3 689.5,580.5 691.0,590.1 692.4,583.5 693.9,576.3 695.3,595.4 696.8,596.5 698.2,598.3 699.7,614.1 701.1,601.4 702.6,599.6 704.0,590.3 705.5,582.8 706.9,579.2 708.4,578.0 709.8,576.4 711.3,575.0 712.7,575.0 714.2,578.2 715.6,576.4 717.1,575.0 718.5,575.4 720.0,575.0 721.5,577.7 722.9,575.0 724.4,583.3 725.8,580.3 727.3,583.2 728.7,576.4 730.2,583.5 731.6,575.8 733.1,575.0 734.5,575.4 736.0,575.0 737.4,575.0 738.9,582.1 740.3,579.6 741.8,577.7 743.2,575.0 744.7,576.6 746.1,577.4 747.6,584.1 749.0,582.9 750.5,585.0 751.9,580.9 753.4,577.5 754.8,585.1 756.3,597.7 757.7,594.8 759.2,597.3 760.6,583.2 762.1,575.0 763.5,575.0 765.0,575.0 766.5,575.0 767.9,577.9 769.4,576.1 770.8,584.0 772.3,592.2 773.7,589.6 775.2,584.7 776.6,588.9 778.1,582.5 779.5,577.4 781.0,579.2 782.4,575.0 783.9,577.4 785.3,575.0 786.8,575.0 788.2,575.0 789.7,575.0 791.1,575.8 792.6,575.0 794.0,579.2 795.5,580.9 796.9,575.8 798.4,577.8 799.8,580.0 801.3,576.9 802.7,579.6 804.2,602.7 805.6,607.7 807.1,596.6 808.5,593.0 810.0,583.9 811.5,584.9 812.9,592.4 814.4,603.3 815.8,604.6 817.3,605.5 818.7,596.7 820.2,591.7 821.6,600.3 823.1,602.2 824.5,614.0 826.0,609.3 827.4,610.0 828.9,594.4 830.3,597.4 831.8,588.7 833.2,579.2 834.7,577.1 836.1,575.0 837.6,577.3 839.0,589.0 840.5,582.1 841.9,583.5 843.4,579.5 844.8,589.3 846.3,587.3 847.7,587.3 849.2,581.2 850.6,579.4 852.1,587.6 853.5,582.3 855.0,580.4 856.5,581.4 857.9,575.0 859.4,575.0 860.8,575.0 862.3,575.0 863.7,577.7 865.2,591.9 866.6,595.1 868.1,598.0 869.5,601.3 871.0,613.7 872.4,600.3 873.9,613.0 875.3,619.8 876.8,617.7 878.2,628.4 879.7,627.8 881.1,650.8 882.6,651.8 884.0,647.7 885.5,657.3 886.9,645.6 888.4,638.9 889.8,647.0 891.3,636.3 892.7,640.6 894.2,641.7 895.6,629.3 897.1,626.2 898.5,638.0 900.0,639.4 901.5,657.0 902.9,652.8 904.4,646.1 905.8,669.8 907.3,682.0 908.7,725.4 910.2,719.5 911.6,746.4 913.1,668.7 914.5,701.9 916.0,684.9 917.4,681.2 918.9,685.9 920.3,696.6 921.8,694.8 923.2,710.5 924.7,681.6 926.1,681.6 927.6,665.0 929.0,661.0 930.5,661.1 931.9,658.7 933.4,649.7 934.8,652.6 936.3,639.1 937.7,644.7 939.2,643.9 940.6,647.3 942.1,642.6 943.5,641.7 945.0,617.5 946.5,610.3 947.9,611.9 949.4,606.2 950.8,608.9 952.3,598.6 953.7,603.1 955.2,616.2 956.6,616.1 958.1,621.9 959.5,604.6 961.0,597.2 962.4,609.1 963.9,608.7 965.3,604.3 966.8,597.5 968.2,598.8 969.7,602.5 971.1,592.7 972.6,592.5 974.0,588.5 975.5,591.8 976.9,592.1 978.4,596.1 979.8,593.9 981.3,597.8 982.7,596.2 984.2,599.0 985.6,587.7 987.1,582.6 988.5,582.4 990.0,575.4 991.5,575.0 992.9,575.0 994.4,575.0 995.8,575.0 997.3,575.0 998.7,581.9 1000.2,581.5 1001.6,576.9 1003.1,575.0 1004.5,579.5 1006.0,578.0 1007.4,582.3 1008.9,579.3 1010.3,575.0 1011.8,576.2 1013.2,575.0 1014.7,575.0 1016.1,575.0 1017.6,575.0 1019.0,575.0 1020.5,575.1 1021.9,577.8 1023.4,575.0 1024.8,585.6 1026.3,598.9 1027.7,584.7 1029.2,590.9 1030.6,582.2 1032.1,582.6 1033.5,575.5 1035.0,579.3 1036.5,575.0 1037.9,575.0 1039.4,575.0 1040.8,577.4 1042.3,577.1 1043.7,582.9 1045.2,584.8 1046.6,586.5 1048.1,575.0 1049.5,578.3 1051.0,575.0 1052.4,576.2 1053.9,575.0 1055.3,579.8 1056.8,584.8 1058.2,581.9 1059.7,575.0 1061.1,579.6 1062.6,575.4 1064.0,575.0 1065.5,575.0 1066.9,575.0 1068.4,575.6 1069.8,575.0 1071.3,575.5 1072.7,575.0 1074.2,575.0 1075.6,575.0 1077.1,575.0 1078.5,579.1 1080.0,581.5 1081.5,586.5 1082.9,581.0 1084.4,579.4 1085.8,577.6 1087.3,575.0 1088.7,575.0 1090.2,575.0 1091.6,575.0 1093.1,577.3 1094.5,575.0 1096.0,577.3 1097.4,602.7 1098.9,589.1 1100.3,589.3 1101.8,586.0 1103.2,594.0 1104.7,585.9 1106.1,577.6 1107.6,578.6 1109.0,584.0 1110.5,576.9 1111.9,575.0 1113.4,575.0 1114.8,575.0 1116.3,575.7 1117.7,578.5 1119.2,581.9 1120.6,581.7 1122.1,593.7 1123.5,587.5 1125.0,594.2 1126.5,593.7 1127.9,581.9 1129.4,580.0 1130.8,581.6 1132.3,593.4 1133.7,592.4 1135.2,602.5 1136.6,609.2 1138.1,596.6 1139.5,616.2 1141.0,609.0 1142.4,597.6 1143.9,589.2 1145.3,583.6 1146.8,579.6 1148.2,584.0 1149.7,581.1 1151.1,579.6 1152.6,578.1 1154.0,576.6 1155.5,578.2 1156.9,581.0 1158.4,576.9 1159.8,575.0 1161.3,583.3 1162.7,586.3 1164.2,588.5 1165.6,594.6 1167.1,590.1 1168.5,583.8 1170.0,579.3 1171.5,576.0 1172.9,575.0 1174.4,575.0 1175.8,578.2 1177.3,580.1 1178.7,584.2 1180.2,583.7 1181.6,578.2 1183.1,575.0 1184.5,577.5 1186.0,578.3 1187.4,575.0 1188.9,575.8 1190.3,576.1 1191.8,581.2 1193.2,576.9 1194.7,578.8 1196.1,594.6 1197.6,584.4 1199.0,581.4 1200.5,583.1 1201.9,576.9 1203.4,575.0 1204.8,578.1 1206.3,580.6 1207.7,583.2 1209.2,575.2 1210.6,585.4 1212.1,586.5 1213.5,603.7 1215.0,583.2 1216.5,579.3 1217.9,579.3 1219.4,580.8 1220.8,595.4 1222.3,595.0 1223.7,594.0 1225.2,588.9 1226.6,589.6 1228.1,584.4 1229.5,592.3 1231.0,586.4 1232.4,581.2 1233.9,588.4 1235.3,591.6 1236.8,590.8 1238.2,596.5 1239.7,587.6 1241.1,593.6 1242.6,606.8 1244.0,602.0 1245.5,598.7 1246.9,607.0 1248.4,613.0 1249.8,617.2 1251.3,610.1 1252.7,608.3 1254.2,619.8 1255.6,619.6 1257.1,629.3 1258.5,625.0 1260.0,623.9 1261.5,626.6 1262.9,636.0 1264.4,654.4 1265.8,657.4 1267.3,630.5 1268.7,627.4 1270.2,626.0 1271.6,623.4 1273.1,604.1 1274.5,602.7 1276.0,597.1 1277.4,595.4 1278.9,588.3 1280.3,578.2 1281.8,575.0 1283.2,575.0 1284.7,575.0 1286.1,576.5 1287.6,579.6 1289.0,575.3 1290.5,576.5 1291.9,575.0 1293.4,575.0 1294.8,579.6 1296.3,578.1 1297.7,575.0 1299.2,575.0 1300.6,575.0 1302.1,575.0 1303.5,577.7 1305.0,575.0 1306.5,575.0 1307.9,576.8 1309.4,575.0 1310.8,575.0 1312.3,575.0 1313.7,575.0 1315.2,578.1 1316.6,575.0 1318.1,575.0 1319.5,586.9 1321.0,586.9 1322.4,586.9 1323.9,585.1 1325.3,590.5 1326.8,585.8 1328.2,579.1 1329.7,579.5 1331.1,579.5 1332.6,579.5 1334.0,579.5 1335.5,575.0 1336.9,576.0 1338.4,575.0 1339.8,575.0 1341.3,575.0 1342.7,575.0 1344.2,575.0 1345.6,575.0 1347.1,585.4 1348.5,580.8 1350.0,602.9" fill="none" stroke="#999" stroke-width="2"/>
</svg>