<svg xmlns="http://www.w3.org/2000/svg" viewBox="0 0 1200 390" role="img" aria-labelledby="title desc">
<title id="title">Historical Intraday cumulative gross P&amp;L</title>
<desc id="desc">263 validated trades from January 4, 2023 through September 22, 2026. Cumulative gross P&amp;L finishes at 22,332 dollars. The last trade was September 15, 2026.</desc>
<rect width="1200" height="390" fill="#fff"/>
<text x="80" y="28" fill="#213a55" font-size="20" font-weight="700">Historical Intraday cumulative gross P&amp;L</text>
<line x1="80" y1="318" x2="1130" y2="318" stroke="#dce5ed"/><text x="68" y="323" text-anchor="end" fill="#526174" font-size="14">$0k</text>
<line x1="80" y1="261" x2="1130" y2="261" stroke="#dce5ed"/><text x="68" y="266" text-anchor="end" fill="#526174" font-size="14">$5k</text>
<line x1="80" y1="205" x2="1130" y2="205" stroke="#dce5ed"/><text x="68" y="210" text-anchor="end" fill="#526174" font-size="14">$10k</text>
<line x1="80" y1="148" x2="1130" y2="148" stroke="#dce5ed"/><text x="68" y="153" text-anchor="end" fill="#526174" font-size="14">$15k</text>
<line x1="80" y1="91" x2="1130" y2="91" stroke="#dce5ed"/><text x="68" y="96" text-anchor="end" fill="#526174" font-size="14">$20k</text>
<line x1="80" y1="65" x2="1130" y2="65" stroke="#dce5ed"/><text x="68" y="70" text-anchor="end" fill="#526174" font-size="14">$22.3k</text>
<polyline points="80,318 84,317 88,317 92,317 96,316 100,316 104,315 108,316 112,317 116,318 120,318 124,317 128,317 132,314 136,314 140,311 144,312 148,311 152,311 156,312 160,312 164,313 168,315 172,315 176,315 180,315 184,315 188,316 192,315 196,315 200,314 204,315 208,314 212,315 216,314 220,315 224,317 228,318 232,318 236,317 240,319 244,319 248,320 252,319 256,318 260,318 264,318 268,318 272,319 276,319 280,319 284,318 288,317 292,319 296,317 300,316 304,317 308,317 312,316 316,315 320,316 324,317 328,318 332,318 336,318 340,317 343,318 347,318 351,317 355,316 359,318 363,319 367,319 371,318 375,318 379,317 383,317 387,317 391,316 395,316 399,315 403,316 407,315 411,315 415,315 419,312 423,312 427,310 431,313 435,312 439,312 443,312 447,318 451,318 455,319 459,320 463,318 467,318 471,318 475,318 479,317 483,320 487,319 491,319 495,319 499,317 503,317 507,315 511,314 515,313 519,312 523,314 527,315 531,314 535,313 539,311 543,313 547,312 551,312 555,307 559,304 563,301 567,303 571,302 575,304 579,303 583,302 587,301 591,300 595,299 599,296 603,296 607,296 611,293 615,294 619,293 623,290 627,286 631,293 635,290 639,286 643,278 647,275 651,272 655,277 659,273 663,271 667,273 671,271 675,267 679,267 683,269 687,268 691,265 695,267 699,266 703,267 707,266 711,267 715,270 719,270 723,267 727,266 731,269 735,268 739,269 743,269 747,272 751,271 755,275 759,274 763,271 767,269 771,268 775,270 779,267 783,264 787,262 791,263 795,264 799,266 803,268 807,269 811,268 815,267 819,259 823,258 827,253 831,257 835,254 839,253 843,249 847,243 851,248 855,245 859,240 863,237 867,235 870,230 874,229 878,226 882,220 886,217 890,216 894,212 898,210 902,217 906,218 910,213 914,211 918,219 922,216 926,206 930,202 934,198 938,194 942,187 946,189 950,188 954,181 958,176 962,178 966,177 970,174 974,170 978,175 982,177 986,175 990,173 994,168 998,163 1002,159 1006,156 1010,157 1014,151 1018,152 1022,151 1026,155 1030,149 1034,141 1038,124 1042,120 1046,103 1050,112 1054,108 1058,99 1062,96 1066,94 1070,97 1074,95 1078,98 1082,90 1086,86 1090,79 1094,74 1098,77 1102,77 1106,80 1110,76 1114,75 1118,72 1122,70 1126,68 1130,65" fill="none" stroke="#234a76" stroke-width="3" stroke-linejoin="round" stroke-linecap="round"/>
<circle cx="1130" cy="65" r="5" fill="#234a76"/>
<text x="1130" y="55" text-anchor="end" fill="#213a55" font-size="16" font-weight="700">+$22,332</text>
<text x="80" y="355" fill="#526174" font-size="14">Jan 2023</text>
<text x="1130" y="355" text-anchor="end" fill="#526174" font-size="14">Sep 2026</text>
<text x="600" y="380" text-anchor="middle" fill="#526174" font-size="13">Gross research P&amp;L before fees; not live account equity.</text>
</svg>
